<?xml version="1.0" encoding="utf-8" standalone="no"?>
<!DOCTYPE svg PUBLIC "-//W3C//DTD SVG 1.1//EN"
  "http://www.w3.org/Graphics/SVG/1.1/DTD/svg11.dtd">
<!-- Created with matplotlib (http://matplotlib.org/) -->
<svg height="432pt" version="1.1" viewBox="0 0 576 432" width="576pt" xmlns="http://www.w3.org/2000/svg" xmlns:xlink="http://www.w3.org/1999/xlink">
 <defs>
  <style type="text/css">
*{stroke-linecap:butt;stroke-linejoin:round;stroke-miterlimit:100000;}
  </style>
 </defs>
 <g id="figure_1">
  <g id="patch_1">
   <path d="M 0 432 
L 576 432 
L 576 0 
L 0 0 
z
" style="fill:#ffffff;"/>
  </g>
  <g id="axes_1">
   <g id="patch_2">
    <path d="M 72 388.8 
L 518.4 388.8 
L 518.4 43.2 
L 72 43.2 
z
" style="fill:#ffffff;"/>
   </g>
   <g id="PolyCollection_1">
    <defs>
     <path d="M 518.4 -43.2 
L 518.4 -190.925534 
L 510.568421 -190.925534 
L 510.568421 -189.485714 
L 510.568421 -189.485714 
L 510.568421 -190.656 
L 502.736842 -190.656 
L 502.736842 -189.190783 
L 502.736842 -189.190783 
L 502.736842 -190.3777 
L 502.736842 -190.3777 
L 502.736842 -191.584075 
L 502.736842 -191.584075 
L 502.736842 -192.81039 
L 502.736842 -192.81039 
L 502.736842 -194.057143 
L 494.905263 -194.057143 
L 494.905263 -192.558944 
L 494.905263 -192.558944 
L 494.905263 -193.824697 
L 487.073684 -193.824697 
L 487.073684 -192.298901 
L 479.242105 -192.298901 
L 479.242105 -190.746798 
L 479.242105 -190.746798 
L 479.242105 -192.029814 
L 479.242105 -192.029814 
L 479.242105 -193.335338 
L 471.410526 -193.335338 
L 471.410526 -191.751201 
L 463.578947 -191.751201 
L 463.578947 -190.138776 
L 455.747368 -190.138776 
L 455.747368 -188.497297 
L 455.747368 -188.497297 
L 455.747368 -189.818182 
L 455.747368 -189.818182 
L 455.747368 -191.163303 
L 455.747368 -191.163303 
L 455.747368 -192.533333 
L 447.915789 -192.533333 
L 447.915789 -190.85287 
L 440.084211 -190.85287 
L 440.084211 -189.140701 
L 440.084211 -189.140701 
L 440.084211 -190.530612 
L 440.084211 -190.530612 
L 440.084211 -191.947253 
L 440.084211 -191.947253 
L 440.084211 -193.391401 
L 440.084211 -193.391401 
L 440.084211 -194.863866 
L 440.084211 -194.863866 
L 440.084211 -196.365488 
L 440.084211 -196.365488 
L 440.084211 -197.897143 
L 432.252632 -197.897143 
L 432.252632 -196.135065 
L 424.421053 -196.135065 
L 424.421053 -194.337026 
L 416.589474 -194.337026 
L 416.589474 -192.501915 
L 408.757895 -192.501915 
L 408.757895 -190.628571 
L 408.757895 -190.628571 
L 408.757895 -192.180451 
L 400.926316 -192.180451 
L 400.926316 -190.26383 
L 400.926316 -190.26383 
L 400.926316 -191.845161 
L 393.094737 -191.845161 
L 393.094737 -189.88323 
L 385.263158 -189.88323 
L 385.263158 -187.878179 
L 377.431579 -187.878179 
L 377.431579 -185.828571 
L 369.6 -185.828571 
L 369.6 -183.732905 
L 361.768421 -183.732905 
L 361.768421 -181.58961 
L 361.768421 -181.58961 
L 361.768421 -183.180296 
L 353.936842 -183.180296 
L 353.936842 -180.980731 
L 353.936842 -180.980731 
L 353.936842 -182.601681 
L 346.105263 -182.601681 
L 346.105263 -180.342857 
L 346.105263 -180.342857 
L 346.105263 -181.995181 
L 346.105263 -181.995181 
L 346.105263 -183.687805 
L 338.273684 -183.687805 
L 338.273684 -181.35873 
L 338.273684 -181.35873 
L 338.273684 -183.085714 
L 330.442105 -183.085714 
L 330.442105 -180.690054 
L 322.610526 -180.690054 
L 322.610526 -178.232967 
L 314.778947 -178.232967 
L 314.778947 -175.712059 
L 314.778947 -175.712059 
L 314.778947 -177.455639 
L 306.947368 -177.455639 
L 306.947368 -176.636293 
L 299.115789 -176.636293 
L 299.115789 -173.955382 
L 291.284211 -173.955382 
L 291.284211 -171.2 
L 283.452632 -171.2 
L 283.452632 -168.367002 
L 283.452632 -168.367002 
L 283.452632 -170.155102 
L 283.452632 -170.155102 
L 283.452632 -171.995031 
L 283.452632 -171.995031 
L 283.452632 -173.889076 
L 275.621053 -173.889076 
L 275.621053 -170.927079 
L 275.621053 -170.927079 
L 275.621053 -172.862338 
L 267.789474 -172.862338 
L 267.789474 -169.793407 
L 267.789474 -169.793407 
L 267.789474 -171.771429 
L 267.789474 -171.771429 
L 267.789474 -173.812245 
L 267.789474 -173.812245 
L 267.789474 -175.918894 
L 267.789474 -175.918894 
L 267.789474 -178.094614 
L 267.789474 -178.094614 
L 267.789474 -180.342857 
L 267.789474 -180.342857 
L 267.789474 -182.667312 
L 267.789474 -182.667312 
L 267.789474 -185.071921 
L 259.957895 -185.071921 
L 259.957895 -181.786466 
L 259.957895 -181.786466 
L 259.957895 -184.261224 
L 252.126316 -184.261224 
L 252.126316 -180.841558 
L 252.126316 -180.841558 
L 252.126316 -183.390476 
L 244.294737 -183.390476 
L 244.294737 -179.825337 
L 236.463158 -179.825337 
L 236.463158 -176.123077 
L 228.631579 -176.123077 
L 228.631579 -172.27563 
L 220.8 -172.27563 
L 220.8 -168.274286 
L 212.968421 -168.274286 
L 212.968421 -164.109621 
L 205.136842 -164.109621 
L 205.136842 -159.771429 
L 205.136842 -159.771429 
L 205.136842 -162.251672 
L 197.305263 -162.251672 
L 197.305263 -157.684472 
L 197.305263 -157.684472 
L 197.305263 -160.228571 
L 197.305263 -160.228571 
L 197.305263 -162.888312 
L 197.305263 -162.888312 
L 197.305263 -165.671761 
L 189.473684 -165.671761 
L 189.473684 -160.75102 
L 189.473684 -160.75102 
L 189.473684 -163.618118 
L 189.473684 -163.618118 
L 189.473684 -166.628571 
L 181.642105 -166.628571 
L 181.642105 -161.353846 
L 173.810526 -161.353846 
L 173.810526 -155.801504 
L 165.978947 -155.801504 
L 165.978947 -149.949035 
L 165.978947 -149.949035 
L 165.978947 -152.914286 
L 158.147368 -152.914286 
L 158.147368 -146.644898 
L 150.315789 -146.644898 
L 150.315789 -140.006723 
L 150.315789 -140.006723 
L 150.315789 -142.94026 
L 150.315789 -142.94026 
L 150.315789 -146.057143 
L 150.315789 -146.057143 
L 150.315789 -149.375115 
L 150.315789 -149.375115 
L 150.315789 -152.914286 
L 150.315789 -152.914286 
L 150.315789 -156.697537 
L 142.484211 -156.697537 
L 142.484211 -148.995918 
L 142.484211 -148.995918 
L 142.484211 -152.914286 
L 142.484211 -152.914286 
L 142.484211 -157.134066 
L 142.484211 -157.134066 
L 142.484211 -161.691429 
L 142.484211 -161.691429 
L 142.484211 -166.628571 
L 142.484211 -166.628571 
L 142.484211 -171.995031 
L 142.484211 -171.995031 
L 142.484211 -177.849351 
L 134.652632 -177.849351 
L 134.652632 -168.587755 
L 126.821053 -168.587755 
L 126.821053 -158.4 
L 118.989474 -158.4 
L 118.989474 -147.13985 
L 118.989474 -147.13985 
L 118.989474 -152.914286 
L 118.989474 -152.914286 
L 118.989474 -159.368067 
L 111.157895 -159.368067 
L 111.157895 -146.057143 
L 111.157895 -146.057143 
L 111.157895 -152.914286 
L 111.157895 -152.914286 
L 111.157895 -160.75102 
L 111.157895 -160.75102 
L 111.157895 -169.793407 
L 103.326316 -169.793407 
L 103.326316 -152.914286 
L 103.326316 -152.914286 
L 103.326316 -162.888312 
L 95.494737 -162.888312 
L 95.494737 -141.942857 
L 87.663158 -141.942857 
L 87.663158 -116.342857 
L 87.663158 -116.342857 
L 87.663158 -125.485714 
L 87.663158 -125.485714 
L 87.663158 -137.240816 
L 79.831579 -137.240816 
L 79.831579 -98.057143 
L 72 -98.057143 
L 72 -43.2 
L 72 -43.2 
L 72 -43.2 
L 72 -43.2 
L 72 -43.2 
L 72 -43.2 
L 72 -43.2 
L 72 -43.2 
L 72 -43.2 
L 72 -43.2 
L 72 -372.342857 
L 72 -43.2 
L 72 -43.2 
L 72 -43.2 
L 72 -43.2 
L 72 -43.2 
L 72 -43.2 
L 72 -43.2 
L 72 -43.2 
L 72 -43.2 
L 72 -43.2 
L 72 -43.2 
L 72 -43.2 
L 72 -43.2 
L 79.831579 -43.2 
L 79.831579 -43.2 
L 87.663158 -43.2 
L 87.663158 -43.2 
L 87.663158 -43.2 
L 87.663158 -43.2 
L 87.663158 -43.2 
L 87.663158 -43.2 
L 95.494737 -43.2 
L 95.494737 -43.2 
L 103.326316 -43.2 
L 103.326316 -43.2 
L 103.326316 -43.2 
L 103.326316 -43.2 
L 111.157895 -43.2 
L 111.157895 -43.2 
L 111.157895 -43.2 
L 111.157895 -43.2 
L 111.157895 -43.2 
L 111.157895 -43.2 
L 111.157895 -43.2 
L 111.157895 -43.2 
L 118.989474 -43.2 
L 118.989474 -43.2 
L 118.989474 -43.2 
L 118.989474 -43.2 
L 118.989474 -43.2 
L 118.989474 -43.2 
L 126.821053 -43.2 
L 126.821053 -43.2 
L 134.652632 -43.2 
L 134.652632 -43.2 
L 142.484211 -43.2 
L 142.484211 -43.2 
L 142.484211 -43.2 
L 142.484211 -43.2 
L 142.484211 -43.2 
L 142.484211 -43.2 
L 142.484211 -43.2 
L 142.484211 -43.2 
L 142.484211 -43.2 
L 142.484211 -43.2 
L 142.484211 -43.2 
L 142.484211 -43.2 
L 142.484211 -43.2 
L 142.484211 -43.2 
L 150.315789 -43.2 
L 150.315789 -43.2 
L 150.315789 -43.2 
L 150.315789 -43.2 
L 150.315789 -43.2 
L 150.315789 -43.2 
L 150.315789 -43.2 
L 150.315789 -43.2 
L 150.315789 -43.2 
L 150.315789 -43.2 
L 150.315789 -43.2 
L 150.315789 -43.2 
L 158.147368 -43.2 
L 158.147368 -43.2 
L 165.978947 -43.2 
L 165.978947 -43.2 
L 165.978947 -43.2 
L 165.978947 -43.2 
L 173.810526 -43.2 
L 173.810526 -43.2 
L 181.642105 -43.2 
L 181.642105 -43.2 
L 189.473684 -43.2 
L 189.473684 -43.2 
L 189.473684 -43.2 
L 189.473684 -43.2 
L 189.473684 -43.2 
L 189.473684 -43.2 
L 197.305263 -43.2 
L 197.305263 -43.2 
L 197.305263 -43.2 
L 197.305263 -43.2 
L 197.305263 -43.2 
L 197.305263 -43.2 
L 197.305263 -43.2 
L 197.305263 -43.2 
L 205.136842 -43.2 
L 205.136842 -43.2 
L 205.136842 -43.2 
L 205.136842 -43.2 
L 212.968421 -43.2 
L 212.968421 -43.2 
L 220.8 -43.2 
L 220.8 -43.2 
L 228.631579 -43.2 
L 228.631579 -43.2 
L 236.463158 -43.2 
L 236.463158 -43.2 
L 244.294737 -43.2 
L 244.294737 -43.2 
L 252.126316 -43.2 
L 252.126316 -43.2 
L 252.126316 -43.2 
L 252.126316 -43.2 
L 259.957895 -43.2 
L 259.957895 -43.2 
L 259.957895 -43.2 
L 259.957895 -43.2 
L 267.789474 -43.2 
L 267.789474 -43.2 
L 267.789474 -43.2 
L 267.789474 -43.2 
L 267.789474 -43.2 
L 267.789474 -43.2 
L 267.789474 -43.2 
L 267.789474 -43.2 
L 267.789474 -43.2 
L 267.789474 -43.2 
L 267.789474 -43.2 
L 267.789474 -43.2 
L 267.789474 -43.2 
L 267.789474 -43.2 
L 267.789474 -43.2 
L 267.789474 -43.2 
L 275.621053 -43.2 
L 275.621053 -43.2 
L 275.621053 -43.2 
L 275.621053 -43.2 
L 283.452632 -43.2 
L 283.452632 -43.2 
L 283.452632 -43.2 
L 283.452632 -43.2 
L 283.452632 -43.2 
L 283.452632 -43.2 
L 283.452632 -43.2 
L 283.452632 -43.2 
L 291.284211 -43.2 
L 291.284211 -43.2 
L 299.115789 -43.2 
L 299.115789 -43.2 
L 306.947368 -43.2 
L 306.947368 -43.2 
L 314.778947 -43.2 
L 314.778947 -43.2 
L 314.778947 -43.2 
L 314.778947 -43.2 
L 322.610526 -43.2 
L 322.610526 -43.2 
L 330.442105 -43.2 
L 330.442105 -43.2 
L 338.273684 -43.2 
L 338.273684 -43.2 
L 338.273684 -43.2 
L 338.273684 -43.2 
L 346.105263 -43.2 
L 346.105263 -43.2 
L 346.105263 -43.2 
L 346.105263 -43.2 
L 346.105263 -43.2 
L 346.105263 -43.2 
L 353.936842 -43.2 
L 353.936842 -43.2 
L 353.936842 -43.2 
L 353.936842 -43.2 
L 361.768421 -43.2 
L 361.768421 -43.2 
L 361.768421 -43.2 
L 361.768421 -43.2 
L 369.6 -43.2 
L 369.6 -43.2 
L 377.431579 -43.2 
L 377.431579 -43.2 
L 385.263158 -43.2 
L 385.263158 -43.2 
L 393.094737 -43.2 
L 393.094737 -43.2 
L 400.926316 -43.2 
L 400.926316 -43.2 
L 400.926316 -43.2 
L 400.926316 -43.2 
L 408.757895 -43.2 
L 408.757895 -43.2 
L 408.757895 -43.2 
L 408.757895 -43.2 
L 416.589474 -43.2 
L 416.589474 -43.2 
L 424.421053 -43.2 
L 424.421053 -43.2 
L 432.252632 -43.2 
L 432.252632 -43.2 
L 440.084211 -43.2 
L 440.084211 -43.2 
L 440.084211 -43.2 
L 440.084211 -43.2 
L 440.084211 -43.2 
L 440.084211 -43.2 
L 440.084211 -43.2 
L 440.084211 -43.2 
L 440.084211 -43.2 
L 440.084211 -43.2 
L 440.084211 -43.2 
L 440.084211 -43.2 
L 440.084211 -43.2 
L 440.084211 -43.2 
L 447.915789 -43.2 
L 447.915789 -43.2 
L 455.747368 -43.2 
L 455.747368 -43.2 
L 455.747368 -43.2 
L 455.747368 -43.2 
L 455.747368 -43.2 
L 455.747368 -43.2 
L 455.747368 -43.2 
L 455.747368 -43.2 
L 463.578947 -43.2 
L 463.578947 -43.2 
L 471.410526 -43.2 
L 471.410526 -43.2 
L 479.242105 -43.2 
L 479.242105 -43.2 
L 479.242105 -43.2 
L 479.242105 -43.2 
L 479.242105 -43.2 
L 479.242105 -43.2 
L 487.073684 -43.2 
L 487.073684 -43.2 
L 494.905263 -43.2 
L 494.905263 -43.2 
L 494.905263 -43.2 
L 494.905263 -43.2 
L 502.736842 -43.2 
L 502.736842 -43.2 
L 502.736842 -43.2 
L 502.736842 -43.2 
L 502.736842 -43.2 
L 502.736842 -43.2 
L 502.736842 -43.2 
L 502.736842 -43.2 
L 502.736842 -43.2 
L 502.736842 -43.2 
L 510.568421 -43.2 
L 510.568421 -43.2 
L 510.568421 -43.2 
L 510.568421 -43.2 
L 518.4 -43.2 
z
" id="m48d60edcdb" style="stroke:#0000ff;stroke-opacity:0.2;"/>
    </defs>
    <g clip-path="url(#p9328bee518)">
     <use style="fill:#0000ff;fill-opacity:0.2;stroke:#0000ff;stroke-opacity:0.2;" x="0.0" xlink:href="#m48d60edcdb" y="432.0"/>
    </g>
   </g>
   <g id="line2d_1">
    <path clip-path="url(#p9328bee518)" d="M 518.4 241.074466 
L 510.568421 241.074466 
L 510.568421 242.514286 
L 510.568421 241.344 
L 502.736842 241.344 
L 502.736842 242.809217 
L 502.736842 241.6223 
L 502.736842 241.6223 
L 502.736842 237.942857 
L 494.905263 237.942857 
L 494.905263 239.441056 
L 494.905263 238.175303 
L 487.073684 238.175303 
L 487.073684 239.701099 
L 479.242105 239.701099 
L 479.242105 241.253202 
L 479.242105 239.970186 
L 479.242105 239.970186 
L 479.242105 238.664662 
L 471.410526 238.664662 
L 471.410526 240.248799 
L 463.578947 240.248799 
L 463.578947 241.861224 
L 455.747368 241.861224 
L 455.747368 243.502703 
L 455.747368 242.181818 
L 455.747368 242.181818 
L 455.747368 239.466667 
L 447.915789 239.466667 
L 447.915789 241.14713 
L 440.084211 241.14713 
L 440.084211 242.859299 
L 440.084211 241.469388 
L 440.084211 241.469388 
L 440.084211 234.102857 
L 432.252632 234.102857 
L 432.252632 235.864935 
L 424.421053 235.864935 
L 424.421053 237.662974 
L 416.589474 237.662974 
L 416.589474 239.498085 
L 408.757895 239.498085 
L 408.757895 241.371429 
L 408.757895 239.819549 
L 400.926316 239.819549 
L 400.926316 241.73617 
L 400.926316 240.154839 
L 393.094737 240.154839 
L 393.094737 242.11677 
L 385.263158 242.11677 
L 385.263158 244.121821 
L 377.431579 244.121821 
L 377.431579 246.171429 
L 369.6 246.171429 
L 369.6 248.267095 
L 361.768421 248.267095 
L 361.768421 250.41039 
L 361.768421 248.819704 
L 353.936842 248.819704 
L 353.936842 251.019269 
L 353.936842 249.398319 
L 346.105263 249.398319 
L 346.105263 251.657143 
L 346.105263 250.004819 
L 346.105263 250.004819 
L 346.105263 248.312195 
L 338.273684 248.312195 
L 338.273684 250.64127 
L 338.273684 248.914286 
L 330.442105 248.914286 
L 330.442105 251.309946 
L 322.610526 251.309946 
L 322.610526 253.767033 
L 314.778947 253.767033 
L 314.778947 256.287941 
L 314.778947 254.544361 
L 306.947368 254.544361 
L 306.947368 255.363707 
L 299.115789 255.363707 
L 299.115789 258.044618 
L 291.284211 258.044618 
L 291.284211 260.8 
L 283.452632 260.8 
L 283.452632 263.632998 
L 283.452632 261.844898 
L 283.452632 261.844898 
L 283.452632 258.110924 
L 275.621053 258.110924 
L 275.621053 261.072921 
L 275.621053 259.137662 
L 267.789474 259.137662 
L 267.789474 262.206593 
L 267.789474 260.228571 
L 267.789474 260.228571 
L 267.789474 246.928079 
L 259.957895 246.928079 
L 259.957895 250.213534 
L 259.957895 247.738776 
L 252.126316 247.738776 
L 252.126316 251.158442 
L 252.126316 248.609524 
L 244.294737 248.609524 
L 244.294737 252.174663 
L 236.463158 252.174663 
L 236.463158 255.876923 
L 228.631579 255.876923 
L 228.631579 259.72437 
L 220.8 259.72437 
L 220.8 263.725714 
L 212.968421 263.725714 
L 212.968421 267.890379 
L 205.136842 267.890379 
L 205.136842 272.228571 
L 205.136842 269.748328 
L 197.305263 269.748328 
L 197.305263 274.315528 
L 197.305263 271.771429 
L 197.305263 271.771429 
L 197.305263 266.328239 
L 189.473684 266.328239 
L 189.473684 271.24898 
L 189.473684 268.381882 
L 189.473684 268.381882 
L 189.473684 265.371429 
L 181.642105 265.371429 
L 181.642105 270.646154 
L 173.810526 270.646154 
L 173.810526 276.198496 
L 165.978947 276.198496 
L 165.978947 282.050965 
L 165.978947 279.085714 
L 158.147368 279.085714 
L 158.147368 285.355102 
L 150.315789 285.355102 
L 150.315789 291.993277 
L 150.315789 285.942857 
L 150.315789 285.942857 
L 150.315789 275.302463 
L 142.484211 275.302463 
L 142.484211 283.004082 
L 142.484211 279.085714 
L 142.484211 279.085714 
L 142.484211 254.150649 
L 134.652632 254.150649 
L 134.652632 263.412245 
L 126.821053 263.412245 
L 126.821053 273.6 
L 118.989474 273.6 
L 118.989474 284.86015 
L 118.989474 279.085714 
L 118.989474 279.085714 
L 118.989474 272.631933 
L 111.157895 272.631933 
L 111.157895 285.942857 
L 111.157895 279.085714 
L 111.157895 279.085714 
L 111.157895 262.206593 
L 103.326316 262.206593 
L 103.326316 279.085714 
L 103.326316 269.111688 
L 95.494737 269.111688 
L 95.494737 290.057143 
L 87.663158 290.057143 
L 87.663158 315.657143 
L 87.663158 294.759184 
L 79.831579 294.759184 
L 79.831579 333.942857 
L 72 333.942857 
L 72 388.8 
L 72 388.8 
L 72 388.8 
L 72 59.657143 
L 72 59.657143 
" style="fill:none;opacity:0.2;stroke:#0000ff;stroke-linecap:square;"/>
   </g>
   <g id="patch_3">
    <path d="M 72 43.2 
L 518.4 43.2 
" style="fill:none;stroke:#000000;stroke-linecap:square;stroke-linejoin:miter;"/>
   </g>
   <g id="patch_4">
    <path d="M 518.4 388.8 
L 518.4 43.2 
" style="fill:none;stroke:#000000;stroke-linecap:square;stroke-linejoin:miter;"/>
   </g>
   <g id="patch_5">
    <path d="M 72 388.8 
L 518.4 388.8 
" style="fill:none;stroke:#000000;stroke-linecap:square;stroke-linejoin:miter;"/>
   </g>
   <g id="patch_6">
    <path d="M 72 388.8 
L 72 43.2 
" style="fill:none;stroke:#000000;stroke-linecap:square;stroke-linejoin:miter;"/>
   </g>
   <g id="matplotlib.axis_1">
    <g id="xtick_1">
     <g id="line2d_2">
      <defs>
       <path d="M 0 0 
L 0 -4 
" id="m329bdd04e2" style="stroke:#000000;stroke-width:0.5;"/>
      </defs>
      <g>
       <use style="stroke:#000000;stroke-width:0.5;" x="72.0" xlink:href="#m329bdd04e2" y="388.8"/>
      </g>
     </g>
     <g id="line2d_3">
      <defs>
       <path d="M 0 0 
L 0 4 
" id="m81d0e587cd" style="stroke:#000000;stroke-width:0.5;"/>
      </defs>
      <g>
       <use style="stroke:#000000;stroke-width:0.5;" x="72.0" xlink:href="#m81d0e587cd" y="43.2"/>
      </g>
     </g>
     <g id="text_1">
      <!-- 0.0 -->
      <defs>
       <path d="M 31.78125 66.40625 
Q 24.171875 66.40625 20.328125 58.90625 
Q 16.5 51.421875 16.5 36.375 
Q 16.5 21.390625 20.328125 13.890625 
Q 24.171875 6.390625 31.78125 6.390625 
Q 39.453125 6.390625 43.28125 13.890625 
Q 47.125 21.390625 47.125 36.375 
Q 47.125 51.421875 43.28125 58.90625 
Q 39.453125 66.40625 31.78125 66.40625 
M 31.78125 74.21875 
Q 44.046875 74.21875 50.515625 64.515625 
Q 56.984375 54.828125 56.984375 36.375 
Q 56.984375 17.96875 50.515625 8.265625 
Q 44.046875 -1.421875 31.78125 -1.421875 
Q 19.53125 -1.421875 13.0625 8.265625 
Q 6.59375 17.96875 6.59375 36.375 
Q 6.59375 54.828125 13.0625 64.515625 
Q 19.53125 74.21875 31.78125 74.21875 
" id="BitstreamVeraSans-Roman-30"/>
       <path d="M 10.6875 12.40625 
L 21 12.40625 
L 21 0 
L 10.6875 0 
z
" id="BitstreamVeraSans-Roman-2e"/>
      </defs>
      <g transform="translate(62.458125 401.918125)scale(0.12 -0.12)">
       <use xlink:href="#BitstreamVeraSans-Roman-30"/>
       <use x="63.623046875" xlink:href="#BitstreamVeraSans-Roman-2e"/>
       <use x="95.41015625" xlink:href="#BitstreamVeraSans-Roman-30"/>
      </g>
     </g>
    </g>
    <g id="xtick_2">
     <g id="line2d_4">
      <g>
       <use style="stroke:#000000;stroke-width:0.5;" x="161.28" xlink:href="#m329bdd04e2" y="388.8"/>
      </g>
     </g>
     <g id="line2d_5">
      <g>
       <use style="stroke:#000000;stroke-width:0.5;" x="161.28" xlink:href="#m81d0e587cd" y="43.2"/>
      </g>
     </g>
     <g id="text_2">
      <!-- 0.2 -->
      <defs>
       <path d="M 19.1875 8.296875 
L 53.609375 8.296875 
L 53.609375 0 
L 7.328125 0 
L 7.328125 8.296875 
Q 12.9375 14.109375 22.625 23.890625 
Q 32.328125 33.6875 34.8125 36.53125 
Q 39.546875 41.84375 41.421875 45.53125 
Q 43.3125 49.21875 43.3125 52.78125 
Q 43.3125 58.59375 39.234375 62.25 
Q 35.15625 65.921875 28.609375 65.921875 
Q 23.96875 65.921875 18.8125 64.3125 
Q 13.671875 62.703125 7.8125 59.421875 
L 7.8125 69.390625 
Q 13.765625 71.78125 18.9375 73 
Q 24.125 74.21875 28.421875 74.21875 
Q 39.75 74.21875 46.484375 68.546875 
Q 53.21875 62.890625 53.21875 53.421875 
Q 53.21875 48.921875 51.53125 44.890625 
Q 49.859375 40.875 45.40625 35.40625 
Q 44.1875 33.984375 37.640625 27.21875 
Q 31.109375 20.453125 19.1875 8.296875 
" id="BitstreamVeraSans-Roman-32"/>
      </defs>
      <g transform="translate(151.738125 401.918125)scale(0.12 -0.12)">
       <use xlink:href="#BitstreamVeraSans-Roman-30"/>
       <use x="63.623046875" xlink:href="#BitstreamVeraSans-Roman-2e"/>
       <use x="95.41015625" xlink:href="#BitstreamVeraSans-Roman-32"/>
      </g>
     </g>
    </g>
    <g id="xtick_3">
     <g id="line2d_6">
      <g>
       <use style="stroke:#000000;stroke-width:0.5;" x="250.56" xlink:href="#m329bdd04e2" y="388.8"/>
      </g>
     </g>
     <g id="line2d_7">
      <g>
       <use style="stroke:#000000;stroke-width:0.5;" x="250.56" xlink:href="#m81d0e587cd" y="43.2"/>
      </g>
     </g>
     <g id="text_3">
      <!-- 0.4 -->
      <defs>
       <path d="M 37.796875 64.3125 
L 12.890625 25.390625 
L 37.796875 25.390625 
z
M 35.203125 72.90625 
L 47.609375 72.90625 
L 47.609375 25.390625 
L 58.015625 25.390625 
L 58.015625 17.1875 
L 47.609375 17.1875 
L 47.609375 0 
L 37.796875 0 
L 37.796875 17.1875 
L 4.890625 17.1875 
L 4.890625 26.703125 
z
" id="BitstreamVeraSans-Roman-34"/>
      </defs>
      <g transform="translate(241.018125 401.918125)scale(0.12 -0.12)">
       <use xlink:href="#BitstreamVeraSans-Roman-30"/>
       <use x="63.623046875" xlink:href="#BitstreamVeraSans-Roman-2e"/>
       <use x="95.41015625" xlink:href="#BitstreamVeraSans-Roman-34"/>
      </g>
     </g>
    </g>
    <g id="xtick_4">
     <g id="line2d_8">
      <g>
       <use style="stroke:#000000;stroke-width:0.5;" x="339.84" xlink:href="#m329bdd04e2" y="388.8"/>
      </g>
     </g>
     <g id="line2d_9">
      <g>
       <use style="stroke:#000000;stroke-width:0.5;" x="339.84" xlink:href="#m81d0e587cd" y="43.2"/>
      </g>
     </g>
     <g id="text_4">
      <!-- 0.6 -->
      <defs>
       <path d="M 33.015625 40.375 
Q 26.375 40.375 22.484375 35.828125 
Q 18.609375 31.296875 18.609375 23.390625 
Q 18.609375 15.53125 22.484375 10.953125 
Q 26.375 6.390625 33.015625 6.390625 
Q 39.65625 6.390625 43.53125 10.953125 
Q 47.40625 15.53125 47.40625 23.390625 
Q 47.40625 31.296875 43.53125 35.828125 
Q 39.65625 40.375 33.015625 40.375 
M 52.59375 71.296875 
L 52.59375 62.3125 
Q 48.875 64.0625 45.09375 64.984375 
Q 41.3125 65.921875 37.59375 65.921875 
Q 27.828125 65.921875 22.671875 59.328125 
Q 17.53125 52.734375 16.796875 39.40625 
Q 19.671875 43.65625 24.015625 45.921875 
Q 28.375 48.1875 33.59375 48.1875 
Q 44.578125 48.1875 50.953125 41.515625 
Q 57.328125 34.859375 57.328125 23.390625 
Q 57.328125 12.15625 50.6875 5.359375 
Q 44.046875 -1.421875 33.015625 -1.421875 
Q 20.359375 -1.421875 13.671875 8.265625 
Q 6.984375 17.96875 6.984375 36.375 
Q 6.984375 53.65625 15.1875 63.9375 
Q 23.390625 74.21875 37.203125 74.21875 
Q 40.921875 74.21875 44.703125 73.484375 
Q 48.484375 72.75 52.59375 71.296875 
" id="BitstreamVeraSans-Roman-36"/>
      </defs>
      <g transform="translate(330.298125 401.918125)scale(0.12 -0.12)">
       <use xlink:href="#BitstreamVeraSans-Roman-30"/>
       <use x="63.623046875" xlink:href="#BitstreamVeraSans-Roman-2e"/>
       <use x="95.41015625" xlink:href="#BitstreamVeraSans-Roman-36"/>
      </g>
     </g>
    </g>
    <g id="xtick_5">
     <g id="line2d_10">
      <g>
       <use style="stroke:#000000;stroke-width:0.5;" x="429.12" xlink:href="#m329bdd04e2" y="388.8"/>
      </g>
     </g>
     <g id="line2d_11">
      <g>
       <use style="stroke:#000000;stroke-width:0.5;" x="429.12" xlink:href="#m81d0e587cd" y="43.2"/>
      </g>
     </g>
     <g id="text_5">
      <!-- 0.8 -->
      <defs>
       <path d="M 31.78125 34.625 
Q 24.75 34.625 20.71875 30.859375 
Q 16.703125 27.09375 16.703125 20.515625 
Q 16.703125 13.921875 20.71875 10.15625 
Q 24.75 6.390625 31.78125 6.390625 
Q 38.8125 6.390625 42.859375 10.171875 
Q 46.921875 13.96875 46.921875 20.515625 
Q 46.921875 27.09375 42.890625 30.859375 
Q 38.875 34.625 31.78125 34.625 
M 21.921875 38.8125 
Q 15.578125 40.375 12.03125 44.71875 
Q 8.5 49.078125 8.5 55.328125 
Q 8.5 64.0625 14.71875 69.140625 
Q 20.953125 74.21875 31.78125 74.21875 
Q 42.671875 74.21875 48.875 69.140625 
Q 55.078125 64.0625 55.078125 55.328125 
Q 55.078125 49.078125 51.53125 44.71875 
Q 48 40.375 41.703125 38.8125 
Q 48.828125 37.15625 52.796875 32.3125 
Q 56.78125 27.484375 56.78125 20.515625 
Q 56.78125 9.90625 50.3125 4.234375 
Q 43.84375 -1.421875 31.78125 -1.421875 
Q 19.734375 -1.421875 13.25 4.234375 
Q 6.78125 9.90625 6.78125 20.515625 
Q 6.78125 27.484375 10.78125 32.3125 
Q 14.796875 37.15625 21.921875 38.8125 
M 18.3125 54.390625 
Q 18.3125 48.734375 21.84375 45.5625 
Q 25.390625 42.390625 31.78125 42.390625 
Q 38.140625 42.390625 41.71875 45.5625 
Q 45.3125 48.734375 45.3125 54.390625 
Q 45.3125 60.0625 41.71875 63.234375 
Q 38.140625 66.40625 31.78125 66.40625 
Q 25.390625 66.40625 21.84375 63.234375 
Q 18.3125 60.0625 18.3125 54.390625 
" id="BitstreamVeraSans-Roman-38"/>
      </defs>
      <g transform="translate(419.578125 401.918125)scale(0.12 -0.12)">
       <use xlink:href="#BitstreamVeraSans-Roman-30"/>
       <use x="63.623046875" xlink:href="#BitstreamVeraSans-Roman-2e"/>
       <use x="95.41015625" xlink:href="#BitstreamVeraSans-Roman-38"/>
      </g>
     </g>
    </g>
    <g id="xtick_6">
     <g id="line2d_12">
      <g>
       <use style="stroke:#000000;stroke-width:0.5;" x="518.4" xlink:href="#m329bdd04e2" y="388.8"/>
      </g>
     </g>
     <g id="line2d_13">
      <g>
       <use style="stroke:#000000;stroke-width:0.5;" x="518.4" xlink:href="#m81d0e587cd" y="43.2"/>
      </g>
     </g>
     <g id="text_6">
      <!-- 1.0 -->
      <defs>
       <path d="M 12.40625 8.296875 
L 28.515625 8.296875 
L 28.515625 63.921875 
L 10.984375 60.40625 
L 10.984375 69.390625 
L 28.421875 72.90625 
L 38.28125 72.90625 
L 38.28125 8.296875 
L 54.390625 8.296875 
L 54.390625 0 
L 12.40625 0 
z
" id="BitstreamVeraSans-Roman-31"/>
      </defs>
      <g transform="translate(508.858125 401.918125)scale(0.12 -0.12)">
       <use xlink:href="#BitstreamVeraSans-Roman-31"/>
       <use x="63.623046875" xlink:href="#BitstreamVeraSans-Roman-2e"/>
       <use x="95.41015625" xlink:href="#BitstreamVeraSans-Roman-30"/>
      </g>
     </g>
    </g>
    <g id="text_7">
     <!-- Recall -->
     <defs>
      <path d="M 56.203125 29.59375 
L 56.203125 25.203125 
L 14.890625 25.203125 
Q 15.484375 15.921875 20.484375 11.0625 
Q 25.484375 6.203125 34.421875 6.203125 
Q 39.59375 6.203125 44.453125 7.46875 
Q 49.3125 8.734375 54.109375 11.28125 
L 54.109375 2.78125 
Q 49.265625 0.734375 44.1875 -0.34375 
Q 39.109375 -1.421875 33.890625 -1.421875 
Q 20.796875 -1.421875 13.15625 6.1875 
Q 5.515625 13.8125 5.515625 26.8125 
Q 5.515625 40.234375 12.765625 48.109375 
Q 20.015625 56 32.328125 56 
Q 43.359375 56 49.78125 48.890625 
Q 56.203125 41.796875 56.203125 29.59375 
M 47.21875 32.234375 
Q 47.125 39.59375 43.09375 43.984375 
Q 39.0625 48.390625 32.421875 48.390625 
Q 24.90625 48.390625 20.390625 44.140625 
Q 15.875 39.890625 15.1875 32.171875 
z
" id="BitstreamVeraSans-Roman-65"/>
      <path d="M 44.390625 34.1875 
Q 47.5625 33.109375 50.5625 29.59375 
Q 53.5625 26.078125 56.59375 19.921875 
L 66.609375 0 
L 56 0 
L 46.6875 18.703125 
Q 43.0625 26.03125 39.671875 28.421875 
Q 36.28125 30.8125 30.421875 30.8125 
L 19.671875 30.8125 
L 19.671875 0 
L 9.8125 0 
L 9.8125 72.90625 
L 32.078125 72.90625 
Q 44.578125 72.90625 50.734375 67.671875 
Q 56.890625 62.453125 56.890625 51.90625 
Q 56.890625 45.015625 53.6875 40.46875 
Q 50.484375 35.9375 44.390625 34.1875 
M 19.671875 64.796875 
L 19.671875 38.921875 
L 32.078125 38.921875 
Q 39.203125 38.921875 42.84375 42.21875 
Q 46.484375 45.515625 46.484375 51.90625 
Q 46.484375 58.296875 42.84375 61.546875 
Q 39.203125 64.796875 32.078125 64.796875 
z
" id="BitstreamVeraSans-Roman-52"/>
      <path d="M 34.28125 27.484375 
Q 23.390625 27.484375 19.1875 25 
Q 14.984375 22.515625 14.984375 16.5 
Q 14.984375 11.71875 18.140625 8.90625 
Q 21.296875 6.109375 26.703125 6.109375 
Q 34.1875 6.109375 38.703125 11.40625 
Q 43.21875 16.703125 43.21875 25.484375 
L 43.21875 27.484375 
z
M 52.203125 31.203125 
L 52.203125 0 
L 43.21875 0 
L 43.21875 8.296875 
Q 40.140625 3.328125 35.546875 0.953125 
Q 30.953125 -1.421875 24.3125 -1.421875 
Q 15.921875 -1.421875 10.953125 3.296875 
Q 6 8.015625 6 15.921875 
Q 6 25.140625 12.171875 29.828125 
Q 18.359375 34.515625 30.609375 34.515625 
L 43.21875 34.515625 
L 43.21875 35.40625 
Q 43.21875 41.609375 39.140625 45 
Q 35.0625 48.390625 27.6875 48.390625 
Q 23 48.390625 18.546875 47.265625 
Q 14.109375 46.140625 10.015625 43.890625 
L 10.015625 52.203125 
Q 14.9375 54.109375 19.578125 55.046875 
Q 24.21875 56 28.609375 56 
Q 40.484375 56 46.34375 49.84375 
Q 52.203125 43.703125 52.203125 31.203125 
" id="BitstreamVeraSans-Roman-61"/>
      <path d="M 9.421875 75.984375 
L 18.40625 75.984375 
L 18.40625 0 
L 9.421875 0 
z
" id="BitstreamVeraSans-Roman-6c"/>
      <path d="M 48.78125 52.59375 
L 48.78125 44.1875 
Q 44.96875 46.296875 41.140625 47.34375 
Q 37.3125 48.390625 33.40625 48.390625 
Q 24.65625 48.390625 19.8125 42.84375 
Q 14.984375 37.3125 14.984375 27.296875 
Q 14.984375 17.28125 19.8125 11.734375 
Q 24.65625 6.203125 33.40625 6.203125 
Q 37.3125 6.203125 41.140625 7.25 
Q 44.96875 8.296875 48.78125 10.40625 
L 48.78125 2.09375 
Q 45.015625 0.34375 40.984375 -0.53125 
Q 36.96875 -1.421875 32.421875 -1.421875 
Q 20.0625 -1.421875 12.78125 6.34375 
Q 5.515625 14.109375 5.515625 27.296875 
Q 5.515625 40.671875 12.859375 48.328125 
Q 20.21875 56 33.015625 56 
Q 37.15625 56 41.109375 55.140625 
Q 45.0625 54.296875 48.78125 52.59375 
" id="BitstreamVeraSans-Roman-63"/>
     </defs>
     <g transform="translate(277.033125 418.531875)scale(0.12 -0.12)">
      <use xlink:href="#BitstreamVeraSans-Roman-52"/>
      <use x="69.419921875" xlink:href="#BitstreamVeraSans-Roman-65"/>
      <use x="130.943359375" xlink:href="#BitstreamVeraSans-Roman-63"/>
      <use x="185.923828125" xlink:href="#BitstreamVeraSans-Roman-61"/>
      <use x="247.203125" xlink:href="#BitstreamVeraSans-Roman-6c"/>
      <use x="274.986328125" xlink:href="#BitstreamVeraSans-Roman-6c"/>
     </g>
    </g>
   </g>
   <g id="matplotlib.axis_2">
    <g id="ytick_1">
     <g id="line2d_14">
      <defs>
       <path d="M 0 0 
L 4 0 
" id="m57bf4a044f" style="stroke:#000000;stroke-width:0.5;"/>
      </defs>
      <g>
       <use style="stroke:#000000;stroke-width:0.5;" x="72.0" xlink:href="#m57bf4a044f" y="388.8"/>
      </g>
     </g>
     <g id="line2d_15">
      <defs>
       <path d="M 0 0 
L -4 0 
" id="mfd6e9de072" style="stroke:#000000;stroke-width:0.5;"/>
      </defs>
      <g>
       <use style="stroke:#000000;stroke-width:0.5;" x="518.4" xlink:href="#mfd6e9de072" y="388.8"/>
      </g>
     </g>
     <g id="text_8">
      <!-- 0.0 -->
      <g transform="translate(48.91625 392.11125)scale(0.12 -0.12)">
       <use xlink:href="#BitstreamVeraSans-Roman-30"/>
       <use x="63.623046875" xlink:href="#BitstreamVeraSans-Roman-2e"/>
       <use x="95.41015625" xlink:href="#BitstreamVeraSans-Roman-30"/>
      </g>
     </g>
    </g>
    <g id="ytick_2">
     <g id="line2d_16">
      <g>
       <use style="stroke:#000000;stroke-width:0.5;" x="72.0" xlink:href="#m57bf4a044f" y="322.971428571"/>
      </g>
     </g>
     <g id="line2d_17">
      <g>
       <use style="stroke:#000000;stroke-width:0.5;" x="518.4" xlink:href="#mfd6e9de072" y="322.971428571"/>
      </g>
     </g>
     <g id="text_9">
      <!-- 0.2 -->
      <g transform="translate(48.91625 326.282678571)scale(0.12 -0.12)">
       <use xlink:href="#BitstreamVeraSans-Roman-30"/>
       <use x="63.623046875" xlink:href="#BitstreamVeraSans-Roman-2e"/>
       <use x="95.41015625" xlink:href="#BitstreamVeraSans-Roman-32"/>
      </g>
     </g>
    </g>
    <g id="ytick_3">
     <g id="line2d_18">
      <g>
       <use style="stroke:#000000;stroke-width:0.5;" x="72.0" xlink:href="#m57bf4a044f" y="257.142857143"/>
      </g>
     </g>
     <g id="line2d_19">
      <g>
       <use style="stroke:#000000;stroke-width:0.5;" x="518.4" xlink:href="#mfd6e9de072" y="257.142857143"/>
      </g>
     </g>
     <g id="text_10">
      <!-- 0.4 -->
      <g transform="translate(48.91625 260.454107143)scale(0.12 -0.12)">
       <use xlink:href="#BitstreamVeraSans-Roman-30"/>
       <use x="63.623046875" xlink:href="#BitstreamVeraSans-Roman-2e"/>
       <use x="95.41015625" xlink:href="#BitstreamVeraSans-Roman-34"/>
      </g>
     </g>
    </g>
    <g id="ytick_4">
     <g id="line2d_20">
      <g>
       <use style="stroke:#000000;stroke-width:0.5;" x="72.0" xlink:href="#m57bf4a044f" y="191.314285714"/>
      </g>
     </g>
     <g id="line2d_21">
      <g>
       <use style="stroke:#000000;stroke-width:0.5;" x="518.4" xlink:href="#mfd6e9de072" y="191.314285714"/>
      </g>
     </g>
     <g id="text_11">
      <!-- 0.6 -->
      <g transform="translate(48.91625 194.625535714)scale(0.12 -0.12)">
       <use xlink:href="#BitstreamVeraSans-Roman-30"/>
       <use x="63.623046875" xlink:href="#BitstreamVeraSans-Roman-2e"/>
       <use x="95.41015625" xlink:href="#BitstreamVeraSans-Roman-36"/>
      </g>
     </g>
    </g>
    <g id="ytick_5">
     <g id="line2d_22">
      <g>
       <use style="stroke:#000000;stroke-width:0.5;" x="72.0" xlink:href="#m57bf4a044f" y="125.485714286"/>
      </g>
     </g>
     <g id="line2d_23">
      <g>
       <use style="stroke:#000000;stroke-width:0.5;" x="518.4" xlink:href="#mfd6e9de072" y="125.485714286"/>
      </g>
     </g>
     <g id="text_12">
      <!-- 0.8 -->
      <g transform="translate(48.91625 128.796964286)scale(0.12 -0.12)">
       <use xlink:href="#BitstreamVeraSans-Roman-30"/>
       <use x="63.623046875" xlink:href="#BitstreamVeraSans-Roman-2e"/>
       <use x="95.41015625" xlink:href="#BitstreamVeraSans-Roman-38"/>
      </g>
     </g>
    </g>
    <g id="ytick_6">
     <g id="line2d_24">
      <g>
       <use style="stroke:#000000;stroke-width:0.5;" x="72.0" xlink:href="#m57bf4a044f" y="59.6571428571"/>
      </g>
     </g>
     <g id="line2d_25">
      <g>
       <use style="stroke:#000000;stroke-width:0.5;" x="518.4" xlink:href="#mfd6e9de072" y="59.6571428571"/>
      </g>
     </g>
     <g id="text_13">
      <!-- 1.0 -->
      <g transform="translate(48.91625 62.9683928571)scale(0.12 -0.12)">
       <use xlink:href="#BitstreamVeraSans-Roman-31"/>
       <use x="63.623046875" xlink:href="#BitstreamVeraSans-Roman-2e"/>
       <use x="95.41015625" xlink:href="#BitstreamVeraSans-Roman-30"/>
      </g>
     </g>
    </g>
    <g id="text_14">
     <!-- Precision -->
     <defs>
      <path d="M 54.890625 33.015625 
L 54.890625 0 
L 45.90625 0 
L 45.90625 32.71875 
Q 45.90625 40.484375 42.875 44.328125 
Q 39.84375 48.1875 33.796875 48.1875 
Q 26.515625 48.1875 22.3125 43.546875 
Q 18.109375 38.921875 18.109375 30.90625 
L 18.109375 0 
L 9.078125 0 
L 9.078125 54.6875 
L 18.109375 54.6875 
L 18.109375 46.1875 
Q 21.34375 51.125 25.703125 53.5625 
Q 30.078125 56 35.796875 56 
Q 45.21875 56 50.046875 50.171875 
Q 54.890625 44.34375 54.890625 33.015625 
" id="BitstreamVeraSans-Roman-6e"/>
      <path d="M 30.609375 48.390625 
Q 23.390625 48.390625 19.1875 42.75 
Q 14.984375 37.109375 14.984375 27.296875 
Q 14.984375 17.484375 19.15625 11.84375 
Q 23.34375 6.203125 30.609375 6.203125 
Q 37.796875 6.203125 41.984375 11.859375 
Q 46.1875 17.53125 46.1875 27.296875 
Q 46.1875 37.015625 41.984375 42.703125 
Q 37.796875 48.390625 30.609375 48.390625 
M 30.609375 56 
Q 42.328125 56 49.015625 48.375 
Q 55.71875 40.765625 55.71875 27.296875 
Q 55.71875 13.875 49.015625 6.21875 
Q 42.328125 -1.421875 30.609375 -1.421875 
Q 18.84375 -1.421875 12.171875 6.21875 
Q 5.515625 13.875 5.515625 27.296875 
Q 5.515625 40.765625 12.171875 48.375 
Q 18.84375 56 30.609375 56 
" id="BitstreamVeraSans-Roman-6f"/>
      <path d="M 19.671875 64.796875 
L 19.671875 37.40625 
L 32.078125 37.40625 
Q 38.96875 37.40625 42.71875 40.96875 
Q 46.484375 44.53125 46.484375 51.125 
Q 46.484375 57.671875 42.71875 61.234375 
Q 38.96875 64.796875 32.078125 64.796875 
z
M 9.8125 72.90625 
L 32.078125 72.90625 
Q 44.34375 72.90625 50.609375 67.359375 
Q 56.890625 61.8125 56.890625 51.125 
Q 56.890625 40.328125 50.609375 34.8125 
Q 44.34375 29.296875 32.078125 29.296875 
L 19.671875 29.296875 
L 19.671875 0 
L 9.8125 0 
z
" id="BitstreamVeraSans-Roman-50"/>
      <path d="M 9.421875 54.6875 
L 18.40625 54.6875 
L 18.40625 0 
L 9.421875 0 
z
M 9.421875 75.984375 
L 18.40625 75.984375 
L 18.40625 64.59375 
L 9.421875 64.59375 
z
" id="BitstreamVeraSans-Roman-69"/>
      <path d="M 41.109375 46.296875 
Q 39.59375 47.171875 37.8125 47.578125 
Q 36.03125 48 33.890625 48 
Q 26.265625 48 22.1875 43.046875 
Q 18.109375 38.09375 18.109375 28.8125 
L 18.109375 0 
L 9.078125 0 
L 9.078125 54.6875 
L 18.109375 54.6875 
L 18.109375 46.1875 
Q 20.953125 51.171875 25.484375 53.578125 
Q 30.03125 56 36.53125 56 
Q 37.453125 56 38.578125 55.875 
Q 39.703125 55.765625 41.0625 55.515625 
z
" id="BitstreamVeraSans-Roman-72"/>
      <path d="M 44.28125 53.078125 
L 44.28125 44.578125 
Q 40.484375 46.53125 36.375 47.5 
Q 32.28125 48.484375 27.875 48.484375 
Q 21.1875 48.484375 17.84375 46.4375 
Q 14.5 44.390625 14.5 40.28125 
Q 14.5 37.15625 16.890625 35.375 
Q 19.28125 33.59375 26.515625 31.984375 
L 29.59375 31.296875 
Q 39.15625 29.25 43.1875 25.515625 
Q 47.21875 21.78125 47.21875 15.09375 
Q 47.21875 7.46875 41.1875 3.015625 
Q 35.15625 -1.421875 24.609375 -1.421875 
Q 20.21875 -1.421875 15.453125 -0.5625 
Q 10.6875 0.296875 5.421875 2 
L 5.421875 11.28125 
Q 10.40625 8.6875 15.234375 7.390625 
Q 20.0625 6.109375 24.8125 6.109375 
Q 31.15625 6.109375 34.5625 8.28125 
Q 37.984375 10.453125 37.984375 14.40625 
Q 37.984375 18.0625 35.515625 20.015625 
Q 33.0625 21.96875 24.703125 23.78125 
L 21.578125 24.515625 
Q 13.234375 26.265625 9.515625 29.90625 
Q 5.8125 33.546875 5.8125 39.890625 
Q 5.8125 47.609375 11.28125 51.796875 
Q 16.75 56 26.8125 56 
Q 31.78125 56 36.171875 55.265625 
Q 40.578125 54.546875 44.28125 53.078125 
" id="BitstreamVeraSans-Roman-73"/>
     </defs>
     <g transform="translate(41.420625 243.005625)rotate(-90.0)scale(0.12 -0.12)">
      <use xlink:href="#BitstreamVeraSans-Roman-50"/>
      <use x="60.287109375" xlink:href="#BitstreamVeraSans-Roman-72"/>
      <use x="101.369140625" xlink:href="#BitstreamVeraSans-Roman-65"/>
      <use x="162.892578125" xlink:href="#BitstreamVeraSans-Roman-63"/>
      <use x="217.873046875" xlink:href="#BitstreamVeraSans-Roman-69"/>
      <use x="245.65625" xlink:href="#BitstreamVeraSans-Roman-73"/>
      <use x="297.755859375" xlink:href="#BitstreamVeraSans-Roman-69"/>
      <use x="325.5390625" xlink:href="#BitstreamVeraSans-Roman-6f"/>
      <use x="386.720703125" xlink:href="#BitstreamVeraSans-Roman-6e"/>
     </g>
    </g>
   </g>
   <g id="text_15">
    <!-- Precision-Recall curve: AP=0.40 -->
    <defs>
     <path id="BitstreamVeraSans-Roman-20"/>
     <path d="M 10.59375 45.40625 
L 73.1875 45.40625 
L 73.1875 37.203125 
L 10.59375 37.203125 
z
M 10.59375 25.484375 
L 73.1875 25.484375 
L 73.1875 17.1875 
L 10.59375 17.1875 
z
" id="BitstreamVeraSans-Roman-3d"/>
     <path d="M 11.71875 12.40625 
L 22.015625 12.40625 
L 22.015625 0 
L 11.71875 0 
z
M 11.71875 51.703125 
L 22.015625 51.703125 
L 22.015625 39.3125 
L 11.71875 39.3125 
z
" id="BitstreamVeraSans-Roman-3a"/>
     <path d="M 4.890625 31.390625 
L 31.203125 31.390625 
L 31.203125 23.390625 
L 4.890625 23.390625 
z
" id="BitstreamVeraSans-Roman-2d"/>
     <path d="M 34.1875 63.1875 
L 20.796875 26.90625 
L 47.609375 26.90625 
z
M 28.609375 72.90625 
L 39.796875 72.90625 
L 67.578125 0 
L 57.328125 0 
L 50.6875 18.703125 
L 17.828125 18.703125 
L 11.1875 0 
L 0.78125 0 
z
" id="BitstreamVeraSans-Roman-41"/>
     <path d="M 2.984375 54.6875 
L 12.5 54.6875 
L 29.59375 8.796875 
L 46.6875 54.6875 
L 56.203125 54.6875 
L 35.6875 0 
L 23.484375 0 
z
" id="BitstreamVeraSans-Roman-76"/>
     <path d="M 8.5 21.578125 
L 8.5 54.6875 
L 17.484375 54.6875 
L 17.484375 21.921875 
Q 17.484375 14.15625 20.5 10.265625 
Q 23.53125 6.390625 29.59375 6.390625 
Q 36.859375 6.390625 41.078125 11.03125 
Q 45.3125 15.671875 45.3125 23.6875 
L 45.3125 54.6875 
L 54.296875 54.6875 
L 54.296875 0 
L 45.3125 0 
L 45.3125 8.40625 
Q 42.046875 3.421875 37.71875 1 
Q 33.40625 -1.421875 27.6875 -1.421875 
Q 18.265625 -1.421875 13.375 4.4375 
Q 8.5 10.296875 8.5 21.578125 
" id="BitstreamVeraSans-Roman-75"/>
    </defs>
    <g transform="translate(179.888625 38.2)scale(0.144 -0.144)">
     <use xlink:href="#BitstreamVeraSans-Roman-50"/>
     <use x="60.287109375" xlink:href="#BitstreamVeraSans-Roman-72"/>
     <use x="101.369140625" xlink:href="#BitstreamVeraSans-Roman-65"/>
     <use x="162.892578125" xlink:href="#BitstreamVeraSans-Roman-63"/>
     <use x="217.873046875" xlink:href="#BitstreamVeraSans-Roman-69"/>
     <use x="245.65625" xlink:href="#BitstreamVeraSans-Roman-73"/>
     <use x="297.755859375" xlink:href="#BitstreamVeraSans-Roman-69"/>
     <use x="325.5390625" xlink:href="#BitstreamVeraSans-Roman-6f"/>
     <use x="386.720703125" xlink:href="#BitstreamVeraSans-Roman-6e"/>
     <use x="450.099609375" xlink:href="#BitstreamVeraSans-Roman-2d"/>
     <use x="486.18359375" xlink:href="#BitstreamVeraSans-Roman-52"/>
     <use x="555.603515625" xlink:href="#BitstreamVeraSans-Roman-65"/>
     <use x="617.126953125" xlink:href="#BitstreamVeraSans-Roman-63"/>
     <use x="672.107421875" xlink:href="#BitstreamVeraSans-Roman-61"/>
     <use x="733.38671875" xlink:href="#BitstreamVeraSans-Roman-6c"/>
     <use x="761.169921875" xlink:href="#BitstreamVeraSans-Roman-6c"/>
     <use x="788.953125" xlink:href="#BitstreamVeraSans-Roman-20"/>
     <use x="820.740234375" xlink:href="#BitstreamVeraSans-Roman-63"/>
     <use x="875.720703125" xlink:href="#BitstreamVeraSans-Roman-75"/>
     <use x="939.099609375" xlink:href="#BitstreamVeraSans-Roman-72"/>
     <use x="980.212890625" xlink:href="#BitstreamVeraSans-Roman-76"/>
     <use x="1039.39257812" xlink:href="#BitstreamVeraSans-Roman-65"/>
     <use x="1100.91601562" xlink:href="#BitstreamVeraSans-Roman-3a"/>
     <use x="1134.60742188" xlink:href="#BitstreamVeraSans-Roman-20"/>
     <use x="1166.39453125" xlink:href="#BitstreamVeraSans-Roman-41"/>
     <use x="1234.80273438" xlink:href="#BitstreamVeraSans-Roman-50"/>
     <use x="1295.10546875" xlink:href="#BitstreamVeraSans-Roman-3d"/>
     <use x="1378.89453125" xlink:href="#BitstreamVeraSans-Roman-30"/>
     <use x="1442.51757812" xlink:href="#BitstreamVeraSans-Roman-2e"/>
     <use x="1474.3046875" xlink:href="#BitstreamVeraSans-Roman-34"/>
     <use x="1537.92773438" xlink:href="#BitstreamVeraSans-Roman-30"/>
    </g>
   </g>
  </g>
 </g>
 <defs>
  <clipPath id="p9328bee518">
   <rect height="345.6" width="446.4" x="72.0" y="43.2"/>
  </clipPath>
 </defs>
</svg>
