<?xml version="1.0" encoding="utf-8" standalone="no"?>
<!DOCTYPE svg PUBLIC "-//W3C//DTD SVG 1.1//EN"
  "http://www.w3.org/Graphics/SVG/1.1/DTD/svg11.dtd">
<!-- Created with matplotlib (http://matplotlib.org/) -->
<svg height="432pt" version="1.1" viewBox="0 0 576 432" width="576pt" xmlns="http://www.w3.org/2000/svg" xmlns:xlink="http://www.w3.org/1999/xlink">
 <defs>
  <style type="text/css">
*{stroke-linecap:butt;stroke-linejoin:round;stroke-miterlimit:100000;}
  </style>
 </defs>
 <g id="figure_1">
  <g id="patch_1">
   <path d="M 0 432 
L 576 432 
L 576 0 
L 0 0 
z
" style="fill:#ffffff;"/>
  </g>
  <g id="axes_1">
   <g id="patch_2">
    <path d="M 72 388.8 
L 518.4 388.8 
L 518.4 43.2 
L 72 43.2 
z
" style="fill:#ffffff;"/>
   </g>
   <g id="PolyCollection_1">
    <defs>
     <path d="M 518.4 -43.2 
L 518.4 -192.342857 
L 510.703448 -192.342857 
L 510.703448 -190.925534 
L 503.006897 -190.925534 
L 503.006897 -189.485714 
L 503.006897 -189.485714 
L 503.006897 -190.656 
L 495.310345 -190.656 
L 495.310345 -189.190783 
L 487.613793 -189.190783 
L 487.613793 -187.701742 
L 487.613793 -187.701742 
L 487.613793 -188.886183 
L 487.613793 -188.886183 
L 487.613793 -190.090201 
L 479.917241 -190.090201 
L 479.917241 -188.571429 
L 479.917241 -188.571429 
L 479.917241 -189.793037 
L 472.22069 -189.793037 
L 472.22069 -188.246005 
L 472.22069 -188.246005 
L 472.22069 -189.485714 
L 464.524138 -189.485714 
L 464.524138 -187.90936 
L 464.524138 -187.90936 
L 464.524138 -189.167702 
L 456.827586 -189.167702 
L 456.827586 -187.560902 
L 456.827586 -187.560902 
L 456.827586 -188.838432 
L 456.827586 -188.838432 
L 456.827586 -190.138776 
L 456.827586 -190.138776 
L 456.827586 -191.462548 
L 449.131034 -191.462548 
L 449.131034 -191.163303 
L 449.131034 -191.163303 
L 449.131034 -192.533333 
L 441.434483 -192.533333 
L 441.434483 -190.85287 
L 441.434483 -190.85287 
L 441.434483 -192.245822 
L 433.737931 -192.245822 
L 433.737931 -190.530612 
L 426.041379 -190.530612 
L 426.041379 -188.782418 
L 426.041379 -188.782418 
L 426.041379 -190.195839 
L 426.041379 -190.195839 
L 426.041379 -191.636975 
L 418.344828 -191.636975 
L 418.344828 -189.847808 
L 410.648276 -189.847808 
L 410.648276 -188.022857 
L 410.648276 -188.022857 
L 410.648276 -189.485714 
L 410.648276 -189.485714 
L 410.648276 -190.978426 
L 402.951724 -190.978426 
L 402.951724 -189.108689 
L 395.255172 -189.108689 
L 395.255172 -187.2 
L 387.558621 -187.2 
L 387.558621 -185.251128 
L 387.558621 -185.251128 
L 387.558621 -186.76231 
L 387.558621 -186.76231 
L 387.558621 -188.305991 
L 387.558621 -188.305991 
L 387.558621 -189.88323 
L 387.558621 -189.88323 
L 387.558621 -191.495133 
L 387.558621 -191.495133 
L 387.558621 -193.142857 
L 379.862069 -193.142857 
L 379.862069 -191.129374 
L 379.862069 -191.129374 
L 379.862069 -192.81039 
L 379.862069 -192.81039 
L 379.862069 -194.530049 
L 379.862069 -194.530049 
L 379.862069 -196.289701 
L 379.862069 -196.289701 
L 379.862069 -198.090756 
L 379.862069 -198.090756 
L 379.862069 -199.934694 
L 379.862069 -199.934694 
L 379.862069 -201.823064 
L 379.862069 -201.823064 
L 379.862069 -203.757491 
L 372.165517 -203.757491 
L 372.165517 -201.67619 
L 364.468966 -201.67619 
L 364.468966 -199.542857 
L 364.468966 -199.542857 
L 364.468966 -201.521881 
L 364.468966 -201.521881 
L 364.468966 -203.551648 
L 356.772414 -203.551648 
L 356.772414 -201.359555 
L 349.075862 -201.359555 
L 349.075862 -199.109774 
L 341.37931 -199.109774 
L 341.37931 -196.8 
L 341.37931 -196.8 
L 341.37931 -198.875676 
L 333.682759 -198.875676 
L 333.682759 -196.499413 
L 325.986207 -196.499413 
L 325.986207 -194.057143 
L 325.986207 -194.057143 
L 325.986207 -196.181891 
L 318.289655 -196.181891 
L 318.289655 -193.665306 
L 310.593103 -193.665306 
L 310.593103 -191.075776 
L 310.593103 -191.075776 
L 310.593103 -193.25042 
L 310.593103 -193.25042 
L 310.593103 -195.489979 
L 310.593103 -195.489979 
L 310.593103 -197.797403 
L 310.593103 -197.797403 
L 310.593103 -200.175824 
L 302.896552 -200.175824 
L 302.896552 -197.485714 
L 302.896552 -197.485714 
L 302.896552 -199.934694 
L 295.2 -199.934694 
L 295.2 -197.153917 
L 295.2 -197.153917 
L 295.2 -199.677752 
L 295.2 -199.677752 
L 295.2 -202.285714 
L 295.2 -202.285714 
L 295.2 -204.982082 
L 295.2 -204.982082 
L 295.2 -207.771429 
L 295.2 -207.771429 
L 295.2 -210.658647 
L 295.2 -210.658647 
L 295.2 -213.64898 
L 287.503448 -213.64898 
L 287.503448 -210.763636 
L 287.503448 -210.763636 
L 287.503448 -213.866667 
L 279.806897 -213.866667 
L 279.806897 -210.87655 
L 279.806897 -210.87655 
L 279.806897 -214.101099 
L 272.110345 -214.101099 
L 272.110345 -210.998319 
L 272.110345 -210.998319 
L 272.110345 -214.354286 
L 264.413793 -214.354286 
L 264.413793 -211.130029 
L 264.413793 -211.130029 
L 264.413793 -214.628571 
L 256.717241 -214.628571 
L 256.717241 -211.272948 
L 256.717241 -211.272948 
L 256.717241 -214.926708 
L 256.717241 -214.926708 
L 256.717241 -218.742857 
L 256.717241 -218.742857 
L 256.717241 -222.732468 
L 256.717241 -222.732468 
L 256.717241 -226.907641 
L 256.717241 -226.907641 
L 256.717241 -231.281633 
L 249.02069 -231.281633 
L 249.02069 -227.841115 
L 241.324138 -227.841115 
L 241.324138 -224.228571 
L 241.324138 -224.228571 
L 241.324138 -228.87033 
L 241.324138 -228.87033 
L 241.324138 -233.756391 
L 241.324138 -233.756391 
L 241.324138 -238.906564 
L 233.627586 -238.906564 
L 233.627586 -235.2 
L 233.627586 -235.2 
L 233.627586 -240.685714 
L 225.931034 -240.685714 
L 225.931034 -236.813445 
L 225.931034 -236.813445 
L 225.931034 -242.680519 
L 225.931034 -242.680519 
L 225.931034 -248.914286 
L 218.234483 -248.914286 
L 218.234483 -244.932719 
L 218.234483 -244.932719 
L 218.234483 -251.657143 
L 210.537931 -251.657143 
L 210.537931 -247.495567 
L 202.841379 -247.495567 
L 202.841379 -243.036735 
L 195.144828 -243.036735 
L 195.144828 -238.247619 
L 187.448276 -238.247619 
L 187.448276 -233.09011 
L 179.751724 -233.09011 
L 179.751724 -227.52 
L 172.055172 -227.52 
L 172.055172 -221.485714 
L 164.358621 -221.485714 
L 164.358621 -214.926708 
L 164.358621 -214.926708 
L 164.358621 -222.732468 
L 164.358621 -222.732468 
L 164.358621 -231.281633 
L 164.358621 -231.281633 
L 164.358621 -240.685714 
L 156.662069 -240.685714 
L 156.662069 -233.756391 
L 148.965517 -233.756391 
L 148.965517 -226.057143 
L 141.268966 -226.057143 
L 141.268966 -217.452101 
L 141.268966 -217.452101 
L 141.268966 -228.342857 
L 141.268966 -228.342857 
L 141.268966 -240.685714 
L 133.572414 -240.685714 
L 133.572414 -231.281633 
L 125.875862 -231.281633 
L 125.875862 -220.430769 
L 125.875862 -220.430769 
L 125.875862 -235.2 
L 125.875862 -235.2 
L 125.875862 -252.654545 
L 118.17931 -252.654545 
L 118.17931 -240.685714 
L 110.482759 -240.685714 
L 110.482759 -226.057143 
L 102.786207 -226.057143 
L 102.786207 -207.771429 
L 102.786207 -207.771429 
L 102.786207 -231.281633 
L 95.089655 -231.281633 
L 95.089655 -207.771429 
L 87.393103 -207.771429 
L 87.393103 -174.857143 
L 87.393103 -174.857143 
L 87.393103 -207.771429 
L 87.393103 -207.771429 
L 87.393103 -262.628571 
L 87.393103 -262.628571 
L 87.393103 -372.342857 
L 79.696552 -372.342857 
L 79.696552 -372.342857 
L 72 -372.342857 
L 72 -372.342857 
L 72 -43.2 
L 72 -43.2 
L 72 -43.2 
L 79.696552 -43.2 
L 79.696552 -43.2 
L 87.393103 -43.2 
L 87.393103 -43.2 
L 87.393103 -43.2 
L 87.393103 -43.2 
L 87.393103 -43.2 
L 87.393103 -43.2 
L 87.393103 -43.2 
L 87.393103 -43.2 
L 95.089655 -43.2 
L 95.089655 -43.2 
L 102.786207 -43.2 
L 102.786207 -43.2 
L 102.786207 -43.2 
L 102.786207 -43.2 
L 110.482759 -43.2 
L 110.482759 -43.2 
L 118.17931 -43.2 
L 118.17931 -43.2 
L 125.875862 -43.2 
L 125.875862 -43.2 
L 125.875862 -43.2 
L 125.875862 -43.2 
L 125.875862 -43.2 
L 125.875862 -43.2 
L 133.572414 -43.2 
L 133.572414 -43.2 
L 141.268966 -43.2 
L 141.268966 -43.2 
L 141.268966 -43.2 
L 141.268966 -43.2 
L 141.268966 -43.2 
L 141.268966 -43.2 
L 148.965517 -43.2 
L 148.965517 -43.2 
L 156.662069 -43.2 
L 156.662069 -43.2 
L 164.358621 -43.2 
L 164.358621 -43.2 
L 164.358621 -43.2 
L 164.358621 -43.2 
L 164.358621 -43.2 
L 164.358621 -43.2 
L 164.358621 -43.2 
L 164.358621 -43.2 
L 172.055172 -43.2 
L 172.055172 -43.2 
L 179.751724 -43.2 
L 179.751724 -43.2 
L 187.448276 -43.2 
L 187.448276 -43.2 
L 195.144828 -43.2 
L 195.144828 -43.2 
L 202.841379 -43.2 
L 202.841379 -43.2 
L 210.537931 -43.2 
L 210.537931 -43.2 
L 218.234483 -43.2 
L 218.234483 -43.2 
L 218.234483 -43.2 
L 218.234483 -43.2 
L 225.931034 -43.2 
L 225.931034 -43.2 
L 225.931034 -43.2 
L 225.931034 -43.2 
L 225.931034 -43.2 
L 225.931034 -43.2 
L 233.627586 -43.2 
L 233.627586 -43.2 
L 233.627586 -43.2 
L 233.627586 -43.2 
L 241.324138 -43.2 
L 241.324138 -43.2 
L 241.324138 -43.2 
L 241.324138 -43.2 
L 241.324138 -43.2 
L 241.324138 -43.2 
L 241.324138 -43.2 
L 241.324138 -43.2 
L 249.02069 -43.2 
L 249.02069 -43.2 
L 256.717241 -43.2 
L 256.717241 -43.2 
L 256.717241 -43.2 
L 256.717241 -43.2 
L 256.717241 -43.2 
L 256.717241 -43.2 
L 256.717241 -43.2 
L 256.717241 -43.2 
L 256.717241 -43.2 
L 256.717241 -43.2 
L 256.717241 -43.2 
L 256.717241 -43.2 
L 264.413793 -43.2 
L 264.413793 -43.2 
L 264.413793 -43.2 
L 264.413793 -43.2 
L 272.110345 -43.2 
L 272.110345 -43.2 
L 272.110345 -43.2 
L 272.110345 -43.2 
L 279.806897 -43.2 
L 279.806897 -43.2 
L 279.806897 -43.2 
L 279.806897 -43.2 
L 287.503448 -43.2 
L 287.503448 -43.2 
L 287.503448 -43.2 
L 287.503448 -43.2 
L 295.2 -43.2 
L 295.2 -43.2 
L 295.2 -43.2 
L 295.2 -43.2 
L 295.2 -43.2 
L 295.2 -43.2 
L 295.2 -43.2 
L 295.2 -43.2 
L 295.2 -43.2 
L 295.2 -43.2 
L 295.2 -43.2 
L 295.2 -43.2 
L 295.2 -43.2 
L 295.2 -43.2 
L 302.896552 -43.2 
L 302.896552 -43.2 
L 302.896552 -43.2 
L 302.896552 -43.2 
L 310.593103 -43.2 
L 310.593103 -43.2 
L 310.593103 -43.2 
L 310.593103 -43.2 
L 310.593103 -43.2 
L 310.593103 -43.2 
L 310.593103 -43.2 
L 310.593103 -43.2 
L 310.593103 -43.2 
L 310.593103 -43.2 
L 318.289655 -43.2 
L 318.289655 -43.2 
L 325.986207 -43.2 
L 325.986207 -43.2 
L 325.986207 -43.2 
L 325.986207 -43.2 
L 333.682759 -43.2 
L 333.682759 -43.2 
L 341.37931 -43.2 
L 341.37931 -43.2 
L 341.37931 -43.2 
L 341.37931 -43.2 
L 349.075862 -43.2 
L 349.075862 -43.2 
L 356.772414 -43.2 
L 356.772414 -43.2 
L 364.468966 -43.2 
L 364.468966 -43.2 
L 364.468966 -43.2 
L 364.468966 -43.2 
L 364.468966 -43.2 
L 364.468966 -43.2 
L 372.165517 -43.2 
L 372.165517 -43.2 
L 379.862069 -43.2 
L 379.862069 -43.2 
L 379.862069 -43.2 
L 379.862069 -43.2 
L 379.862069 -43.2 
L 379.862069 -43.2 
L 379.862069 -43.2 
L 379.862069 -43.2 
L 379.862069 -43.2 
L 379.862069 -43.2 
L 379.862069 -43.2 
L 379.862069 -43.2 
L 379.862069 -43.2 
L 379.862069 -43.2 
L 379.862069 -43.2 
L 379.862069 -43.2 
L 387.558621 -43.2 
L 387.558621 -43.2 
L 387.558621 -43.2 
L 387.558621 -43.2 
L 387.558621 -43.2 
L 387.558621 -43.2 
L 387.558621 -43.2 
L 387.558621 -43.2 
L 387.558621 -43.2 
L 387.558621 -43.2 
L 387.558621 -43.2 
L 387.558621 -43.2 
L 395.255172 -43.2 
L 395.255172 -43.2 
L 402.951724 -43.2 
L 402.951724 -43.2 
L 410.648276 -43.2 
L 410.648276 -43.2 
L 410.648276 -43.2 
L 410.648276 -43.2 
L 410.648276 -43.2 
L 410.648276 -43.2 
L 418.344828 -43.2 
L 418.344828 -43.2 
L 426.041379 -43.2 
L 426.041379 -43.2 
L 426.041379 -43.2 
L 426.041379 -43.2 
L 426.041379 -43.2 
L 426.041379 -43.2 
L 433.737931 -43.2 
L 433.737931 -43.2 
L 441.434483 -43.2 
L 441.434483 -43.2 
L 441.434483 -43.2 
L 441.434483 -43.2 
L 449.131034 -43.2 
L 449.131034 -43.2 
L 449.131034 -43.2 
L 449.131034 -43.2 
L 456.827586 -43.2 
L 456.827586 -43.2 
L 456.827586 -43.2 
L 456.827586 -43.2 
L 456.827586 -43.2 
L 456.827586 -43.2 
L 456.827586 -43.2 
L 456.827586 -43.2 
L 464.524138 -43.2 
L 464.524138 -43.2 
L 464.524138 -43.2 
L 464.524138 -43.2 
L 472.22069 -43.2 
L 472.22069 -43.2 
L 472.22069 -43.2 
L 472.22069 -43.2 
L 479.917241 -43.2 
L 479.917241 -43.2 
L 479.917241 -43.2 
L 479.917241 -43.2 
L 487.613793 -43.2 
L 487.613793 -43.2 
L 487.613793 -43.2 
L 487.613793 -43.2 
L 487.613793 -43.2 
L 487.613793 -43.2 
L 495.310345 -43.2 
L 495.310345 -43.2 
L 503.006897 -43.2 
L 503.006897 -43.2 
L 503.006897 -43.2 
L 503.006897 -43.2 
L 510.703448 -43.2 
L 510.703448 -43.2 
L 518.4 -43.2 
z
" id="mdd18e8128f" style="stroke:#0000ff;stroke-opacity:0.2;"/>
    </defs>
    <g clip-path="url(#p702bf06e4c)">
     <use style="fill:#0000ff;fill-opacity:0.2;stroke:#0000ff;stroke-opacity:0.2;" x="0.0" xlink:href="#mdd18e8128f" y="432.0"/>
    </g>
   </g>
   <g id="line2d_1">
    <path clip-path="url(#p702bf06e4c)" d="M 518.4 239.657143 
L 510.703448 239.657143 
L 510.703448 241.074466 
L 503.006897 241.074466 
L 503.006897 242.514286 
L 503.006897 241.344 
L 495.310345 241.344 
L 495.310345 242.809217 
L 487.613793 242.809217 
L 487.613793 244.298258 
L 487.613793 243.113817 
L 487.613793 243.113817 
L 487.613793 241.909799 
L 479.917241 241.909799 
L 479.917241 243.428571 
L 479.917241 242.206963 
L 472.22069 242.206963 
L 472.22069 243.753995 
L 472.22069 242.514286 
L 464.524138 242.514286 
L 464.524138 244.09064 
L 464.524138 242.832298 
L 456.827586 242.832298 
L 456.827586 244.439098 
L 456.827586 243.161568 
L 456.827586 243.161568 
L 456.827586 240.537452 
L 449.131034 240.537452 
L 449.131034 240.836697 
L 449.131034 240.836697 
L 449.131034 240.836697 
L 449.131034 239.466667 
L 441.434483 239.466667 
L 441.434483 241.14713 
L 441.434483 239.754178 
L 433.737931 239.754178 
L 433.737931 241.469388 
L 426.041379 241.469388 
L 426.041379 243.217582 
L 426.041379 241.804161 
L 426.041379 241.804161 
L 426.041379 240.363025 
L 418.344828 240.363025 
L 418.344828 242.152192 
L 410.648276 242.152192 
L 410.648276 243.977143 
L 410.648276 242.514286 
L 410.648276 242.514286 
L 410.648276 241.021574 
L 402.951724 241.021574 
L 402.951724 242.891311 
L 395.255172 242.891311 
L 395.255172 244.8 
L 387.558621 244.8 
L 387.558621 246.748872 
L 387.558621 245.23769 
L 387.558621 245.23769 
L 387.558621 238.857143 
L 379.862069 238.857143 
L 379.862069 240.870626 
L 379.862069 239.18961 
L 379.862069 239.18961 
L 379.862069 228.242509 
L 372.165517 228.242509 
L 372.165517 230.32381 
L 364.468966 230.32381 
L 364.468966 232.457143 
L 364.468966 230.478119 
L 364.468966 230.478119 
L 364.468966 228.448352 
L 356.772414 228.448352 
L 356.772414 230.640445 
L 349.075862 230.640445 
L 349.075862 232.890226 
L 341.37931 232.890226 
L 341.37931 235.2 
L 341.37931 233.124324 
L 333.682759 233.124324 
L 333.682759 235.500587 
L 325.986207 235.500587 
L 325.986207 237.942857 
L 325.986207 235.818109 
L 318.289655 235.818109 
L 318.289655 238.334694 
L 310.593103 238.334694 
L 310.593103 240.924224 
L 310.593103 238.74958 
L 310.593103 238.74958 
L 310.593103 231.824176 
L 302.896552 231.824176 
L 302.896552 234.514286 
L 302.896552 232.065306 
L 295.2 232.065306 
L 295.2 234.846083 
L 295.2 232.322248 
L 295.2 232.322248 
L 295.2 218.35102 
L 287.503448 218.35102 
L 287.503448 221.236364 
L 287.503448 221.236364 
L 287.503448 221.236364 
L 287.503448 218.133333 
L 279.806897 218.133333 
L 279.806897 221.12345 
L 279.806897 221.12345 
L 279.806897 221.12345 
L 279.806897 217.898901 
L 272.110345 217.898901 
L 272.110345 221.001681 
L 272.110345 221.001681 
L 272.110345 221.001681 
L 272.110345 217.645714 
L 264.413793 217.645714 
L 264.413793 220.869971 
L 264.413793 220.869971 
L 264.413793 220.869971 
L 264.413793 217.371429 
L 256.717241 217.371429 
L 256.717241 220.727052 
L 256.717241 220.727052 
L 256.717241 220.727052 
L 256.717241 200.718367 
L 249.02069 200.718367 
L 249.02069 204.158885 
L 241.324138 204.158885 
L 241.324138 207.771429 
L 241.324138 207.771429 
L 241.324138 207.771429 
L 241.324138 193.093436 
L 233.627586 193.093436 
L 233.627586 196.8 
L 233.627586 196.8 
L 233.627586 196.8 
L 233.627586 191.314286 
L 225.931034 191.314286 
L 225.931034 195.186555 
L 225.931034 195.186555 
L 225.931034 195.186555 
L 225.931034 183.085714 
L 218.234483 183.085714 
L 218.234483 187.067281 
L 218.234483 187.067281 
L 218.234483 187.067281 
L 218.234483 180.342857 
L 210.537931 180.342857 
L 210.537931 184.504433 
L 202.841379 184.504433 
L 202.841379 188.963265 
L 195.144828 188.963265 
L 195.144828 193.752381 
L 187.448276 193.752381 
L 187.448276 198.90989 
L 179.751724 198.90989 
L 179.751724 204.48 
L 172.055172 204.48 
L 172.055172 210.514286 
L 164.358621 210.514286 
L 164.358621 217.073292 
L 164.358621 217.073292 
L 164.358621 217.073292 
L 164.358621 191.314286 
L 156.662069 191.314286 
L 156.662069 198.243609 
L 148.965517 198.243609 
L 148.965517 205.942857 
L 141.268966 205.942857 
L 141.268966 214.547899 
L 141.268966 214.547899 
L 141.268966 214.547899 
L 141.268966 191.314286 
L 133.572414 191.314286 
L 133.572414 200.718367 
L 125.875862 200.718367 
L 125.875862 211.569231 
L 125.875862 211.569231 
L 125.875862 211.569231 
L 125.875862 179.345455 
L 118.17931 179.345455 
L 118.17931 191.314286 
L 110.482759 191.314286 
L 110.482759 205.942857 
L 102.786207 205.942857 
L 102.786207 224.228571 
L 102.786207 224.228571 
L 102.786207 224.228571 
L 102.786207 200.718367 
L 95.089655 200.718367 
L 95.089655 224.228571 
L 87.393103 224.228571 
L 87.393103 257.142857 
L 87.393103 257.142857 
L 87.393103 257.142857 
L 87.393103 59.657143 
L 72 59.657143 
L 72 59.657143 
" style="fill:none;opacity:0.2;stroke:#0000ff;stroke-linecap:square;"/>
   </g>
   <g id="patch_3">
    <path d="M 72 43.2 
L 518.4 43.2 
" style="fill:none;stroke:#000000;stroke-linecap:square;stroke-linejoin:miter;"/>
   </g>
   <g id="patch_4">
    <path d="M 518.4 388.8 
L 518.4 43.2 
" style="fill:none;stroke:#000000;stroke-linecap:square;stroke-linejoin:miter;"/>
   </g>
   <g id="patch_5">
    <path d="M 72 388.8 
L 518.4 388.8 
" style="fill:none;stroke:#000000;stroke-linecap:square;stroke-linejoin:miter;"/>
   </g>
   <g id="patch_6">
    <path d="M 72 388.8 
L 72 43.2 
" style="fill:none;stroke:#000000;stroke-linecap:square;stroke-linejoin:miter;"/>
   </g>
   <g id="matplotlib.axis_1">
    <g id="xtick_1">
     <g id="line2d_2">
      <defs>
       <path d="M 0 0 
L 0 -4 
" id="mb39e97c6ca" style="stroke:#000000;stroke-width:0.5;"/>
      </defs>
      <g>
       <use style="stroke:#000000;stroke-width:0.5;" x="72.0" xlink:href="#mb39e97c6ca" y="388.8"/>
      </g>
     </g>
     <g id="line2d_3">
      <defs>
       <path d="M 0 0 
L 0 4 
" id="m5949c983d4" style="stroke:#000000;stroke-width:0.5;"/>
      </defs>
      <g>
       <use style="stroke:#000000;stroke-width:0.5;" x="72.0" xlink:href="#m5949c983d4" y="43.2"/>
      </g>
     </g>
     <g id="text_1">
      <!-- 0.0 -->
      <defs>
       <path d="M 31.78125 66.40625 
Q 24.171875 66.40625 20.328125 58.90625 
Q 16.5 51.421875 16.5 36.375 
Q 16.5 21.390625 20.328125 13.890625 
Q 24.171875 6.390625 31.78125 6.390625 
Q 39.453125 6.390625 43.28125 13.890625 
Q 47.125 21.390625 47.125 36.375 
Q 47.125 51.421875 43.28125 58.90625 
Q 39.453125 66.40625 31.78125 66.40625 
M 31.78125 74.21875 
Q 44.046875 74.21875 50.515625 64.515625 
Q 56.984375 54.828125 56.984375 36.375 
Q 56.984375 17.96875 50.515625 8.265625 
Q 44.046875 -1.421875 31.78125 -1.421875 
Q 19.53125 -1.421875 13.0625 8.265625 
Q 6.59375 17.96875 6.59375 36.375 
Q 6.59375 54.828125 13.0625 64.515625 
Q 19.53125 74.21875 31.78125 74.21875 
" id="BitstreamVeraSans-Roman-30"/>
       <path d="M 10.6875 12.40625 
L 21 12.40625 
L 21 0 
L 10.6875 0 
z
" id="BitstreamVeraSans-Roman-2e"/>
      </defs>
      <g transform="translate(62.458125 401.918125)scale(0.12 -0.12)">
       <use xlink:href="#BitstreamVeraSans-Roman-30"/>
       <use x="63.623046875" xlink:href="#BitstreamVeraSans-Roman-2e"/>
       <use x="95.41015625" xlink:href="#BitstreamVeraSans-Roman-30"/>
      </g>
     </g>
    </g>
    <g id="xtick_2">
     <g id="line2d_4">
      <g>
       <use style="stroke:#000000;stroke-width:0.5;" x="161.28" xlink:href="#mb39e97c6ca" y="388.8"/>
      </g>
     </g>
     <g id="line2d_5">
      <g>
       <use style="stroke:#000000;stroke-width:0.5;" x="161.28" xlink:href="#m5949c983d4" y="43.2"/>
      </g>
     </g>
     <g id="text_2">
      <!-- 0.2 -->
      <defs>
       <path d="M 19.1875 8.296875 
L 53.609375 8.296875 
L 53.609375 0 
L 7.328125 0 
L 7.328125 8.296875 
Q 12.9375 14.109375 22.625 23.890625 
Q 32.328125 33.6875 34.8125 36.53125 
Q 39.546875 41.84375 41.421875 45.53125 
Q 43.3125 49.21875 43.3125 52.78125 
Q 43.3125 58.59375 39.234375 62.25 
Q 35.15625 65.921875 28.609375 65.921875 
Q 23.96875 65.921875 18.8125 64.3125 
Q 13.671875 62.703125 7.8125 59.421875 
L 7.8125 69.390625 
Q 13.765625 71.78125 18.9375 73 
Q 24.125 74.21875 28.421875 74.21875 
Q 39.75 74.21875 46.484375 68.546875 
Q 53.21875 62.890625 53.21875 53.421875 
Q 53.21875 48.921875 51.53125 44.890625 
Q 49.859375 40.875 45.40625 35.40625 
Q 44.1875 33.984375 37.640625 27.21875 
Q 31.109375 20.453125 19.1875 8.296875 
" id="BitstreamVeraSans-Roman-32"/>
      </defs>
      <g transform="translate(151.738125 401.918125)scale(0.12 -0.12)">
       <use xlink:href="#BitstreamVeraSans-Roman-30"/>
       <use x="63.623046875" xlink:href="#BitstreamVeraSans-Roman-2e"/>
       <use x="95.41015625" xlink:href="#BitstreamVeraSans-Roman-32"/>
      </g>
     </g>
    </g>
    <g id="xtick_3">
     <g id="line2d_6">
      <g>
       <use style="stroke:#000000;stroke-width:0.5;" x="250.56" xlink:href="#mb39e97c6ca" y="388.8"/>
      </g>
     </g>
     <g id="line2d_7">
      <g>
       <use style="stroke:#000000;stroke-width:0.5;" x="250.56" xlink:href="#m5949c983d4" y="43.2"/>
      </g>
     </g>
     <g id="text_3">
      <!-- 0.4 -->
      <defs>
       <path d="M 37.796875 64.3125 
L 12.890625 25.390625 
L 37.796875 25.390625 
z
M 35.203125 72.90625 
L 47.609375 72.90625 
L 47.609375 25.390625 
L 58.015625 25.390625 
L 58.015625 17.1875 
L 47.609375 17.1875 
L 47.609375 0 
L 37.796875 0 
L 37.796875 17.1875 
L 4.890625 17.1875 
L 4.890625 26.703125 
z
" id="BitstreamVeraSans-Roman-34"/>
      </defs>
      <g transform="translate(241.018125 401.918125)scale(0.12 -0.12)">
       <use xlink:href="#BitstreamVeraSans-Roman-30"/>
       <use x="63.623046875" xlink:href="#BitstreamVeraSans-Roman-2e"/>
       <use x="95.41015625" xlink:href="#BitstreamVeraSans-Roman-34"/>
      </g>
     </g>
    </g>
    <g id="xtick_4">
     <g id="line2d_8">
      <g>
       <use style="stroke:#000000;stroke-width:0.5;" x="339.84" xlink:href="#mb39e97c6ca" y="388.8"/>
      </g>
     </g>
     <g id="line2d_9">
      <g>
       <use style="stroke:#000000;stroke-width:0.5;" x="339.84" xlink:href="#m5949c983d4" y="43.2"/>
      </g>
     </g>
     <g id="text_4">
      <!-- 0.6 -->
      <defs>
       <path d="M 33.015625 40.375 
Q 26.375 40.375 22.484375 35.828125 
Q 18.609375 31.296875 18.609375 23.390625 
Q 18.609375 15.53125 22.484375 10.953125 
Q 26.375 6.390625 33.015625 6.390625 
Q 39.65625 6.390625 43.53125 10.953125 
Q 47.40625 15.53125 47.40625 23.390625 
Q 47.40625 31.296875 43.53125 35.828125 
Q 39.65625 40.375 33.015625 40.375 
M 52.59375 71.296875 
L 52.59375 62.3125 
Q 48.875 64.0625 45.09375 64.984375 
Q 41.3125 65.921875 37.59375 65.921875 
Q 27.828125 65.921875 22.671875 59.328125 
Q 17.53125 52.734375 16.796875 39.40625 
Q 19.671875 43.65625 24.015625 45.921875 
Q 28.375 48.1875 33.59375 48.1875 
Q 44.578125 48.1875 50.953125 41.515625 
Q 57.328125 34.859375 57.328125 23.390625 
Q 57.328125 12.15625 50.6875 5.359375 
Q 44.046875 -1.421875 33.015625 -1.421875 
Q 20.359375 -1.421875 13.671875 8.265625 
Q 6.984375 17.96875 6.984375 36.375 
Q 6.984375 53.65625 15.1875 63.9375 
Q 23.390625 74.21875 37.203125 74.21875 
Q 40.921875 74.21875 44.703125 73.484375 
Q 48.484375 72.75 52.59375 71.296875 
" id="BitstreamVeraSans-Roman-36"/>
      </defs>
      <g transform="translate(330.298125 401.918125)scale(0.12 -0.12)">
       <use xlink:href="#BitstreamVeraSans-Roman-30"/>
       <use x="63.623046875" xlink:href="#BitstreamVeraSans-Roman-2e"/>
       <use x="95.41015625" xlink:href="#BitstreamVeraSans-Roman-36"/>
      </g>
     </g>
    </g>
    <g id="xtick_5">
     <g id="line2d_10">
      <g>
       <use style="stroke:#000000;stroke-width:0.5;" x="429.12" xlink:href="#mb39e97c6ca" y="388.8"/>
      </g>
     </g>
     <g id="line2d_11">
      <g>
       <use style="stroke:#000000;stroke-width:0.5;" x="429.12" xlink:href="#m5949c983d4" y="43.2"/>
      </g>
     </g>
     <g id="text_5">
      <!-- 0.8 -->
      <defs>
       <path d="M 31.78125 34.625 
Q 24.75 34.625 20.71875 30.859375 
Q 16.703125 27.09375 16.703125 20.515625 
Q 16.703125 13.921875 20.71875 10.15625 
Q 24.75 6.390625 31.78125 6.390625 
Q 38.8125 6.390625 42.859375 10.171875 
Q 46.921875 13.96875 46.921875 20.515625 
Q 46.921875 27.09375 42.890625 30.859375 
Q 38.875 34.625 31.78125 34.625 
M 21.921875 38.8125 
Q 15.578125 40.375 12.03125 44.71875 
Q 8.5 49.078125 8.5 55.328125 
Q 8.5 64.0625 14.71875 69.140625 
Q 20.953125 74.21875 31.78125 74.21875 
Q 42.671875 74.21875 48.875 69.140625 
Q 55.078125 64.0625 55.078125 55.328125 
Q 55.078125 49.078125 51.53125 44.71875 
Q 48 40.375 41.703125 38.8125 
Q 48.828125 37.15625 52.796875 32.3125 
Q 56.78125 27.484375 56.78125 20.515625 
Q 56.78125 9.90625 50.3125 4.234375 
Q 43.84375 -1.421875 31.78125 -1.421875 
Q 19.734375 -1.421875 13.25 4.234375 
Q 6.78125 9.90625 6.78125 20.515625 
Q 6.78125 27.484375 10.78125 32.3125 
Q 14.796875 37.15625 21.921875 38.8125 
M 18.3125 54.390625 
Q 18.3125 48.734375 21.84375 45.5625 
Q 25.390625 42.390625 31.78125 42.390625 
Q 38.140625 42.390625 41.71875 45.5625 
Q 45.3125 48.734375 45.3125 54.390625 
Q 45.3125 60.0625 41.71875 63.234375 
Q 38.140625 66.40625 31.78125 66.40625 
Q 25.390625 66.40625 21.84375 63.234375 
Q 18.3125 60.0625 18.3125 54.390625 
" id="BitstreamVeraSans-Roman-38"/>
      </defs>
      <g transform="translate(419.578125 401.918125)scale(0.12 -0.12)">
       <use xlink:href="#BitstreamVeraSans-Roman-30"/>
       <use x="63.623046875" xlink:href="#BitstreamVeraSans-Roman-2e"/>
       <use x="95.41015625" xlink:href="#BitstreamVeraSans-Roman-38"/>
      </g>
     </g>
    </g>
    <g id="xtick_6">
     <g id="line2d_12">
      <g>
       <use style="stroke:#000000;stroke-width:0.5;" x="518.4" xlink:href="#mb39e97c6ca" y="388.8"/>
      </g>
     </g>
     <g id="line2d_13">
      <g>
       <use style="stroke:#000000;stroke-width:0.5;" x="518.4" xlink:href="#m5949c983d4" y="43.2"/>
      </g>
     </g>
     <g id="text_6">
      <!-- 1.0 -->
      <defs>
       <path d="M 12.40625 8.296875 
L 28.515625 8.296875 
L 28.515625 63.921875 
L 10.984375 60.40625 
L 10.984375 69.390625 
L 28.421875 72.90625 
L 38.28125 72.90625 
L 38.28125 8.296875 
L 54.390625 8.296875 
L 54.390625 0 
L 12.40625 0 
z
" id="BitstreamVeraSans-Roman-31"/>
      </defs>
      <g transform="translate(508.858125 401.918125)scale(0.12 -0.12)">
       <use xlink:href="#BitstreamVeraSans-Roman-31"/>
       <use x="63.623046875" xlink:href="#BitstreamVeraSans-Roman-2e"/>
       <use x="95.41015625" xlink:href="#BitstreamVeraSans-Roman-30"/>
      </g>
     </g>
    </g>
    <g id="text_7">
     <!-- Recall -->
     <defs>
      <path d="M 56.203125 29.59375 
L 56.203125 25.203125 
L 14.890625 25.203125 
Q 15.484375 15.921875 20.484375 11.0625 
Q 25.484375 6.203125 34.421875 6.203125 
Q 39.59375 6.203125 44.453125 7.46875 
Q 49.3125 8.734375 54.109375 11.28125 
L 54.109375 2.78125 
Q 49.265625 0.734375 44.1875 -0.34375 
Q 39.109375 -1.421875 33.890625 -1.421875 
Q 20.796875 -1.421875 13.15625 6.1875 
Q 5.515625 13.8125 5.515625 26.8125 
Q 5.515625 40.234375 12.765625 48.109375 
Q 20.015625 56 32.328125 56 
Q 43.359375 56 49.78125 48.890625 
Q 56.203125 41.796875 56.203125 29.59375 
M 47.21875 32.234375 
Q 47.125 39.59375 43.09375 43.984375 
Q 39.0625 48.390625 32.421875 48.390625 
Q 24.90625 48.390625 20.390625 44.140625 
Q 15.875 39.890625 15.1875 32.171875 
z
" id="BitstreamVeraSans-Roman-65"/>
      <path d="M 44.390625 34.1875 
Q 47.5625 33.109375 50.5625 29.59375 
Q 53.5625 26.078125 56.59375 19.921875 
L 66.609375 0 
L 56 0 
L 46.6875 18.703125 
Q 43.0625 26.03125 39.671875 28.421875 
Q 36.28125 30.8125 30.421875 30.8125 
L 19.671875 30.8125 
L 19.671875 0 
L 9.8125 0 
L 9.8125 72.90625 
L 32.078125 72.90625 
Q 44.578125 72.90625 50.734375 67.671875 
Q 56.890625 62.453125 56.890625 51.90625 
Q 56.890625 45.015625 53.6875 40.46875 
Q 50.484375 35.9375 44.390625 34.1875 
M 19.671875 64.796875 
L 19.671875 38.921875 
L 32.078125 38.921875 
Q 39.203125 38.921875 42.84375 42.21875 
Q 46.484375 45.515625 46.484375 51.90625 
Q 46.484375 58.296875 42.84375 61.546875 
Q 39.203125 64.796875 32.078125 64.796875 
z
" id="BitstreamVeraSans-Roman-52"/>
      <path d="M 34.28125 27.484375 
Q 23.390625 27.484375 19.1875 25 
Q 14.984375 22.515625 14.984375 16.5 
Q 14.984375 11.71875 18.140625 8.90625 
Q 21.296875 6.109375 26.703125 6.109375 
Q 34.1875 6.109375 38.703125 11.40625 
Q 43.21875 16.703125 43.21875 25.484375 
L 43.21875 27.484375 
z
M 52.203125 31.203125 
L 52.203125 0 
L 43.21875 0 
L 43.21875 8.296875 
Q 40.140625 3.328125 35.546875 0.953125 
Q 30.953125 -1.421875 24.3125 -1.421875 
Q 15.921875 -1.421875 10.953125 3.296875 
Q 6 8.015625 6 15.921875 
Q 6 25.140625 12.171875 29.828125 
Q 18.359375 34.515625 30.609375 34.515625 
L 43.21875 34.515625 
L 43.21875 35.40625 
Q 43.21875 41.609375 39.140625 45 
Q 35.0625 48.390625 27.6875 48.390625 
Q 23 48.390625 18.546875 47.265625 
Q 14.109375 46.140625 10.015625 43.890625 
L 10.015625 52.203125 
Q 14.9375 54.109375 19.578125 55.046875 
Q 24.21875 56 28.609375 56 
Q 40.484375 56 46.34375 49.84375 
Q 52.203125 43.703125 52.203125 31.203125 
" id="BitstreamVeraSans-Roman-61"/>
      <path d="M 9.421875 75.984375 
L 18.40625 75.984375 
L 18.40625 0 
L 9.421875 0 
z
" id="BitstreamVeraSans-Roman-6c"/>
      <path d="M 48.78125 52.59375 
L 48.78125 44.1875 
Q 44.96875 46.296875 41.140625 47.34375 
Q 37.3125 48.390625 33.40625 48.390625 
Q 24.65625 48.390625 19.8125 42.84375 
Q 14.984375 37.3125 14.984375 27.296875 
Q 14.984375 17.28125 19.8125 11.734375 
Q 24.65625 6.203125 33.40625 6.203125 
Q 37.3125 6.203125 41.140625 7.25 
Q 44.96875 8.296875 48.78125 10.40625 
L 48.78125 2.09375 
Q 45.015625 0.34375 40.984375 -0.53125 
Q 36.96875 -1.421875 32.421875 -1.421875 
Q 20.0625 -1.421875 12.78125 6.34375 
Q 5.515625 14.109375 5.515625 27.296875 
Q 5.515625 40.671875 12.859375 48.328125 
Q 20.21875 56 33.015625 56 
Q 37.15625 56 41.109375 55.140625 
Q 45.0625 54.296875 48.78125 52.59375 
" id="BitstreamVeraSans-Roman-63"/>
     </defs>
     <g transform="translate(277.033125 418.531875)scale(0.12 -0.12)">
      <use xlink:href="#BitstreamVeraSans-Roman-52"/>
      <use x="69.419921875" xlink:href="#BitstreamVeraSans-Roman-65"/>
      <use x="130.943359375" xlink:href="#BitstreamVeraSans-Roman-63"/>
      <use x="185.923828125" xlink:href="#BitstreamVeraSans-Roman-61"/>
      <use x="247.203125" xlink:href="#BitstreamVeraSans-Roman-6c"/>
      <use x="274.986328125" xlink:href="#BitstreamVeraSans-Roman-6c"/>
     </g>
    </g>
   </g>
   <g id="matplotlib.axis_2">
    <g id="ytick_1">
     <g id="line2d_14">
      <defs>
       <path d="M 0 0 
L 4 0 
" id="mdc1f31078b" style="stroke:#000000;stroke-width:0.5;"/>
      </defs>
      <g>
       <use style="stroke:#000000;stroke-width:0.5;" x="72.0" xlink:href="#mdc1f31078b" y="388.8"/>
      </g>
     </g>
     <g id="line2d_15">
      <defs>
       <path d="M 0 0 
L -4 0 
" id="mf7aca359ad" style="stroke:#000000;stroke-width:0.5;"/>
      </defs>
      <g>
       <use style="stroke:#000000;stroke-width:0.5;" x="518.4" xlink:href="#mf7aca359ad" y="388.8"/>
      </g>
     </g>
     <g id="text_8">
      <!-- 0.0 -->
      <g transform="translate(48.91625 392.11125)scale(0.12 -0.12)">
       <use xlink:href="#BitstreamVeraSans-Roman-30"/>
       <use x="63.623046875" xlink:href="#BitstreamVeraSans-Roman-2e"/>
       <use x="95.41015625" xlink:href="#BitstreamVeraSans-Roman-30"/>
      </g>
     </g>
    </g>
    <g id="ytick_2">
     <g id="line2d_16">
      <g>
       <use style="stroke:#000000;stroke-width:0.5;" x="72.0" xlink:href="#mdc1f31078b" y="322.971428571"/>
      </g>
     </g>
     <g id="line2d_17">
      <g>
       <use style="stroke:#000000;stroke-width:0.5;" x="518.4" xlink:href="#mf7aca359ad" y="322.971428571"/>
      </g>
     </g>
     <g id="text_9">
      <!-- 0.2 -->
      <g transform="translate(48.91625 326.282678571)scale(0.12 -0.12)">
       <use xlink:href="#BitstreamVeraSans-Roman-30"/>
       <use x="63.623046875" xlink:href="#BitstreamVeraSans-Roman-2e"/>
       <use x="95.41015625" xlink:href="#BitstreamVeraSans-Roman-32"/>
      </g>
     </g>
    </g>
    <g id="ytick_3">
     <g id="line2d_18">
      <g>
       <use style="stroke:#000000;stroke-width:0.5;" x="72.0" xlink:href="#mdc1f31078b" y="257.142857143"/>
      </g>
     </g>
     <g id="line2d_19">
      <g>
       <use style="stroke:#000000;stroke-width:0.5;" x="518.4" xlink:href="#mf7aca359ad" y="257.142857143"/>
      </g>
     </g>
     <g id="text_10">
      <!-- 0.4 -->
      <g transform="translate(48.91625 260.454107143)scale(0.12 -0.12)">
       <use xlink:href="#BitstreamVeraSans-Roman-30"/>
       <use x="63.623046875" xlink:href="#BitstreamVeraSans-Roman-2e"/>
       <use x="95.41015625" xlink:href="#BitstreamVeraSans-Roman-34"/>
      </g>
     </g>
    </g>
    <g id="ytick_4">
     <g id="line2d_20">
      <g>
       <use style="stroke:#000000;stroke-width:0.5;" x="72.0" xlink:href="#mdc1f31078b" y="191.314285714"/>
      </g>
     </g>
     <g id="line2d_21">
      <g>
       <use style="stroke:#000000;stroke-width:0.5;" x="518.4" xlink:href="#mf7aca359ad" y="191.314285714"/>
      </g>
     </g>
     <g id="text_11">
      <!-- 0.6 -->
      <g transform="translate(48.91625 194.625535714)scale(0.12 -0.12)">
       <use xlink:href="#BitstreamVeraSans-Roman-30"/>
       <use x="63.623046875" xlink:href="#BitstreamVeraSans-Roman-2e"/>
       <use x="95.41015625" xlink:href="#BitstreamVeraSans-Roman-36"/>
      </g>
     </g>
    </g>
    <g id="ytick_5">
     <g id="line2d_22">
      <g>
       <use style="stroke:#000000;stroke-width:0.5;" x="72.0" xlink:href="#mdc1f31078b" y="125.485714286"/>
      </g>
     </g>
     <g id="line2d_23">
      <g>
       <use style="stroke:#000000;stroke-width:0.5;" x="518.4" xlink:href="#mf7aca359ad" y="125.485714286"/>
      </g>
     </g>
     <g id="text_12">
      <!-- 0.8 -->
      <g transform="translate(48.91625 128.796964286)scale(0.12 -0.12)">
       <use xlink:href="#BitstreamVeraSans-Roman-30"/>
       <use x="63.623046875" xlink:href="#BitstreamVeraSans-Roman-2e"/>
       <use x="95.41015625" xlink:href="#BitstreamVeraSans-Roman-38"/>
      </g>
     </g>
    </g>
    <g id="ytick_6">
     <g id="line2d_24">
      <g>
       <use style="stroke:#000000;stroke-width:0.5;" x="72.0" xlink:href="#mdc1f31078b" y="59.6571428571"/>
      </g>
     </g>
     <g id="line2d_25">
      <g>
       <use style="stroke:#000000;stroke-width:0.5;" x="518.4" xlink:href="#mf7aca359ad" y="59.6571428571"/>
      </g>
     </g>
     <g id="text_13">
      <!-- 1.0 -->
      <g transform="translate(48.91625 62.9683928571)scale(0.12 -0.12)">
       <use xlink:href="#BitstreamVeraSans-Roman-31"/>
       <use x="63.623046875" xlink:href="#BitstreamVeraSans-Roman-2e"/>
       <use x="95.41015625" xlink:href="#BitstreamVeraSans-Roman-30"/>
      </g>
     </g>
    </g>
    <g id="text_14">
     <!-- Precision -->
     <defs>
      <path d="M 54.890625 33.015625 
L 54.890625 0 
L 45.90625 0 
L 45.90625 32.71875 
Q 45.90625 40.484375 42.875 44.328125 
Q 39.84375 48.1875 33.796875 48.1875 
Q 26.515625 48.1875 22.3125 43.546875 
Q 18.109375 38.921875 18.109375 30.90625 
L 18.109375 0 
L 9.078125 0 
L 9.078125 54.6875 
L 18.109375 54.6875 
L 18.109375 46.1875 
Q 21.34375 51.125 25.703125 53.5625 
Q 30.078125 56 35.796875 56 
Q 45.21875 56 50.046875 50.171875 
Q 54.890625 44.34375 54.890625 33.015625 
" id="BitstreamVeraSans-Roman-6e"/>
      <path d="M 30.609375 48.390625 
Q 23.390625 48.390625 19.1875 42.75 
Q 14.984375 37.109375 14.984375 27.296875 
Q 14.984375 17.484375 19.15625 11.84375 
Q 23.34375 6.203125 30.609375 6.203125 
Q 37.796875 6.203125 41.984375 11.859375 
Q 46.1875 17.53125 46.1875 27.296875 
Q 46.1875 37.015625 41.984375 42.703125 
Q 37.796875 48.390625 30.609375 48.390625 
M 30.609375 56 
Q 42.328125 56 49.015625 48.375 
Q 55.71875 40.765625 55.71875 27.296875 
Q 55.71875 13.875 49.015625 6.21875 
Q 42.328125 -1.421875 30.609375 -1.421875 
Q 18.84375 -1.421875 12.171875 6.21875 
Q 5.515625 13.875 5.515625 27.296875 
Q 5.515625 40.765625 12.171875 48.375 
Q 18.84375 56 30.609375 56 
" id="BitstreamVeraSans-Roman-6f"/>
      <path d="M 19.671875 64.796875 
L 19.671875 37.40625 
L 32.078125 37.40625 
Q 38.96875 37.40625 42.71875 40.96875 
Q 46.484375 44.53125 46.484375 51.125 
Q 46.484375 57.671875 42.71875 61.234375 
Q 38.96875 64.796875 32.078125 64.796875 
z
M 9.8125 72.90625 
L 32.078125 72.90625 
Q 44.34375 72.90625 50.609375 67.359375 
Q 56.890625 61.8125 56.890625 51.125 
Q 56.890625 40.328125 50.609375 34.8125 
Q 44.34375 29.296875 32.078125 29.296875 
L 19.671875 29.296875 
L 19.671875 0 
L 9.8125 0 
z
" id="BitstreamVeraSans-Roman-50"/>
      <path d="M 9.421875 54.6875 
L 18.40625 54.6875 
L 18.40625 0 
L 9.421875 0 
z
M 9.421875 75.984375 
L 18.40625 75.984375 
L 18.40625 64.59375 
L 9.421875 64.59375 
z
" id="BitstreamVeraSans-Roman-69"/>
      <path d="M 41.109375 46.296875 
Q 39.59375 47.171875 37.8125 47.578125 
Q 36.03125 48 33.890625 48 
Q 26.265625 48 22.1875 43.046875 
Q 18.109375 38.09375 18.109375 28.8125 
L 18.109375 0 
L 9.078125 0 
L 9.078125 54.6875 
L 18.109375 54.6875 
L 18.109375 46.1875 
Q 20.953125 51.171875 25.484375 53.578125 
Q 30.03125 56 36.53125 56 
Q 37.453125 56 38.578125 55.875 
Q 39.703125 55.765625 41.0625 55.515625 
z
" id="BitstreamVeraSans-Roman-72"/>
      <path d="M 44.28125 53.078125 
L 44.28125 44.578125 
Q 40.484375 46.53125 36.375 47.5 
Q 32.28125 48.484375 27.875 48.484375 
Q 21.1875 48.484375 17.84375 46.4375 
Q 14.5 44.390625 14.5 40.28125 
Q 14.5 37.15625 16.890625 35.375 
Q 19.28125 33.59375 26.515625 31.984375 
L 29.59375 31.296875 
Q 39.15625 29.25 43.1875 25.515625 
Q 47.21875 21.78125 47.21875 15.09375 
Q 47.21875 7.46875 41.1875 3.015625 
Q 35.15625 -1.421875 24.609375 -1.421875 
Q 20.21875 -1.421875 15.453125 -0.5625 
Q 10.6875 0.296875 5.421875 2 
L 5.421875 11.28125 
Q 10.40625 8.6875 15.234375 7.390625 
Q 20.0625 6.109375 24.8125 6.109375 
Q 31.15625 6.109375 34.5625 8.28125 
Q 37.984375 10.453125 37.984375 14.40625 
Q 37.984375 18.0625 35.515625 20.015625 
Q 33.0625 21.96875 24.703125 23.78125 
L 21.578125 24.515625 
Q 13.234375 26.265625 9.515625 29.90625 
Q 5.8125 33.546875 5.8125 39.890625 
Q 5.8125 47.609375 11.28125 51.796875 
Q 16.75 56 26.8125 56 
Q 31.78125 56 36.171875 55.265625 
Q 40.578125 54.546875 44.28125 53.078125 
" id="BitstreamVeraSans-Roman-73"/>
     </defs>
     <g transform="translate(41.420625 243.005625)rotate(-90.0)scale(0.12 -0.12)">
      <use xlink:href="#BitstreamVeraSans-Roman-50"/>
      <use x="60.287109375" xlink:href="#BitstreamVeraSans-Roman-72"/>
      <use x="101.369140625" xlink:href="#BitstreamVeraSans-Roman-65"/>
      <use x="162.892578125" xlink:href="#BitstreamVeraSans-Roman-63"/>
      <use x="217.873046875" xlink:href="#BitstreamVeraSans-Roman-69"/>
      <use x="245.65625" xlink:href="#BitstreamVeraSans-Roman-73"/>
      <use x="297.755859375" xlink:href="#BitstreamVeraSans-Roman-69"/>
      <use x="325.5390625" xlink:href="#BitstreamVeraSans-Roman-6f"/>
      <use x="386.720703125" xlink:href="#BitstreamVeraSans-Roman-6e"/>
     </g>
    </g>
   </g>
   <g id="text_15">
    <!-- Precision-Recall curve: AP=0.53 -->
    <defs>
     <path id="BitstreamVeraSans-Roman-20"/>
     <path d="M 10.59375 45.40625 
L 73.1875 45.40625 
L 73.1875 37.203125 
L 10.59375 37.203125 
z
M 10.59375 25.484375 
L 73.1875 25.484375 
L 73.1875 17.1875 
L 10.59375 17.1875 
z
" id="BitstreamVeraSans-Roman-3d"/>
     <path d="M 10.796875 72.90625 
L 49.515625 72.90625 
L 49.515625 64.59375 
L 19.828125 64.59375 
L 19.828125 46.734375 
Q 21.96875 47.46875 24.109375 47.828125 
Q 26.265625 48.1875 28.421875 48.1875 
Q 40.625 48.1875 47.75 41.5 
Q 54.890625 34.8125 54.890625 23.390625 
Q 54.890625 11.625 47.5625 5.09375 
Q 40.234375 -1.421875 26.90625 -1.421875 
Q 22.3125 -1.421875 17.546875 -0.640625 
Q 12.796875 0.140625 7.71875 1.703125 
L 7.71875 11.625 
Q 12.109375 9.234375 16.796875 8.0625 
Q 21.484375 6.890625 26.703125 6.890625 
Q 35.15625 6.890625 40.078125 11.328125 
Q 45.015625 15.765625 45.015625 23.390625 
Q 45.015625 31 40.078125 35.4375 
Q 35.15625 39.890625 26.703125 39.890625 
Q 22.75 39.890625 18.8125 39.015625 
Q 14.890625 38.140625 10.796875 36.28125 
z
" id="BitstreamVeraSans-Roman-35"/>
     <path d="M 11.71875 12.40625 
L 22.015625 12.40625 
L 22.015625 0 
L 11.71875 0 
z
M 11.71875 51.703125 
L 22.015625 51.703125 
L 22.015625 39.3125 
L 11.71875 39.3125 
z
" id="BitstreamVeraSans-Roman-3a"/>
     <path d="M 4.890625 31.390625 
L 31.203125 31.390625 
L 31.203125 23.390625 
L 4.890625 23.390625 
z
" id="BitstreamVeraSans-Roman-2d"/>
     <path d="M 34.1875 63.1875 
L 20.796875 26.90625 
L 47.609375 26.90625 
z
M 28.609375 72.90625 
L 39.796875 72.90625 
L 67.578125 0 
L 57.328125 0 
L 50.6875 18.703125 
L 17.828125 18.703125 
L 11.1875 0 
L 0.78125 0 
z
" id="BitstreamVeraSans-Roman-41"/>
     <path d="M 2.984375 54.6875 
L 12.5 54.6875 
L 29.59375 8.796875 
L 46.6875 54.6875 
L 56.203125 54.6875 
L 35.6875 0 
L 23.484375 0 
z
" id="BitstreamVeraSans-Roman-76"/>
     <path d="M 40.578125 39.3125 
Q 47.65625 37.796875 51.625 33 
Q 55.609375 28.21875 55.609375 21.1875 
Q 55.609375 10.40625 48.1875 4.484375 
Q 40.765625 -1.421875 27.09375 -1.421875 
Q 22.515625 -1.421875 17.65625 -0.515625 
Q 12.796875 0.390625 7.625 2.203125 
L 7.625 11.71875 
Q 11.71875 9.328125 16.59375 8.109375 
Q 21.484375 6.890625 26.8125 6.890625 
Q 36.078125 6.890625 40.9375 10.546875 
Q 45.796875 14.203125 45.796875 21.1875 
Q 45.796875 27.640625 41.28125 31.265625 
Q 36.765625 34.90625 28.71875 34.90625 
L 20.21875 34.90625 
L 20.21875 43.015625 
L 29.109375 43.015625 
Q 36.375 43.015625 40.234375 45.921875 
Q 44.09375 48.828125 44.09375 54.296875 
Q 44.09375 59.90625 40.109375 62.90625 
Q 36.140625 65.921875 28.71875 65.921875 
Q 24.65625 65.921875 20.015625 65.03125 
Q 15.375 64.15625 9.8125 62.3125 
L 9.8125 71.09375 
Q 15.4375 72.65625 20.34375 73.4375 
Q 25.25 74.21875 29.59375 74.21875 
Q 40.828125 74.21875 47.359375 69.109375 
Q 53.90625 64.015625 53.90625 55.328125 
Q 53.90625 49.265625 50.4375 45.09375 
Q 46.96875 40.921875 40.578125 39.3125 
" id="BitstreamVeraSans-Roman-33"/>
     <path d="M 8.5 21.578125 
L 8.5 54.6875 
L 17.484375 54.6875 
L 17.484375 21.921875 
Q 17.484375 14.15625 20.5 10.265625 
Q 23.53125 6.390625 29.59375 6.390625 
Q 36.859375 6.390625 41.078125 11.03125 
Q 45.3125 15.671875 45.3125 23.6875 
L 45.3125 54.6875 
L 54.296875 54.6875 
L 54.296875 0 
L 45.3125 0 
L 45.3125 8.40625 
Q 42.046875 3.421875 37.71875 1 
Q 33.40625 -1.421875 27.6875 -1.421875 
Q 18.265625 -1.421875 13.375 4.4375 
Q 8.5 10.296875 8.5 21.578125 
" id="BitstreamVeraSans-Roman-75"/>
    </defs>
    <g transform="translate(179.888625 38.2)scale(0.144 -0.144)">
     <use xlink:href="#BitstreamVeraSans-Roman-50"/>
     <use x="60.287109375" xlink:href="#BitstreamVeraSans-Roman-72"/>
     <use x="101.369140625" xlink:href="#BitstreamVeraSans-Roman-65"/>
     <use x="162.892578125" xlink:href="#BitstreamVeraSans-Roman-63"/>
     <use x="217.873046875" xlink:href="#BitstreamVeraSans-Roman-69"/>
     <use x="245.65625" xlink:href="#BitstreamVeraSans-Roman-73"/>
     <use x="297.755859375" xlink:href="#BitstreamVeraSans-Roman-69"/>
     <use x="325.5390625" xlink:href="#BitstreamVeraSans-Roman-6f"/>
     <use x="386.720703125" xlink:href="#BitstreamVeraSans-Roman-6e"/>
     <use x="450.099609375" xlink:href="#BitstreamVeraSans-Roman-2d"/>
     <use x="486.18359375" xlink:href="#BitstreamVeraSans-Roman-52"/>
     <use x="555.603515625" xlink:href="#BitstreamVeraSans-Roman-65"/>
     <use x="617.126953125" xlink:href="#BitstreamVeraSans-Roman-63"/>
     <use x="672.107421875" xlink:href="#BitstreamVeraSans-Roman-61"/>
     <use x="733.38671875" xlink:href="#BitstreamVeraSans-Roman-6c"/>
     <use x="761.169921875" xlink:href="#BitstreamVeraSans-Roman-6c"/>
     <use x="788.953125" xlink:href="#BitstreamVeraSans-Roman-20"/>
     <use x="820.740234375" xlink:href="#BitstreamVeraSans-Roman-63"/>
     <use x="875.720703125" xlink:href="#BitstreamVeraSans-Roman-75"/>
     <use x="939.099609375" xlink:href="#BitstreamVeraSans-Roman-72"/>
     <use x="980.212890625" xlink:href="#BitstreamVeraSans-Roman-76"/>
     <use x="1039.39257812" xlink:href="#BitstreamVeraSans-Roman-65"/>
     <use x="1100.91601562" xlink:href="#BitstreamVeraSans-Roman-3a"/>
     <use x="1134.60742188" xlink:href="#BitstreamVeraSans-Roman-20"/>
     <use x="1166.39453125" xlink:href="#BitstreamVeraSans-Roman-41"/>
     <use x="1234.80273438" xlink:href="#BitstreamVeraSans-Roman-50"/>
     <use x="1295.10546875" xlink:href="#BitstreamVeraSans-Roman-3d"/>
     <use x="1378.89453125" xlink:href="#BitstreamVeraSans-Roman-30"/>
     <use x="1442.51757812" xlink:href="#BitstreamVeraSans-Roman-2e"/>
     <use x="1474.3046875" xlink:href="#BitstreamVeraSans-Roman-35"/>
     <use x="1537.92773438" xlink:href="#BitstreamVeraSans-Roman-33"/>
    </g>
   </g>
  </g>
 </g>
 <defs>
  <clipPath id="p702bf06e4c">
   <rect height="345.6" width="446.4" x="72.0" y="43.2"/>
  </clipPath>
 </defs>
</svg>
