<?xml version="1.0" encoding="utf-8" standalone="no"?>
<!DOCTYPE svg PUBLIC "-//W3C//DTD SVG 1.1//EN"
  "http://www.w3.org/Graphics/SVG/1.1/DTD/svg11.dtd">
<!-- Created with matplotlib (http://matplotlib.org/) -->
<svg height="432pt" version="1.1" viewBox="0 0 576 432" width="576pt" xmlns="http://www.w3.org/2000/svg" xmlns:xlink="http://www.w3.org/1999/xlink">
 <defs>
  <style type="text/css">
*{stroke-linecap:butt;stroke-linejoin:round;stroke-miterlimit:100000;}
  </style>
 </defs>
 <g id="figure_1">
  <g id="patch_1">
   <path d="M 0 432 
L 576 432 
L 576 0 
L 0 0 
z
" style="fill:#ffffff;"/>
  </g>
  <g id="axes_1">
   <g id="patch_2">
    <path d="M 72 388.8 
L 518.4 388.8 
L 518.4 43.2 
L 72 43.2 
z
" style="fill:#ffffff;"/>
   </g>
   <g id="PolyCollection_1">
    <defs>
     <path d="M 92.290909 -58.909091 
L 92.290909 -58.909091 
L 96.390083 -58.909091 
L 100.489256 -58.909091 
L 104.58843 -59.190347 
L 108.687603 -60.903968 
L 112.786777 -61.723544 
L 116.88595 -62.057318 
L 120.985124 -62.220848 
L 125.084298 -62.232902 
L 129.183471 -68.718107 
L 133.282645 -68.820669 
L 137.381818 -68.868179 
L 141.480992 -68.867224 
L 145.580165 -69.1691 
L 149.679339 -72.988257 
L 153.778512 -76.634971 
L 157.877686 -80.110022 
L 161.97686 -83.415704 
L 166.076033 -108.01754 
L 170.175207 -111.755182 
L 174.27438 -115.191717 
L 178.373554 -118.342415 
L 182.472727 -119.834237 
L 186.571901 -119.712193 
L 190.671074 -119.555017 
L 194.770248 -119.366642 
L 198.869421 -119.344194 
L 202.968595 -116.586937 
L 207.067769 -122.301849 
L 211.166942 -127.940445 
L 215.266116 -133.495967 
L 219.365289 -138.961159 
L 223.464463 -142.659294 
L 227.563636 -144.653787 
L 231.66281 -146.636095 
L 235.761983 -148.606205 
L 239.861157 -150.564111 
L 243.960331 -152.203048 
L 248.059504 -153.822819 
L 252.158678 -155.42338 
L 256.257851 -157.004706 
L 260.357025 -158.566786 
L 264.456198 -160.109629 
L 268.555372 -161.633257 
L 272.654545 -164.047042 
L 276.753719 -170.716103 
L 280.852893 -173.320983 
L 284.952066 -175.802475 
L 289.05124 -178.162699 
L 293.150413 -180.404353 
L 297.249587 -182.530644 
L 301.34876 -184.545214 
L 305.447934 -186.298743 
L 309.547107 -187.727658 
L 313.646281 -195.562298 
L 317.745455 -198.817127 
L 321.844628 -202.064468 
L 325.943802 -205.423668 
L 330.042975 -208.771033 
L 334.142149 -212.105892 
L 338.241322 -215.427531 
L 342.340496 -218.73519 
L 346.439669 -222.028059 
L 350.538843 -225.305277 
L 354.638017 -228.565928 
L 358.73719 -231.809038 
L 362.836364 -235.033572 
L 366.935537 -238.238435 
L 371.034711 -241.422465 
L 375.133884 -245.058889 
L 379.233058 -251.836359 
L 383.332231 -258.589193 
L 387.431405 -265.311641 
L 391.530579 -272.088238 
L 395.629752 -276.418146 
L 399.728926 -280.225065 
L 403.828099 -284.016675 
L 407.927273 -287.791109 
L 412.026446 -291.546214 
L 416.12562 -295.2795 
L 420.224793 -298.988087 
L 424.323967 -302.668634 
L 428.42314 -306.156123 
L 432.522314 -309.620873 
L 436.621488 -313.059806 
L 440.720661 -316.469356 
L 444.819835 -319.845396 
L 448.919008 -338.531238 
L 453.018182 -343.448059 
L 457.117355 -348.245165 
L 461.216529 -352.81173 
L 465.315702 -356.301308 
L 469.414876 -359.120137 
L 473.51405 -361.647706 
L 477.613223 -363.776773 
L 481.712397 -365.610389 
L 485.81157 -367.480519 
L 489.910744 -369.350649 
L 494.009917 -371.220779 
L 498.109091 -373.090909 
L 498.109091 -373.090909 
L 498.109091 -373.090909 
L 494.009917 -372.969668 
L 489.910744 -372.848428 
L 485.81157 -372.727187 
L 481.712397 -372.605946 
L 477.613223 -371.249294 
L 473.51405 -369.22721 
L 469.414876 -367.60363 
L 465.315702 -366.271308 
L 461.216529 -364.929689 
L 457.117355 -363.607205 
L 453.018182 -362.515262 
L 448.919008 -361.543034 
L 444.819835 -364.46655 
L 440.720661 -363.11214 
L 436.621488 -361.79124 
L 432.522314 -360.499723 
L 428.42314 -359.234024 
L 424.323967 -357.991063 
L 420.224793 -356.747222 
L 416.12562 -355.531419 
L 412.026446 -354.340316 
L 407.927273 -353.171031 
L 403.828099 -352.021077 
L 399.728926 -350.888298 
L 395.629752 -349.770827 
L 391.530579 -348.773355 
L 387.431405 -348.308365 
L 383.332231 -347.983166 
L 379.233058 -347.688352 
L 375.133884 -347.418174 
L 371.034711 -346.357731 
L 366.935537 -345.197511 
L 362.836364 -344.058124 
L 358.73719 -342.938408 
L 354.638017 -341.837268 
L 350.538843 -340.753669 
L 346.439669 -339.686637 
L 342.340496 -338.635256 
L 338.241322 -337.598665 
L 334.142149 -336.576054 
L 330.042975 -335.566663 
L 325.943802 -334.569777 
L 321.844628 -333.584727 
L 317.745455 -332.593364 
L 313.646281 -331.614285 
L 309.547107 -331.491382 
L 305.447934 -330.199116 
L 301.34876 -327.253146 
L 297.249587 -323.513114 
L 293.150413 -319.884802 
L 289.05124 -316.371853 
L 284.952066 -312.977475 
L 280.852893 -309.704364 
L 276.753719 -306.554641 
L 272.654545 -297.48122 
L 268.555372 -294.717813 
L 264.456198 -293.100612 
L 260.357025 -291.502626 
L 256.257851 -289.923878 
L 252.158678 -288.364375 
L 248.059504 -286.824107 
L 243.960331 -285.303049 
L 239.861157 -283.801158 
L 235.761983 -281.842478 
L 231.66281 -279.896001 
L 227.563636 -277.961723 
L 223.464463 -276.03963 
L 219.365289 -274.192088 
L 215.266116 -272.482512 
L 211.166942 -270.863266 
L 207.067769 -269.327094 
L 202.968595 -267.867238 
L 198.869421 -248.723091 
L 194.770248 -244.087117 
L 190.671074 -239.559033 
L 186.571901 -235.062148 
L 182.472727 -230.600395 
L 178.373554 -225.485684 
L 174.27438 -219.951927 
L 170.175207 -214.704007 
L 166.076033 -209.757194 
L 161.97686 -199.75722 
L 157.877686 -195.594976 
L 153.778512 -191.602101 
L 149.679339 -187.780889 
L 145.580165 -184.13212 
L 141.480992 -179.663591 
L 137.381818 -175.149137 
L 133.282645 -170.683149 
L 129.183471 -166.272211 
L 125.084298 -137.760171 
L 120.985124 -134.669195 
L 116.88595 -131.729695 
L 112.786777 -128.960439 
L 108.687603 -126.306736 
L 104.58843 -123.700798 
L 100.489256 -121.326614 
L 96.390083 -119.188833 
L 92.290909 -58.909091 
z
" id="m63df12ef20" style="stroke:#808080;stroke-opacity:0.2;"/>
    </defs>
    <g clip-path="url(#pf1e25728d9)">
     <use style="fill:#808080;fill-opacity:0.2;stroke:#808080;stroke-opacity:0.2;" x="0.0" xlink:href="#m63df12ef20" y="432.0"/>
    </g>
   </g>
   <g id="line2d_1">
    <path clip-path="url(#pf1e25728d9)" d="M 92.290909 358.12987 
L 145.223715 358.12987 
L 180.512253 313.246753 
L 198.156522 313.246753 
L 321.666403 253.402597 
L 374.599209 223.480519 
L 392.243478 178.597403 
L 445.176285 133.714286 
L 445.176285 103.792208 
L 462.820553 73.87013 
L 498.109091 58.909091 
" style="fill:none;opacity:0.3;stroke:#0000ff;stroke-linecap:square;"/>
   </g>
   <g id="line2d_2">
    <path clip-path="url(#pf1e25728d9)" d="M 92.290909 373.090909 
L 109.935178 357.381818 
L 145.223715 357.381818 
L 162.867984 325.963636 
L 162.867984 294.545455 
L 180.512253 247.418182 
L 198.156522 247.418182 
L 268.733597 200.290909 
L 304.022134 121.745455 
L 498.109091 58.909091 
" style="fill:none;opacity:0.3;stroke:#008000;stroke-linecap:square;"/>
   </g>
   <g id="line2d_3">
    <path clip-path="url(#pf1e25728d9)" d="M 92.290909 341.672727 
L 92.290909 325.963636 
L 92.290909 294.545455 
L 92.290909 278.836364 
L 127.579447 278.836364 
L 127.579447 263.127273 
L 145.223715 247.418182 
L 162.867984 247.418182 
L 162.867984 231.709091 
L 180.512253 231.709091 
L 304.022134 137.454545 
L 480.464822 58.909091 
L 498.109091 58.909091 
" style="fill:none;opacity:0.3;stroke:#ff0000;stroke-linecap:square;"/>
   </g>
   <g id="line2d_4">
    <path clip-path="url(#pf1e25728d9)" d="M 92.290909 373.090909 
L 129.183471 373.090909 
L 166.076033 373.090909 
L 166.076033 341.672727 
L 202.968595 341.672727 
L 221.414876 294.545455 
L 313.646281 278.836364 
L 313.646281 263.127273 
L 424.323967 121.745455 
L 479.66281 58.909091 
L 498.109091 58.909091 
" style="fill:none;opacity:0.3;stroke:#00bfbf;stroke-linecap:square;"/>
   </g>
   <g id="line2d_5">
    <path clip-path="url(#pf1e25728d9)" d="M 92.290909 357.381818 
L 129.183471 341.672727 
L 129.183471 310.254545 
L 129.183471 263.127273 
L 239.861157 200.290909 
L 276.753719 200.290909 
L 276.753719 168.872727 
L 387.431405 121.745455 
L 498.109091 58.909091 
" style="fill:none;opacity:0.3;stroke:#bf00bf;stroke-linecap:square;"/>
   </g>
   <g id="line2d_6">
    <path clip-path="url(#pf1e25728d9)" d="M 92.290909 341.672727 
L 202.968595 137.454545 
L 202.968595 106.036364 
L 276.753719 90.327273 
L 498.109091 58.909091 
" style="fill:none;opacity:0.3;stroke:#bfbf00;stroke-linecap:square;"/>
   </g>
   <g id="line2d_7">
    <path clip-path="url(#pf1e25728d9)" d="M 92.290909 373.090909 
L 498.109091 58.909091 
" style="fill:none;opacity:0.8;stroke:#ff0000;stroke-dasharray:6.000000,6.000000;stroke-dashoffset:0.0;stroke-width:2.0;"/>
   </g>
   <g id="line2d_8">
    <path clip-path="url(#pf1e25728d9)" d="M 92.290909 373.090909 
L 96.390083 344.873987 
L 100.489256 342.714207 
L 104.58843 340.554427 
L 108.687603 338.394648 
L 112.786777 336.658009 
L 116.88595 335.106494 
L 120.985124 333.554978 
L 125.084298 332.003463 
L 129.183471 314.504841 
L 133.282645 312.248091 
L 137.381818 309.991342 
L 141.480992 307.734593 
L 145.580165 305.34939 
L 149.679339 301.615427 
L 153.778512 297.881464 
L 157.877686 294.147501 
L 161.97686 290.413538 
L 166.076033 273.112633 
L 170.175207 268.770405 
L 174.27438 264.428178 
L 178.373554 260.08595 
L 182.472727 256.782684 
L 186.571901 254.61283 
L 190.671074 252.442975 
L 194.770248 250.273121 
L 198.869421 247.966357 
L 202.968595 239.772913 
L 207.067769 236.185529 
L 211.166942 232.598145 
L 215.266116 229.010761 
L 219.365289 225.423377 
L 223.464463 222.650538 
L 227.563636 220.692245 
L 231.66281 218.733952 
L 235.761983 216.775659 
L 239.861157 214.817365 
L 243.960331 213.246951 
L 248.059504 211.676537 
L 252.158678 210.106122 
L 256.257851 208.535708 
L 260.357025 206.965294 
L 264.456198 205.394879 
L 268.555372 203.824465 
L 272.654545 201.235869 
L 276.753719 193.364628 
L 280.852893 190.487327 
L 284.952066 187.610025 
L 289.05124 184.732724 
L 293.150413 181.855422 
L 297.249587 178.978121 
L 301.34876 176.10082 
L 305.447934 173.75107 
L 309.547107 172.39048 
L 313.646281 168.411708 
L 317.745455 166.294755 
L 321.844628 164.175402 
L 325.943802 162.003277 
L 330.042975 159.831152 
L 334.142149 157.659027 
L 338.241322 155.486902 
L 342.340496 153.314777 
L 346.439669 151.142652 
L 350.538843 148.970527 
L 354.638017 146.798402 
L 358.73719 144.626277 
L 362.836364 142.454152 
L 366.935537 140.282027 
L 371.034711 138.109902 
L 375.133884 135.761468 
L 379.233058 132.237644 
L 383.332231 128.713821 
L 387.431405 125.189997 
L 391.530579 121.569203 
L 395.629752 118.905513 
L 399.728926 116.443319 
L 403.828099 113.981124 
L 407.927273 111.51893 
L 412.026446 109.056735 
L 416.12562 106.59454 
L 420.224793 104.132346 
L 424.323967 101.670151 
L 428.42314 99.304926 
L 432.522314 96.939702 
L 436.621488 94.574477 
L 440.720661 92.209252 
L 444.819835 89.844027 
L 448.919008 81.962864 
L 453.018182 79.018339 
L 457.117355 76.073815 
L 461.216529 73.129291 
L 465.315702 70.713692 
L 469.414876 68.638117 
L 473.51405 66.562542 
L 477.613223 64.486966 
L 481.712397 62.891832 
L 485.81157 61.896147 
L 489.910744 60.900462 
L 494.009917 59.904776 
L 498.109091 58.909091 
" style="fill:none;opacity:0.8;stroke:#0000ff;stroke-linecap:square;stroke-width:2.0;"/>
   </g>
   <g id="patch_3">
    <path d="M 72 43.2 
L 518.4 43.2 
" style="fill:none;stroke:#000000;stroke-linecap:square;stroke-linejoin:miter;"/>
   </g>
   <g id="patch_4">
    <path d="M 518.4 388.8 
L 518.4 43.2 
" style="fill:none;stroke:#000000;stroke-linecap:square;stroke-linejoin:miter;"/>
   </g>
   <g id="patch_5">
    <path d="M 72 388.8 
L 518.4 388.8 
" style="fill:none;stroke:#000000;stroke-linecap:square;stroke-linejoin:miter;"/>
   </g>
   <g id="patch_6">
    <path d="M 72 388.8 
L 72 43.2 
" style="fill:none;stroke:#000000;stroke-linecap:square;stroke-linejoin:miter;"/>
   </g>
   <g id="matplotlib.axis_1">
    <g id="xtick_1">
     <g id="line2d_9">
      <defs>
       <path d="M 0 0 
L 0 -4 
" id="m6b76135e86" style="stroke:#000000;stroke-width:0.5;"/>
      </defs>
      <g>
       <use style="stroke:#000000;stroke-width:0.5;" x="92.2909090909" xlink:href="#m6b76135e86" y="388.8"/>
      </g>
     </g>
     <g id="line2d_10">
      <defs>
       <path d="M 0 0 
L 0 4 
" id="m44df0c7e87" style="stroke:#000000;stroke-width:0.5;"/>
      </defs>
      <g>
       <use style="stroke:#000000;stroke-width:0.5;" x="92.2909090909" xlink:href="#m44df0c7e87" y="43.2"/>
      </g>
     </g>
     <g id="text_1">
      <!-- 0.0 -->
      <defs>
       <path d="M 31.78125 66.40625 
Q 24.171875 66.40625 20.328125 58.90625 
Q 16.5 51.421875 16.5 36.375 
Q 16.5 21.390625 20.328125 13.890625 
Q 24.171875 6.390625 31.78125 6.390625 
Q 39.453125 6.390625 43.28125 13.890625 
Q 47.125 21.390625 47.125 36.375 
Q 47.125 51.421875 43.28125 58.90625 
Q 39.453125 66.40625 31.78125 66.40625 
M 31.78125 74.21875 
Q 44.046875 74.21875 50.515625 64.515625 
Q 56.984375 54.828125 56.984375 36.375 
Q 56.984375 17.96875 50.515625 8.265625 
Q 44.046875 -1.421875 31.78125 -1.421875 
Q 19.53125 -1.421875 13.0625 8.265625 
Q 6.59375 17.96875 6.59375 36.375 
Q 6.59375 54.828125 13.0625 64.515625 
Q 19.53125 74.21875 31.78125 74.21875 
" id="BitstreamVeraSans-Roman-30"/>
       <path d="M 10.6875 12.40625 
L 21 12.40625 
L 21 0 
L 10.6875 0 
z
" id="BitstreamVeraSans-Roman-2e"/>
      </defs>
      <g transform="translate(82.7490340909 401.918125)scale(0.12 -0.12)">
       <use xlink:href="#BitstreamVeraSans-Roman-30"/>
       <use x="63.623046875" xlink:href="#BitstreamVeraSans-Roman-2e"/>
       <use x="95.41015625" xlink:href="#BitstreamVeraSans-Roman-30"/>
      </g>
     </g>
    </g>
    <g id="xtick_2">
     <g id="line2d_11">
      <g>
       <use style="stroke:#000000;stroke-width:0.5;" x="173.454545455" xlink:href="#m6b76135e86" y="388.8"/>
      </g>
     </g>
     <g id="line2d_12">
      <g>
       <use style="stroke:#000000;stroke-width:0.5;" x="173.454545455" xlink:href="#m44df0c7e87" y="43.2"/>
      </g>
     </g>
     <g id="text_2">
      <!-- 0.2 -->
      <defs>
       <path d="M 19.1875 8.296875 
L 53.609375 8.296875 
L 53.609375 0 
L 7.328125 0 
L 7.328125 8.296875 
Q 12.9375 14.109375 22.625 23.890625 
Q 32.328125 33.6875 34.8125 36.53125 
Q 39.546875 41.84375 41.421875 45.53125 
Q 43.3125 49.21875 43.3125 52.78125 
Q 43.3125 58.59375 39.234375 62.25 
Q 35.15625 65.921875 28.609375 65.921875 
Q 23.96875 65.921875 18.8125 64.3125 
Q 13.671875 62.703125 7.8125 59.421875 
L 7.8125 69.390625 
Q 13.765625 71.78125 18.9375 73 
Q 24.125 74.21875 28.421875 74.21875 
Q 39.75 74.21875 46.484375 68.546875 
Q 53.21875 62.890625 53.21875 53.421875 
Q 53.21875 48.921875 51.53125 44.890625 
Q 49.859375 40.875 45.40625 35.40625 
Q 44.1875 33.984375 37.640625 27.21875 
Q 31.109375 20.453125 19.1875 8.296875 
" id="BitstreamVeraSans-Roman-32"/>
      </defs>
      <g transform="translate(163.912670455 401.918125)scale(0.12 -0.12)">
       <use xlink:href="#BitstreamVeraSans-Roman-30"/>
       <use x="63.623046875" xlink:href="#BitstreamVeraSans-Roman-2e"/>
       <use x="95.41015625" xlink:href="#BitstreamVeraSans-Roman-32"/>
      </g>
     </g>
    </g>
    <g id="xtick_3">
     <g id="line2d_13">
      <g>
       <use style="stroke:#000000;stroke-width:0.5;" x="254.618181818" xlink:href="#m6b76135e86" y="388.8"/>
      </g>
     </g>
     <g id="line2d_14">
      <g>
       <use style="stroke:#000000;stroke-width:0.5;" x="254.618181818" xlink:href="#m44df0c7e87" y="43.2"/>
      </g>
     </g>
     <g id="text_3">
      <!-- 0.4 -->
      <defs>
       <path d="M 37.796875 64.3125 
L 12.890625 25.390625 
L 37.796875 25.390625 
z
M 35.203125 72.90625 
L 47.609375 72.90625 
L 47.609375 25.390625 
L 58.015625 25.390625 
L 58.015625 17.1875 
L 47.609375 17.1875 
L 47.609375 0 
L 37.796875 0 
L 37.796875 17.1875 
L 4.890625 17.1875 
L 4.890625 26.703125 
z
" id="BitstreamVeraSans-Roman-34"/>
      </defs>
      <g transform="translate(245.076306818 401.918125)scale(0.12 -0.12)">
       <use xlink:href="#BitstreamVeraSans-Roman-30"/>
       <use x="63.623046875" xlink:href="#BitstreamVeraSans-Roman-2e"/>
       <use x="95.41015625" xlink:href="#BitstreamVeraSans-Roman-34"/>
      </g>
     </g>
    </g>
    <g id="xtick_4">
     <g id="line2d_15">
      <g>
       <use style="stroke:#000000;stroke-width:0.5;" x="335.781818182" xlink:href="#m6b76135e86" y="388.8"/>
      </g>
     </g>
     <g id="line2d_16">
      <g>
       <use style="stroke:#000000;stroke-width:0.5;" x="335.781818182" xlink:href="#m44df0c7e87" y="43.2"/>
      </g>
     </g>
     <g id="text_4">
      <!-- 0.6 -->
      <defs>
       <path d="M 33.015625 40.375 
Q 26.375 40.375 22.484375 35.828125 
Q 18.609375 31.296875 18.609375 23.390625 
Q 18.609375 15.53125 22.484375 10.953125 
Q 26.375 6.390625 33.015625 6.390625 
Q 39.65625 6.390625 43.53125 10.953125 
Q 47.40625 15.53125 47.40625 23.390625 
Q 47.40625 31.296875 43.53125 35.828125 
Q 39.65625 40.375 33.015625 40.375 
M 52.59375 71.296875 
L 52.59375 62.3125 
Q 48.875 64.0625 45.09375 64.984375 
Q 41.3125 65.921875 37.59375 65.921875 
Q 27.828125 65.921875 22.671875 59.328125 
Q 17.53125 52.734375 16.796875 39.40625 
Q 19.671875 43.65625 24.015625 45.921875 
Q 28.375 48.1875 33.59375 48.1875 
Q 44.578125 48.1875 50.953125 41.515625 
Q 57.328125 34.859375 57.328125 23.390625 
Q 57.328125 12.15625 50.6875 5.359375 
Q 44.046875 -1.421875 33.015625 -1.421875 
Q 20.359375 -1.421875 13.671875 8.265625 
Q 6.984375 17.96875 6.984375 36.375 
Q 6.984375 53.65625 15.1875 63.9375 
Q 23.390625 74.21875 37.203125 74.21875 
Q 40.921875 74.21875 44.703125 73.484375 
Q 48.484375 72.75 52.59375 71.296875 
" id="BitstreamVeraSans-Roman-36"/>
      </defs>
      <g transform="translate(326.239943182 401.918125)scale(0.12 -0.12)">
       <use xlink:href="#BitstreamVeraSans-Roman-30"/>
       <use x="63.623046875" xlink:href="#BitstreamVeraSans-Roman-2e"/>
       <use x="95.41015625" xlink:href="#BitstreamVeraSans-Roman-36"/>
      </g>
     </g>
    </g>
    <g id="xtick_5">
     <g id="line2d_17">
      <g>
       <use style="stroke:#000000;stroke-width:0.5;" x="416.945454545" xlink:href="#m6b76135e86" y="388.8"/>
      </g>
     </g>
     <g id="line2d_18">
      <g>
       <use style="stroke:#000000;stroke-width:0.5;" x="416.945454545" xlink:href="#m44df0c7e87" y="43.2"/>
      </g>
     </g>
     <g id="text_5">
      <!-- 0.8 -->
      <defs>
       <path d="M 31.78125 34.625 
Q 24.75 34.625 20.71875 30.859375 
Q 16.703125 27.09375 16.703125 20.515625 
Q 16.703125 13.921875 20.71875 10.15625 
Q 24.75 6.390625 31.78125 6.390625 
Q 38.8125 6.390625 42.859375 10.171875 
Q 46.921875 13.96875 46.921875 20.515625 
Q 46.921875 27.09375 42.890625 30.859375 
Q 38.875 34.625 31.78125 34.625 
M 21.921875 38.8125 
Q 15.578125 40.375 12.03125 44.71875 
Q 8.5 49.078125 8.5 55.328125 
Q 8.5 64.0625 14.71875 69.140625 
Q 20.953125 74.21875 31.78125 74.21875 
Q 42.671875 74.21875 48.875 69.140625 
Q 55.078125 64.0625 55.078125 55.328125 
Q 55.078125 49.078125 51.53125 44.71875 
Q 48 40.375 41.703125 38.8125 
Q 48.828125 37.15625 52.796875 32.3125 
Q 56.78125 27.484375 56.78125 20.515625 
Q 56.78125 9.90625 50.3125 4.234375 
Q 43.84375 -1.421875 31.78125 -1.421875 
Q 19.734375 -1.421875 13.25 4.234375 
Q 6.78125 9.90625 6.78125 20.515625 
Q 6.78125 27.484375 10.78125 32.3125 
Q 14.796875 37.15625 21.921875 38.8125 
M 18.3125 54.390625 
Q 18.3125 48.734375 21.84375 45.5625 
Q 25.390625 42.390625 31.78125 42.390625 
Q 38.140625 42.390625 41.71875 45.5625 
Q 45.3125 48.734375 45.3125 54.390625 
Q 45.3125 60.0625 41.71875 63.234375 
Q 38.140625 66.40625 31.78125 66.40625 
Q 25.390625 66.40625 21.84375 63.234375 
Q 18.3125 60.0625 18.3125 54.390625 
" id="BitstreamVeraSans-Roman-38"/>
      </defs>
      <g transform="translate(407.403579545 401.918125)scale(0.12 -0.12)">
       <use xlink:href="#BitstreamVeraSans-Roman-30"/>
       <use x="63.623046875" xlink:href="#BitstreamVeraSans-Roman-2e"/>
       <use x="95.41015625" xlink:href="#BitstreamVeraSans-Roman-38"/>
      </g>
     </g>
    </g>
    <g id="xtick_6">
     <g id="line2d_19">
      <g>
       <use style="stroke:#000000;stroke-width:0.5;" x="498.109090909" xlink:href="#m6b76135e86" y="388.8"/>
      </g>
     </g>
     <g id="line2d_20">
      <g>
       <use style="stroke:#000000;stroke-width:0.5;" x="498.109090909" xlink:href="#m44df0c7e87" y="43.2"/>
      </g>
     </g>
     <g id="text_6">
      <!-- 1.0 -->
      <defs>
       <path d="M 12.40625 8.296875 
L 28.515625 8.296875 
L 28.515625 63.921875 
L 10.984375 60.40625 
L 10.984375 69.390625 
L 28.421875 72.90625 
L 38.28125 72.90625 
L 38.28125 8.296875 
L 54.390625 8.296875 
L 54.390625 0 
L 12.40625 0 
z
" id="BitstreamVeraSans-Roman-31"/>
      </defs>
      <g transform="translate(488.567215909 401.918125)scale(0.12 -0.12)">
       <use xlink:href="#BitstreamVeraSans-Roman-31"/>
       <use x="63.623046875" xlink:href="#BitstreamVeraSans-Roman-2e"/>
       <use x="95.41015625" xlink:href="#BitstreamVeraSans-Roman-30"/>
      </g>
     </g>
    </g>
    <g id="text_7">
     <!-- False Positive Rate -->
     <defs>
      <path id="BitstreamVeraSans-Roman-20"/>
      <path d="M 30.609375 48.390625 
Q 23.390625 48.390625 19.1875 42.75 
Q 14.984375 37.109375 14.984375 27.296875 
Q 14.984375 17.484375 19.15625 11.84375 
Q 23.34375 6.203125 30.609375 6.203125 
Q 37.796875 6.203125 41.984375 11.859375 
Q 46.1875 17.53125 46.1875 27.296875 
Q 46.1875 37.015625 41.984375 42.703125 
Q 37.796875 48.390625 30.609375 48.390625 
M 30.609375 56 
Q 42.328125 56 49.015625 48.375 
Q 55.71875 40.765625 55.71875 27.296875 
Q 55.71875 13.875 49.015625 6.21875 
Q 42.328125 -1.421875 30.609375 -1.421875 
Q 18.84375 -1.421875 12.171875 6.21875 
Q 5.515625 13.875 5.515625 27.296875 
Q 5.515625 40.765625 12.171875 48.375 
Q 18.84375 56 30.609375 56 
" id="BitstreamVeraSans-Roman-6f"/>
      <path d="M 9.421875 75.984375 
L 18.40625 75.984375 
L 18.40625 0 
L 9.421875 0 
z
" id="BitstreamVeraSans-Roman-6c"/>
      <path d="M 19.671875 64.796875 
L 19.671875 37.40625 
L 32.078125 37.40625 
Q 38.96875 37.40625 42.71875 40.96875 
Q 46.484375 44.53125 46.484375 51.125 
Q 46.484375 57.671875 42.71875 61.234375 
Q 38.96875 64.796875 32.078125 64.796875 
z
M 9.8125 72.90625 
L 32.078125 72.90625 
Q 44.34375 72.90625 50.609375 67.359375 
Q 56.890625 61.8125 56.890625 51.125 
Q 56.890625 40.328125 50.609375 34.8125 
Q 44.34375 29.296875 32.078125 29.296875 
L 19.671875 29.296875 
L 19.671875 0 
L 9.8125 0 
z
" id="BitstreamVeraSans-Roman-50"/>
      <path d="M 9.8125 72.90625 
L 51.703125 72.90625 
L 51.703125 64.59375 
L 19.671875 64.59375 
L 19.671875 43.109375 
L 48.578125 43.109375 
L 48.578125 34.8125 
L 19.671875 34.8125 
L 19.671875 0 
L 9.8125 0 
z
" id="BitstreamVeraSans-Roman-46"/>
      <path d="M 44.390625 34.1875 
Q 47.5625 33.109375 50.5625 29.59375 
Q 53.5625 26.078125 56.59375 19.921875 
L 66.609375 0 
L 56 0 
L 46.6875 18.703125 
Q 43.0625 26.03125 39.671875 28.421875 
Q 36.28125 30.8125 30.421875 30.8125 
L 19.671875 30.8125 
L 19.671875 0 
L 9.8125 0 
L 9.8125 72.90625 
L 32.078125 72.90625 
Q 44.578125 72.90625 50.734375 67.671875 
Q 56.890625 62.453125 56.890625 51.90625 
Q 56.890625 45.015625 53.6875 40.46875 
Q 50.484375 35.9375 44.390625 34.1875 
M 19.671875 64.796875 
L 19.671875 38.921875 
L 32.078125 38.921875 
Q 39.203125 38.921875 42.84375 42.21875 
Q 46.484375 45.515625 46.484375 51.90625 
Q 46.484375 58.296875 42.84375 61.546875 
Q 39.203125 64.796875 32.078125 64.796875 
z
" id="BitstreamVeraSans-Roman-52"/>
      <path d="M 9.421875 54.6875 
L 18.40625 54.6875 
L 18.40625 0 
L 9.421875 0 
z
M 9.421875 75.984375 
L 18.40625 75.984375 
L 18.40625 64.59375 
L 9.421875 64.59375 
z
" id="BitstreamVeraSans-Roman-69"/>
      <path d="M 56.203125 29.59375 
L 56.203125 25.203125 
L 14.890625 25.203125 
Q 15.484375 15.921875 20.484375 11.0625 
Q 25.484375 6.203125 34.421875 6.203125 
Q 39.59375 6.203125 44.453125 7.46875 
Q 49.3125 8.734375 54.109375 11.28125 
L 54.109375 2.78125 
Q 49.265625 0.734375 44.1875 -0.34375 
Q 39.109375 -1.421875 33.890625 -1.421875 
Q 20.796875 -1.421875 13.15625 6.1875 
Q 5.515625 13.8125 5.515625 26.8125 
Q 5.515625 40.234375 12.765625 48.109375 
Q 20.015625 56 32.328125 56 
Q 43.359375 56 49.78125 48.890625 
Q 56.203125 41.796875 56.203125 29.59375 
M 47.21875 32.234375 
Q 47.125 39.59375 43.09375 43.984375 
Q 39.0625 48.390625 32.421875 48.390625 
Q 24.90625 48.390625 20.390625 44.140625 
Q 15.875 39.890625 15.1875 32.171875 
z
" id="BitstreamVeraSans-Roman-65"/>
      <path d="M 18.3125 70.21875 
L 18.3125 54.6875 
L 36.8125 54.6875 
L 36.8125 47.703125 
L 18.3125 47.703125 
L 18.3125 18.015625 
Q 18.3125 11.328125 20.140625 9.421875 
Q 21.96875 7.515625 27.59375 7.515625 
L 36.8125 7.515625 
L 36.8125 0 
L 27.59375 0 
Q 17.1875 0 13.234375 3.875 
Q 9.28125 7.765625 9.28125 18.015625 
L 9.28125 47.703125 
L 2.6875 47.703125 
L 2.6875 54.6875 
L 9.28125 54.6875 
L 9.28125 70.21875 
z
" id="BitstreamVeraSans-Roman-74"/>
      <path d="M 34.28125 27.484375 
Q 23.390625 27.484375 19.1875 25 
Q 14.984375 22.515625 14.984375 16.5 
Q 14.984375 11.71875 18.140625 8.90625 
Q 21.296875 6.109375 26.703125 6.109375 
Q 34.1875 6.109375 38.703125 11.40625 
Q 43.21875 16.703125 43.21875 25.484375 
L 43.21875 27.484375 
z
M 52.203125 31.203125 
L 52.203125 0 
L 43.21875 0 
L 43.21875 8.296875 
Q 40.140625 3.328125 35.546875 0.953125 
Q 30.953125 -1.421875 24.3125 -1.421875 
Q 15.921875 -1.421875 10.953125 3.296875 
Q 6 8.015625 6 15.921875 
Q 6 25.140625 12.171875 29.828125 
Q 18.359375 34.515625 30.609375 34.515625 
L 43.21875 34.515625 
L 43.21875 35.40625 
Q 43.21875 41.609375 39.140625 45 
Q 35.0625 48.390625 27.6875 48.390625 
Q 23 48.390625 18.546875 47.265625 
Q 14.109375 46.140625 10.015625 43.890625 
L 10.015625 52.203125 
Q 14.9375 54.109375 19.578125 55.046875 
Q 24.21875 56 28.609375 56 
Q 40.484375 56 46.34375 49.84375 
Q 52.203125 43.703125 52.203125 31.203125 
" id="BitstreamVeraSans-Roman-61"/>
      <path d="M 44.28125 53.078125 
L 44.28125 44.578125 
Q 40.484375 46.53125 36.375 47.5 
Q 32.28125 48.484375 27.875 48.484375 
Q 21.1875 48.484375 17.84375 46.4375 
Q 14.5 44.390625 14.5 40.28125 
Q 14.5 37.15625 16.890625 35.375 
Q 19.28125 33.59375 26.515625 31.984375 
L 29.59375 31.296875 
Q 39.15625 29.25 43.1875 25.515625 
Q 47.21875 21.78125 47.21875 15.09375 
Q 47.21875 7.46875 41.1875 3.015625 
Q 35.15625 -1.421875 24.609375 -1.421875 
Q 20.21875 -1.421875 15.453125 -0.5625 
Q 10.6875 0.296875 5.421875 2 
L 5.421875 11.28125 
Q 10.40625 8.6875 15.234375 7.390625 
Q 20.0625 6.109375 24.8125 6.109375 
Q 31.15625 6.109375 34.5625 8.28125 
Q 37.984375 10.453125 37.984375 14.40625 
Q 37.984375 18.0625 35.515625 20.015625 
Q 33.0625 21.96875 24.703125 23.78125 
L 21.578125 24.515625 
Q 13.234375 26.265625 9.515625 29.90625 
Q 5.8125 33.546875 5.8125 39.890625 
Q 5.8125 47.609375 11.28125 51.796875 
Q 16.75 56 26.8125 56 
Q 31.78125 56 36.171875 55.265625 
Q 40.578125 54.546875 44.28125 53.078125 
" id="BitstreamVeraSans-Roman-73"/>
      <path d="M 2.984375 54.6875 
L 12.5 54.6875 
L 29.59375 8.796875 
L 46.6875 54.6875 
L 56.203125 54.6875 
L 35.6875 0 
L 23.484375 0 
z
" id="BitstreamVeraSans-Roman-76"/>
     </defs>
     <g transform="translate(238.5534375 418.531875)scale(0.12 -0.12)">
      <use xlink:href="#BitstreamVeraSans-Roman-46"/>
      <use x="57.37890625" xlink:href="#BitstreamVeraSans-Roman-61"/>
      <use x="118.658203125" xlink:href="#BitstreamVeraSans-Roman-6c"/>
      <use x="146.44140625" xlink:href="#BitstreamVeraSans-Roman-73"/>
      <use x="198.541015625" xlink:href="#BitstreamVeraSans-Roman-65"/>
      <use x="260.064453125" xlink:href="#BitstreamVeraSans-Roman-20"/>
      <use x="291.8515625" xlink:href="#BitstreamVeraSans-Roman-50"/>
      <use x="352.107421875" xlink:href="#BitstreamVeraSans-Roman-6f"/>
      <use x="413.2890625" xlink:href="#BitstreamVeraSans-Roman-73"/>
      <use x="465.388671875" xlink:href="#BitstreamVeraSans-Roman-69"/>
      <use x="493.171875" xlink:href="#BitstreamVeraSans-Roman-74"/>
      <use x="532.380859375" xlink:href="#BitstreamVeraSans-Roman-69"/>
      <use x="560.1640625" xlink:href="#BitstreamVeraSans-Roman-76"/>
      <use x="619.34375" xlink:href="#BitstreamVeraSans-Roman-65"/>
      <use x="680.8671875" xlink:href="#BitstreamVeraSans-Roman-20"/>
      <use x="712.654296875" xlink:href="#BitstreamVeraSans-Roman-52"/>
      <use x="782.10546875" xlink:href="#BitstreamVeraSans-Roman-61"/>
      <use x="843.384765625" xlink:href="#BitstreamVeraSans-Roman-74"/>
      <use x="882.59375" xlink:href="#BitstreamVeraSans-Roman-65"/>
     </g>
    </g>
   </g>
   <g id="matplotlib.axis_2">
    <g id="ytick_1">
     <g id="line2d_21">
      <defs>
       <path d="M 0 0 
L 4 0 
" id="m8498317874" style="stroke:#000000;stroke-width:0.5;"/>
      </defs>
      <g>
       <use style="stroke:#000000;stroke-width:0.5;" x="72.0" xlink:href="#m8498317874" y="373.090909091"/>
      </g>
     </g>
     <g id="line2d_22">
      <defs>
       <path d="M 0 0 
L -4 0 
" id="m9f407746a1" style="stroke:#000000;stroke-width:0.5;"/>
      </defs>
      <g>
       <use style="stroke:#000000;stroke-width:0.5;" x="518.4" xlink:href="#m9f407746a1" y="373.090909091"/>
      </g>
     </g>
     <g id="text_8">
      <!-- 0.0 -->
      <g transform="translate(48.91625 376.402159091)scale(0.12 -0.12)">
       <use xlink:href="#BitstreamVeraSans-Roman-30"/>
       <use x="63.623046875" xlink:href="#BitstreamVeraSans-Roman-2e"/>
       <use x="95.41015625" xlink:href="#BitstreamVeraSans-Roman-30"/>
      </g>
     </g>
    </g>
    <g id="ytick_2">
     <g id="line2d_23">
      <g>
       <use style="stroke:#000000;stroke-width:0.5;" x="72.0" xlink:href="#m8498317874" y="310.254545455"/>
      </g>
     </g>
     <g id="line2d_24">
      <g>
       <use style="stroke:#000000;stroke-width:0.5;" x="518.4" xlink:href="#m9f407746a1" y="310.254545455"/>
      </g>
     </g>
     <g id="text_9">
      <!-- 0.2 -->
      <g transform="translate(48.91625 313.565795455)scale(0.12 -0.12)">
       <use xlink:href="#BitstreamVeraSans-Roman-30"/>
       <use x="63.623046875" xlink:href="#BitstreamVeraSans-Roman-2e"/>
       <use x="95.41015625" xlink:href="#BitstreamVeraSans-Roman-32"/>
      </g>
     </g>
    </g>
    <g id="ytick_3">
     <g id="line2d_25">
      <g>
       <use style="stroke:#000000;stroke-width:0.5;" x="72.0" xlink:href="#m8498317874" y="247.418181818"/>
      </g>
     </g>
     <g id="line2d_26">
      <g>
       <use style="stroke:#000000;stroke-width:0.5;" x="518.4" xlink:href="#m9f407746a1" y="247.418181818"/>
      </g>
     </g>
     <g id="text_10">
      <!-- 0.4 -->
      <g transform="translate(48.91625 250.729431818)scale(0.12 -0.12)">
       <use xlink:href="#BitstreamVeraSans-Roman-30"/>
       <use x="63.623046875" xlink:href="#BitstreamVeraSans-Roman-2e"/>
       <use x="95.41015625" xlink:href="#BitstreamVeraSans-Roman-34"/>
      </g>
     </g>
    </g>
    <g id="ytick_4">
     <g id="line2d_27">
      <g>
       <use style="stroke:#000000;stroke-width:0.5;" x="72.0" xlink:href="#m8498317874" y="184.581818182"/>
      </g>
     </g>
     <g id="line2d_28">
      <g>
       <use style="stroke:#000000;stroke-width:0.5;" x="518.4" xlink:href="#m9f407746a1" y="184.581818182"/>
      </g>
     </g>
     <g id="text_11">
      <!-- 0.6 -->
      <g transform="translate(48.91625 187.893068182)scale(0.12 -0.12)">
       <use xlink:href="#BitstreamVeraSans-Roman-30"/>
       <use x="63.623046875" xlink:href="#BitstreamVeraSans-Roman-2e"/>
       <use x="95.41015625" xlink:href="#BitstreamVeraSans-Roman-36"/>
      </g>
     </g>
    </g>
    <g id="ytick_5">
     <g id="line2d_29">
      <g>
       <use style="stroke:#000000;stroke-width:0.5;" x="72.0" xlink:href="#m8498317874" y="121.745454545"/>
      </g>
     </g>
     <g id="line2d_30">
      <g>
       <use style="stroke:#000000;stroke-width:0.5;" x="518.4" xlink:href="#m9f407746a1" y="121.745454545"/>
      </g>
     </g>
     <g id="text_12">
      <!-- 0.8 -->
      <g transform="translate(48.91625 125.056704545)scale(0.12 -0.12)">
       <use xlink:href="#BitstreamVeraSans-Roman-30"/>
       <use x="63.623046875" xlink:href="#BitstreamVeraSans-Roman-2e"/>
       <use x="95.41015625" xlink:href="#BitstreamVeraSans-Roman-38"/>
      </g>
     </g>
    </g>
    <g id="ytick_6">
     <g id="line2d_31">
      <g>
       <use style="stroke:#000000;stroke-width:0.5;" x="72.0" xlink:href="#m8498317874" y="58.9090909091"/>
      </g>
     </g>
     <g id="line2d_32">
      <g>
       <use style="stroke:#000000;stroke-width:0.5;" x="518.4" xlink:href="#m9f407746a1" y="58.9090909091"/>
      </g>
     </g>
     <g id="text_13">
      <!-- 1.0 -->
      <g transform="translate(48.91625 62.2203409091)scale(0.12 -0.12)">
       <use xlink:href="#BitstreamVeraSans-Roman-31"/>
       <use x="63.623046875" xlink:href="#BitstreamVeraSans-Roman-2e"/>
       <use x="95.41015625" xlink:href="#BitstreamVeraSans-Roman-30"/>
      </g>
     </g>
    </g>
    <g id="text_14">
     <!-- True Positive Rate -->
     <defs>
      <path d="M 41.109375 46.296875 
Q 39.59375 47.171875 37.8125 47.578125 
Q 36.03125 48 33.890625 48 
Q 26.265625 48 22.1875 43.046875 
Q 18.109375 38.09375 18.109375 28.8125 
L 18.109375 0 
L 9.078125 0 
L 9.078125 54.6875 
L 18.109375 54.6875 
L 18.109375 46.1875 
Q 20.953125 51.171875 25.484375 53.578125 
Q 30.03125 56 36.53125 56 
Q 37.453125 56 38.578125 55.875 
Q 39.703125 55.765625 41.0625 55.515625 
z
" id="BitstreamVeraSans-Roman-72"/>
      <path d="M 8.5 21.578125 
L 8.5 54.6875 
L 17.484375 54.6875 
L 17.484375 21.921875 
Q 17.484375 14.15625 20.5 10.265625 
Q 23.53125 6.390625 29.59375 6.390625 
Q 36.859375 6.390625 41.078125 11.03125 
Q 45.3125 15.671875 45.3125 23.6875 
L 45.3125 54.6875 
L 54.296875 54.6875 
L 54.296875 0 
L 45.3125 0 
L 45.3125 8.40625 
Q 42.046875 3.421875 37.71875 1 
Q 33.40625 -1.421875 27.6875 -1.421875 
Q 18.265625 -1.421875 13.375 4.4375 
Q 8.5 10.296875 8.5 21.578125 
" id="BitstreamVeraSans-Roman-75"/>
      <path d="M -0.296875 72.90625 
L 61.375 72.90625 
L 61.375 64.59375 
L 35.5 64.59375 
L 35.5 0 
L 25.59375 0 
L 25.59375 64.59375 
L -0.296875 64.59375 
z
" id="BitstreamVeraSans-Roman-54"/>
     </defs>
     <g transform="translate(41.420625 270.6553125)rotate(-90.0)scale(0.12 -0.12)">
      <use xlink:href="#BitstreamVeraSans-Roman-54"/>
      <use x="60.865234375" xlink:href="#BitstreamVeraSans-Roman-72"/>
      <use x="101.978515625" xlink:href="#BitstreamVeraSans-Roman-75"/>
      <use x="165.357421875" xlink:href="#BitstreamVeraSans-Roman-65"/>
      <use x="226.880859375" xlink:href="#BitstreamVeraSans-Roman-20"/>
      <use x="258.66796875" xlink:href="#BitstreamVeraSans-Roman-50"/>
      <use x="318.923828125" xlink:href="#BitstreamVeraSans-Roman-6f"/>
      <use x="380.10546875" xlink:href="#BitstreamVeraSans-Roman-73"/>
      <use x="432.205078125" xlink:href="#BitstreamVeraSans-Roman-69"/>
      <use x="459.98828125" xlink:href="#BitstreamVeraSans-Roman-74"/>
      <use x="499.197265625" xlink:href="#BitstreamVeraSans-Roman-69"/>
      <use x="526.98046875" xlink:href="#BitstreamVeraSans-Roman-76"/>
      <use x="586.16015625" xlink:href="#BitstreamVeraSans-Roman-65"/>
      <use x="647.68359375" xlink:href="#BitstreamVeraSans-Roman-20"/>
      <use x="679.470703125" xlink:href="#BitstreamVeraSans-Roman-52"/>
      <use x="748.921875" xlink:href="#BitstreamVeraSans-Roman-61"/>
      <use x="810.201171875" xlink:href="#BitstreamVeraSans-Roman-74"/>
      <use x="849.41015625" xlink:href="#BitstreamVeraSans-Roman-65"/>
     </g>
    </g>
   </g>
   <g id="text_15">
    <!-- Receiver operating characteristic (ROC) -->
    <defs>
     <path d="M 39.40625 66.21875 
Q 28.65625 66.21875 22.328125 58.203125 
Q 16.015625 50.203125 16.015625 36.375 
Q 16.015625 22.609375 22.328125 14.59375 
Q 28.65625 6.59375 39.40625 6.59375 
Q 50.140625 6.59375 56.421875 14.59375 
Q 62.703125 22.609375 62.703125 36.375 
Q 62.703125 50.203125 56.421875 58.203125 
Q 50.140625 66.21875 39.40625 66.21875 
M 39.40625 74.21875 
Q 54.734375 74.21875 63.90625 63.9375 
Q 73.09375 53.65625 73.09375 36.375 
Q 73.09375 19.140625 63.90625 8.859375 
Q 54.734375 -1.421875 39.40625 -1.421875 
Q 24.03125 -1.421875 14.8125 8.828125 
Q 5.609375 19.09375 5.609375 36.375 
Q 5.609375 53.65625 14.8125 63.9375 
Q 24.03125 74.21875 39.40625 74.21875 
" id="BitstreamVeraSans-Roman-4f"/>
     <path d="M 54.890625 33.015625 
L 54.890625 0 
L 45.90625 0 
L 45.90625 32.71875 
Q 45.90625 40.484375 42.875 44.328125 
Q 39.84375 48.1875 33.796875 48.1875 
Q 26.515625 48.1875 22.3125 43.546875 
Q 18.109375 38.921875 18.109375 30.90625 
L 18.109375 0 
L 9.078125 0 
L 9.078125 54.6875 
L 18.109375 54.6875 
L 18.109375 46.1875 
Q 21.34375 51.125 25.703125 53.5625 
Q 30.078125 56 35.796875 56 
Q 45.21875 56 50.046875 50.171875 
Q 54.890625 44.34375 54.890625 33.015625 
" id="BitstreamVeraSans-Roman-6e"/>
     <path d="M 31 75.875 
Q 24.46875 64.65625 21.28125 53.65625 
Q 18.109375 42.671875 18.109375 31.390625 
Q 18.109375 20.125 21.3125 9.0625 
Q 24.515625 -2 31 -13.1875 
L 23.1875 -13.1875 
Q 15.875 -1.703125 12.234375 9.375 
Q 8.59375 20.453125 8.59375 31.390625 
Q 8.59375 42.28125 12.203125 53.3125 
Q 15.828125 64.359375 23.1875 75.875 
z
" id="BitstreamVeraSans-Roman-28"/>
     <path d="M 8.015625 75.875 
L 15.828125 75.875 
Q 23.140625 64.359375 26.78125 53.3125 
Q 30.421875 42.28125 30.421875 31.390625 
Q 30.421875 20.453125 26.78125 9.375 
Q 23.140625 -1.703125 15.828125 -13.1875 
L 8.015625 -13.1875 
Q 14.5 -2 17.703125 9.0625 
Q 20.90625 20.125 20.90625 31.390625 
Q 20.90625 42.671875 17.703125 53.65625 
Q 14.5 64.65625 8.015625 75.875 
" id="BitstreamVeraSans-Roman-29"/>
     <path d="M 64.40625 67.28125 
L 64.40625 56.890625 
Q 59.421875 61.53125 53.78125 63.8125 
Q 48.140625 66.109375 41.796875 66.109375 
Q 29.296875 66.109375 22.65625 58.46875 
Q 16.015625 50.828125 16.015625 36.375 
Q 16.015625 21.96875 22.65625 14.328125 
Q 29.296875 6.6875 41.796875 6.6875 
Q 48.140625 6.6875 53.78125 8.984375 
Q 59.421875 11.28125 64.40625 15.921875 
L 64.40625 5.609375 
Q 59.234375 2.09375 53.4375 0.328125 
Q 47.65625 -1.421875 41.21875 -1.421875 
Q 24.65625 -1.421875 15.125 8.703125 
Q 5.609375 18.84375 5.609375 36.375 
Q 5.609375 53.953125 15.125 64.078125 
Q 24.65625 74.21875 41.21875 74.21875 
Q 47.75 74.21875 53.53125 72.484375 
Q 59.328125 70.75 64.40625 67.28125 
" id="BitstreamVeraSans-Roman-43"/>
     <path d="M 48.78125 52.59375 
L 48.78125 44.1875 
Q 44.96875 46.296875 41.140625 47.34375 
Q 37.3125 48.390625 33.40625 48.390625 
Q 24.65625 48.390625 19.8125 42.84375 
Q 14.984375 37.3125 14.984375 27.296875 
Q 14.984375 17.28125 19.8125 11.734375 
Q 24.65625 6.203125 33.40625 6.203125 
Q 37.3125 6.203125 41.140625 7.25 
Q 44.96875 8.296875 48.78125 10.40625 
L 48.78125 2.09375 
Q 45.015625 0.34375 40.984375 -0.53125 
Q 36.96875 -1.421875 32.421875 -1.421875 
Q 20.0625 -1.421875 12.78125 6.34375 
Q 5.515625 14.109375 5.515625 27.296875 
Q 5.515625 40.671875 12.859375 48.328125 
Q 20.21875 56 33.015625 56 
Q 37.15625 56 41.109375 55.140625 
Q 45.0625 54.296875 48.78125 52.59375 
" id="BitstreamVeraSans-Roman-63"/>
     <path d="M 45.40625 27.984375 
Q 45.40625 37.75 41.375 43.109375 
Q 37.359375 48.484375 30.078125 48.484375 
Q 22.859375 48.484375 18.828125 43.109375 
Q 14.796875 37.75 14.796875 27.984375 
Q 14.796875 18.265625 18.828125 12.890625 
Q 22.859375 7.515625 30.078125 7.515625 
Q 37.359375 7.515625 41.375 12.890625 
Q 45.40625 18.265625 45.40625 27.984375 
M 54.390625 6.78125 
Q 54.390625 -7.171875 48.1875 -13.984375 
Q 42 -20.796875 29.203125 -20.796875 
Q 24.46875 -20.796875 20.265625 -20.09375 
Q 16.0625 -19.390625 12.109375 -17.921875 
L 12.109375 -9.1875 
Q 16.0625 -11.328125 19.921875 -12.34375 
Q 23.78125 -13.375 27.78125 -13.375 
Q 36.625 -13.375 41.015625 -8.765625 
Q 45.40625 -4.15625 45.40625 5.171875 
L 45.40625 9.625 
Q 42.625 4.78125 38.28125 2.390625 
Q 33.9375 0 27.875 0 
Q 17.828125 0 11.671875 7.65625 
Q 5.515625 15.328125 5.515625 27.984375 
Q 5.515625 40.671875 11.671875 48.328125 
Q 17.828125 56 27.875 56 
Q 33.9375 56 38.28125 53.609375 
Q 42.625 51.21875 45.40625 46.390625 
L 45.40625 54.6875 
L 54.390625 54.6875 
z
" id="BitstreamVeraSans-Roman-67"/>
     <path d="M 18.109375 8.203125 
L 18.109375 -20.796875 
L 9.078125 -20.796875 
L 9.078125 54.6875 
L 18.109375 54.6875 
L 18.109375 46.390625 
Q 20.953125 51.265625 25.265625 53.625 
Q 29.59375 56 35.59375 56 
Q 45.5625 56 51.78125 48.09375 
Q 58.015625 40.1875 58.015625 27.296875 
Q 58.015625 14.40625 51.78125 6.484375 
Q 45.5625 -1.421875 35.59375 -1.421875 
Q 29.59375 -1.421875 25.265625 0.953125 
Q 20.953125 3.328125 18.109375 8.203125 
M 48.6875 27.296875 
Q 48.6875 37.203125 44.609375 42.84375 
Q 40.53125 48.484375 33.40625 48.484375 
Q 26.265625 48.484375 22.1875 42.84375 
Q 18.109375 37.203125 18.109375 27.296875 
Q 18.109375 17.390625 22.1875 11.75 
Q 26.265625 6.109375 33.40625 6.109375 
Q 40.53125 6.109375 44.609375 11.75 
Q 48.6875 17.390625 48.6875 27.296875 
" id="BitstreamVeraSans-Roman-70"/>
     <path d="M 54.890625 33.015625 
L 54.890625 0 
L 45.90625 0 
L 45.90625 32.71875 
Q 45.90625 40.484375 42.875 44.328125 
Q 39.84375 48.1875 33.796875 48.1875 
Q 26.515625 48.1875 22.3125 43.546875 
Q 18.109375 38.921875 18.109375 30.90625 
L 18.109375 0 
L 9.078125 0 
L 9.078125 75.984375 
L 18.109375 75.984375 
L 18.109375 46.1875 
Q 21.34375 51.125 25.703125 53.5625 
Q 30.078125 56 35.796875 56 
Q 45.21875 56 50.046875 50.171875 
Q 54.890625 44.34375 54.890625 33.015625 
" id="BitstreamVeraSans-Roman-68"/>
    </defs>
    <g transform="translate(46.246875 38.2)scale(0.25 -0.25)">
     <use xlink:href="#BitstreamVeraSans-Roman-52"/>
     <use x="69.419921875" xlink:href="#BitstreamVeraSans-Roman-65"/>
     <use x="130.943359375" xlink:href="#BitstreamVeraSans-Roman-63"/>
     <use x="185.923828125" xlink:href="#BitstreamVeraSans-Roman-65"/>
     <use x="247.447265625" xlink:href="#BitstreamVeraSans-Roman-69"/>
     <use x="275.23046875" xlink:href="#BitstreamVeraSans-Roman-76"/>
     <use x="334.41015625" xlink:href="#BitstreamVeraSans-Roman-65"/>
     <use x="395.93359375" xlink:href="#BitstreamVeraSans-Roman-72"/>
     <use x="437.046875" xlink:href="#BitstreamVeraSans-Roman-20"/>
     <use x="468.833984375" xlink:href="#BitstreamVeraSans-Roman-6f"/>
     <use x="530.015625" xlink:href="#BitstreamVeraSans-Roman-70"/>
     <use x="593.4921875" xlink:href="#BitstreamVeraSans-Roman-65"/>
     <use x="655.015625" xlink:href="#BitstreamVeraSans-Roman-72"/>
     <use x="696.12890625" xlink:href="#BitstreamVeraSans-Roman-61"/>
     <use x="757.408203125" xlink:href="#BitstreamVeraSans-Roman-74"/>
     <use x="796.6171875" xlink:href="#BitstreamVeraSans-Roman-69"/>
     <use x="824.400390625" xlink:href="#BitstreamVeraSans-Roman-6e"/>
     <use x="887.779296875" xlink:href="#BitstreamVeraSans-Roman-67"/>
     <use x="951.255859375" xlink:href="#BitstreamVeraSans-Roman-20"/>
     <use x="983.04296875" xlink:href="#BitstreamVeraSans-Roman-63"/>
     <use x="1038.0234375" xlink:href="#BitstreamVeraSans-Roman-68"/>
     <use x="1101.40234375" xlink:href="#BitstreamVeraSans-Roman-61"/>
     <use x="1162.68164062" xlink:href="#BitstreamVeraSans-Roman-72"/>
     <use x="1203.79492188" xlink:href="#BitstreamVeraSans-Roman-61"/>
     <use x="1265.07421875" xlink:href="#BitstreamVeraSans-Roman-63"/>
     <use x="1320.0546875" xlink:href="#BitstreamVeraSans-Roman-74"/>
     <use x="1359.26367188" xlink:href="#BitstreamVeraSans-Roman-65"/>
     <use x="1420.78710938" xlink:href="#BitstreamVeraSans-Roman-72"/>
     <use x="1461.90039062" xlink:href="#BitstreamVeraSans-Roman-69"/>
     <use x="1489.68359375" xlink:href="#BitstreamVeraSans-Roman-73"/>
     <use x="1541.78320312" xlink:href="#BitstreamVeraSans-Roman-74"/>
     <use x="1580.9921875" xlink:href="#BitstreamVeraSans-Roman-69"/>
     <use x="1608.77539062" xlink:href="#BitstreamVeraSans-Roman-63"/>
     <use x="1663.75585938" xlink:href="#BitstreamVeraSans-Roman-20"/>
     <use x="1695.54296875" xlink:href="#BitstreamVeraSans-Roman-28"/>
     <use x="1734.55664062" xlink:href="#BitstreamVeraSans-Roman-52"/>
     <use x="1804.0390625" xlink:href="#BitstreamVeraSans-Roman-4f"/>
     <use x="1882.75" xlink:href="#BitstreamVeraSans-Roman-43"/>
     <use x="1952.57421875" xlink:href="#BitstreamVeraSans-Roman-29"/>
    </g>
   </g>
   <g id="legend_1">
    <g id="patch_7">
     <path d="M 232.128 381.6 
L 511.2 381.6 
L 511.2 187.0515 
L 232.128 187.0515 
z
" style="fill:#ffffff;stroke:#000000;stroke-linejoin:miter;"/>
    </g>
    <g id="line2d_33">
     <path d="M 242.208 198.71325 
L 262.368 198.71325 
" style="fill:none;opacity:0.3;stroke:#0000ff;stroke-linecap:square;"/>
    </g>
    <g id="line2d_34"/>
    <g id="text_16">
     <!-- ROC fold 0 (AUC = 0.41) -->
     <defs>
      <path d="M 45.40625 46.390625 
L 45.40625 75.984375 
L 54.390625 75.984375 
L 54.390625 0 
L 45.40625 0 
L 45.40625 8.203125 
Q 42.578125 3.328125 38.25 0.953125 
Q 33.9375 -1.421875 27.875 -1.421875 
Q 17.96875 -1.421875 11.734375 6.484375 
Q 5.515625 14.40625 5.515625 27.296875 
Q 5.515625 40.1875 11.734375 48.09375 
Q 17.96875 56 27.875 56 
Q 33.9375 56 38.25 53.625 
Q 42.578125 51.265625 45.40625 46.390625 
M 14.796875 27.296875 
Q 14.796875 17.390625 18.875 11.75 
Q 22.953125 6.109375 30.078125 6.109375 
Q 37.203125 6.109375 41.296875 11.75 
Q 45.40625 17.390625 45.40625 27.296875 
Q 45.40625 37.203125 41.296875 42.84375 
Q 37.203125 48.484375 30.078125 48.484375 
Q 22.953125 48.484375 18.875 42.84375 
Q 14.796875 37.203125 14.796875 27.296875 
" id="BitstreamVeraSans-Roman-64"/>
      <path d="M 10.59375 45.40625 
L 73.1875 45.40625 
L 73.1875 37.203125 
L 10.59375 37.203125 
z
M 10.59375 25.484375 
L 73.1875 25.484375 
L 73.1875 17.1875 
L 10.59375 17.1875 
z
" id="BitstreamVeraSans-Roman-3d"/>
      <path d="M 37.109375 75.984375 
L 37.109375 68.5 
L 28.515625 68.5 
Q 23.6875 68.5 21.796875 66.546875 
Q 19.921875 64.59375 19.921875 59.515625 
L 19.921875 54.6875 
L 34.71875 54.6875 
L 34.71875 47.703125 
L 19.921875 47.703125 
L 19.921875 0 
L 10.890625 0 
L 10.890625 47.703125 
L 2.296875 47.703125 
L 2.296875 54.6875 
L 10.890625 54.6875 
L 10.890625 58.5 
Q 10.890625 67.625 15.140625 71.796875 
Q 19.390625 75.984375 28.609375 75.984375 
z
" id="BitstreamVeraSans-Roman-66"/>
      <path d="M 8.6875 72.90625 
L 18.609375 72.90625 
L 18.609375 28.609375 
Q 18.609375 16.890625 22.84375 11.734375 
Q 27.09375 6.59375 36.625 6.59375 
Q 46.09375 6.59375 50.34375 11.734375 
Q 54.59375 16.890625 54.59375 28.609375 
L 54.59375 72.90625 
L 64.5 72.90625 
L 64.5 27.390625 
Q 64.5 13.140625 57.4375 5.859375 
Q 50.390625 -1.421875 36.625 -1.421875 
Q 22.796875 -1.421875 15.734375 5.859375 
Q 8.6875 13.140625 8.6875 27.390625 
z
" id="BitstreamVeraSans-Roman-55"/>
      <path d="M 34.1875 63.1875 
L 20.796875 26.90625 
L 47.609375 26.90625 
z
M 28.609375 72.90625 
L 39.796875 72.90625 
L 67.578125 0 
L 57.328125 0 
L 50.6875 18.703125 
L 17.828125 18.703125 
L 11.1875 0 
L 0.78125 0 
z
" id="BitstreamVeraSans-Roman-41"/>
     </defs>
     <g transform="translate(278.208 203.75325)scale(0.144 -0.144)">
      <use xlink:href="#BitstreamVeraSans-Roman-52"/>
      <use x="69.482421875" xlink:href="#BitstreamVeraSans-Roman-4f"/>
      <use x="148.193359375" xlink:href="#BitstreamVeraSans-Roman-43"/>
      <use x="218.017578125" xlink:href="#BitstreamVeraSans-Roman-20"/>
      <use x="249.8046875" xlink:href="#BitstreamVeraSans-Roman-66"/>
      <use x="285.009765625" xlink:href="#BitstreamVeraSans-Roman-6f"/>
      <use x="346.19140625" xlink:href="#BitstreamVeraSans-Roman-6c"/>
      <use x="373.974609375" xlink:href="#BitstreamVeraSans-Roman-64"/>
      <use x="437.451171875" xlink:href="#BitstreamVeraSans-Roman-20"/>
      <use x="469.23828125" xlink:href="#BitstreamVeraSans-Roman-30"/>
      <use x="532.861328125" xlink:href="#BitstreamVeraSans-Roman-20"/>
      <use x="564.6484375" xlink:href="#BitstreamVeraSans-Roman-28"/>
      <use x="603.662109375" xlink:href="#BitstreamVeraSans-Roman-41"/>
      <use x="672.0703125" xlink:href="#BitstreamVeraSans-Roman-55"/>
      <use x="745.263671875" xlink:href="#BitstreamVeraSans-Roman-43"/>
      <use x="815.087890625" xlink:href="#BitstreamVeraSans-Roman-20"/>
      <use x="846.875" xlink:href="#BitstreamVeraSans-Roman-3d"/>
      <use x="930.6640625" xlink:href="#BitstreamVeraSans-Roman-20"/>
      <use x="962.451171875" xlink:href="#BitstreamVeraSans-Roman-30"/>
      <use x="1026.07421875" xlink:href="#BitstreamVeraSans-Roman-2e"/>
      <use x="1057.86132812" xlink:href="#BitstreamVeraSans-Roman-34"/>
      <use x="1121.484375" xlink:href="#BitstreamVeraSans-Roman-31"/>
      <use x="1185.10742188" xlink:href="#BitstreamVeraSans-Roman-29"/>
     </g>
    </g>
    <g id="line2d_35">
     <path d="M 242.208 219.84975 
L 262.368 219.84975 
" style="fill:none;opacity:0.3;stroke:#008000;stroke-linecap:square;"/>
    </g>
    <g id="line2d_36"/>
    <g id="text_17">
     <!-- ROC fold 1 (AUC = 0.61) -->
     <g transform="translate(278.208 224.88975)scale(0.144 -0.144)">
      <use xlink:href="#BitstreamVeraSans-Roman-52"/>
      <use x="69.482421875" xlink:href="#BitstreamVeraSans-Roman-4f"/>
      <use x="148.193359375" xlink:href="#BitstreamVeraSans-Roman-43"/>
      <use x="218.017578125" xlink:href="#BitstreamVeraSans-Roman-20"/>
      <use x="249.8046875" xlink:href="#BitstreamVeraSans-Roman-66"/>
      <use x="285.009765625" xlink:href="#BitstreamVeraSans-Roman-6f"/>
      <use x="346.19140625" xlink:href="#BitstreamVeraSans-Roman-6c"/>
      <use x="373.974609375" xlink:href="#BitstreamVeraSans-Roman-64"/>
      <use x="437.451171875" xlink:href="#BitstreamVeraSans-Roman-20"/>
      <use x="469.23828125" xlink:href="#BitstreamVeraSans-Roman-31"/>
      <use x="532.861328125" xlink:href="#BitstreamVeraSans-Roman-20"/>
      <use x="564.6484375" xlink:href="#BitstreamVeraSans-Roman-28"/>
      <use x="603.662109375" xlink:href="#BitstreamVeraSans-Roman-41"/>
      <use x="672.0703125" xlink:href="#BitstreamVeraSans-Roman-55"/>
      <use x="745.263671875" xlink:href="#BitstreamVeraSans-Roman-43"/>
      <use x="815.087890625" xlink:href="#BitstreamVeraSans-Roman-20"/>
      <use x="846.875" xlink:href="#BitstreamVeraSans-Roman-3d"/>
      <use x="930.6640625" xlink:href="#BitstreamVeraSans-Roman-20"/>
      <use x="962.451171875" xlink:href="#BitstreamVeraSans-Roman-30"/>
      <use x="1026.07421875" xlink:href="#BitstreamVeraSans-Roman-2e"/>
      <use x="1057.86132812" xlink:href="#BitstreamVeraSans-Roman-36"/>
      <use x="1121.484375" xlink:href="#BitstreamVeraSans-Roman-31"/>
      <use x="1185.10742188" xlink:href="#BitstreamVeraSans-Roman-29"/>
     </g>
    </g>
    <g id="line2d_37">
     <path d="M 242.208 240.98625 
L 262.368 240.98625 
" style="fill:none;opacity:0.3;stroke:#ff0000;stroke-linecap:square;"/>
    </g>
    <g id="line2d_38"/>
    <g id="text_18">
     <!-- ROC fold 2 (AUC = 0.69) -->
     <defs>
      <path d="M 10.984375 1.515625 
L 10.984375 10.5 
Q 14.703125 8.734375 18.5 7.8125 
Q 22.3125 6.890625 25.984375 6.890625 
Q 35.75 6.890625 40.890625 13.453125 
Q 46.046875 20.015625 46.78125 33.40625 
Q 43.953125 29.203125 39.59375 26.953125 
Q 35.25 24.703125 29.984375 24.703125 
Q 19.046875 24.703125 12.671875 31.3125 
Q 6.296875 37.9375 6.296875 49.421875 
Q 6.296875 60.640625 12.9375 67.421875 
Q 19.578125 74.21875 30.609375 74.21875 
Q 43.265625 74.21875 49.921875 64.515625 
Q 56.59375 54.828125 56.59375 36.375 
Q 56.59375 19.140625 48.40625 8.859375 
Q 40.234375 -1.421875 26.421875 -1.421875 
Q 22.703125 -1.421875 18.890625 -0.6875 
Q 15.09375 0.046875 10.984375 1.515625 
M 30.609375 32.421875 
Q 37.25 32.421875 41.125 36.953125 
Q 45.015625 41.5 45.015625 49.421875 
Q 45.015625 57.28125 41.125 61.84375 
Q 37.25 66.40625 30.609375 66.40625 
Q 23.96875 66.40625 20.09375 61.84375 
Q 16.21875 57.28125 16.21875 49.421875 
Q 16.21875 41.5 20.09375 36.953125 
Q 23.96875 32.421875 30.609375 32.421875 
" id="BitstreamVeraSans-Roman-39"/>
     </defs>
     <g transform="translate(278.208 246.02625)scale(0.144 -0.144)">
      <use xlink:href="#BitstreamVeraSans-Roman-52"/>
      <use x="69.482421875" xlink:href="#BitstreamVeraSans-Roman-4f"/>
      <use x="148.193359375" xlink:href="#BitstreamVeraSans-Roman-43"/>
      <use x="218.017578125" xlink:href="#BitstreamVeraSans-Roman-20"/>
      <use x="249.8046875" xlink:href="#BitstreamVeraSans-Roman-66"/>
      <use x="285.009765625" xlink:href="#BitstreamVeraSans-Roman-6f"/>
      <use x="346.19140625" xlink:href="#BitstreamVeraSans-Roman-6c"/>
      <use x="373.974609375" xlink:href="#BitstreamVeraSans-Roman-64"/>
      <use x="437.451171875" xlink:href="#BitstreamVeraSans-Roman-20"/>
      <use x="469.23828125" xlink:href="#BitstreamVeraSans-Roman-32"/>
      <use x="532.861328125" xlink:href="#BitstreamVeraSans-Roman-20"/>
      <use x="564.6484375" xlink:href="#BitstreamVeraSans-Roman-28"/>
      <use x="603.662109375" xlink:href="#BitstreamVeraSans-Roman-41"/>
      <use x="672.0703125" xlink:href="#BitstreamVeraSans-Roman-55"/>
      <use x="745.263671875" xlink:href="#BitstreamVeraSans-Roman-43"/>
      <use x="815.087890625" xlink:href="#BitstreamVeraSans-Roman-20"/>
      <use x="846.875" xlink:href="#BitstreamVeraSans-Roman-3d"/>
      <use x="930.6640625" xlink:href="#BitstreamVeraSans-Roman-20"/>
      <use x="962.451171875" xlink:href="#BitstreamVeraSans-Roman-30"/>
      <use x="1026.07421875" xlink:href="#BitstreamVeraSans-Roman-2e"/>
      <use x="1057.86132812" xlink:href="#BitstreamVeraSans-Roman-36"/>
      <use x="1121.484375" xlink:href="#BitstreamVeraSans-Roman-39"/>
      <use x="1185.10742188" xlink:href="#BitstreamVeraSans-Roman-29"/>
     </g>
    </g>
    <g id="line2d_39">
     <path d="M 242.208 262.12275 
L 262.368 262.12275 
" style="fill:none;opacity:0.3;stroke:#00bfbf;stroke-linecap:square;"/>
    </g>
    <g id="line2d_40"/>
    <g id="text_19">
     <!-- ROC fold 3 (AUC = 0.40) -->
     <defs>
      <path d="M 40.578125 39.3125 
Q 47.65625 37.796875 51.625 33 
Q 55.609375 28.21875 55.609375 21.1875 
Q 55.609375 10.40625 48.1875 4.484375 
Q 40.765625 -1.421875 27.09375 -1.421875 
Q 22.515625 -1.421875 17.65625 -0.515625 
Q 12.796875 0.390625 7.625 2.203125 
L 7.625 11.71875 
Q 11.71875 9.328125 16.59375 8.109375 
Q 21.484375 6.890625 26.8125 6.890625 
Q 36.078125 6.890625 40.9375 10.546875 
Q 45.796875 14.203125 45.796875 21.1875 
Q 45.796875 27.640625 41.28125 31.265625 
Q 36.765625 34.90625 28.71875 34.90625 
L 20.21875 34.90625 
L 20.21875 43.015625 
L 29.109375 43.015625 
Q 36.375 43.015625 40.234375 45.921875 
Q 44.09375 48.828125 44.09375 54.296875 
Q 44.09375 59.90625 40.109375 62.90625 
Q 36.140625 65.921875 28.71875 65.921875 
Q 24.65625 65.921875 20.015625 65.03125 
Q 15.375 64.15625 9.8125 62.3125 
L 9.8125 71.09375 
Q 15.4375 72.65625 20.34375 73.4375 
Q 25.25 74.21875 29.59375 74.21875 
Q 40.828125 74.21875 47.359375 69.109375 
Q 53.90625 64.015625 53.90625 55.328125 
Q 53.90625 49.265625 50.4375 45.09375 
Q 46.96875 40.921875 40.578125 39.3125 
" id="BitstreamVeraSans-Roman-33"/>
     </defs>
     <g transform="translate(278.208 267.16275)scale(0.144 -0.144)">
      <use xlink:href="#BitstreamVeraSans-Roman-52"/>
      <use x="69.482421875" xlink:href="#BitstreamVeraSans-Roman-4f"/>
      <use x="148.193359375" xlink:href="#BitstreamVeraSans-Roman-43"/>
      <use x="218.017578125" xlink:href="#BitstreamVeraSans-Roman-20"/>
      <use x="249.8046875" xlink:href="#BitstreamVeraSans-Roman-66"/>
      <use x="285.009765625" xlink:href="#BitstreamVeraSans-Roman-6f"/>
      <use x="346.19140625" xlink:href="#BitstreamVeraSans-Roman-6c"/>
      <use x="373.974609375" xlink:href="#BitstreamVeraSans-Roman-64"/>
      <use x="437.451171875" xlink:href="#BitstreamVeraSans-Roman-20"/>
      <use x="469.23828125" xlink:href="#BitstreamVeraSans-Roman-33"/>
      <use x="532.861328125" xlink:href="#BitstreamVeraSans-Roman-20"/>
      <use x="564.6484375" xlink:href="#BitstreamVeraSans-Roman-28"/>
      <use x="603.662109375" xlink:href="#BitstreamVeraSans-Roman-41"/>
      <use x="672.0703125" xlink:href="#BitstreamVeraSans-Roman-55"/>
      <use x="745.263671875" xlink:href="#BitstreamVeraSans-Roman-43"/>
      <use x="815.087890625" xlink:href="#BitstreamVeraSans-Roman-20"/>
      <use x="846.875" xlink:href="#BitstreamVeraSans-Roman-3d"/>
      <use x="930.6640625" xlink:href="#BitstreamVeraSans-Roman-20"/>
      <use x="962.451171875" xlink:href="#BitstreamVeraSans-Roman-30"/>
      <use x="1026.07421875" xlink:href="#BitstreamVeraSans-Roman-2e"/>
      <use x="1057.86132812" xlink:href="#BitstreamVeraSans-Roman-34"/>
      <use x="1121.484375" xlink:href="#BitstreamVeraSans-Roman-30"/>
      <use x="1185.10742188" xlink:href="#BitstreamVeraSans-Roman-29"/>
     </g>
    </g>
    <g id="line2d_41">
     <path d="M 242.208 283.25925 
L 262.368 283.25925 
" style="fill:none;opacity:0.3;stroke:#bf00bf;stroke-linecap:square;"/>
    </g>
    <g id="line2d_42"/>
    <g id="text_20">
     <!-- ROC fold 4 (AUC = 0.62) -->
     <g transform="translate(278.208 288.29925)scale(0.144 -0.144)">
      <use xlink:href="#BitstreamVeraSans-Roman-52"/>
      <use x="69.482421875" xlink:href="#BitstreamVeraSans-Roman-4f"/>
      <use x="148.193359375" xlink:href="#BitstreamVeraSans-Roman-43"/>
      <use x="218.017578125" xlink:href="#BitstreamVeraSans-Roman-20"/>
      <use x="249.8046875" xlink:href="#BitstreamVeraSans-Roman-66"/>
      <use x="285.009765625" xlink:href="#BitstreamVeraSans-Roman-6f"/>
      <use x="346.19140625" xlink:href="#BitstreamVeraSans-Roman-6c"/>
      <use x="373.974609375" xlink:href="#BitstreamVeraSans-Roman-64"/>
      <use x="437.451171875" xlink:href="#BitstreamVeraSans-Roman-20"/>
      <use x="469.23828125" xlink:href="#BitstreamVeraSans-Roman-34"/>
      <use x="532.861328125" xlink:href="#BitstreamVeraSans-Roman-20"/>
      <use x="564.6484375" xlink:href="#BitstreamVeraSans-Roman-28"/>
      <use x="603.662109375" xlink:href="#BitstreamVeraSans-Roman-41"/>
      <use x="672.0703125" xlink:href="#BitstreamVeraSans-Roman-55"/>
      <use x="745.263671875" xlink:href="#BitstreamVeraSans-Roman-43"/>
      <use x="815.087890625" xlink:href="#BitstreamVeraSans-Roman-20"/>
      <use x="846.875" xlink:href="#BitstreamVeraSans-Roman-3d"/>
      <use x="930.6640625" xlink:href="#BitstreamVeraSans-Roman-20"/>
      <use x="962.451171875" xlink:href="#BitstreamVeraSans-Roman-30"/>
      <use x="1026.07421875" xlink:href="#BitstreamVeraSans-Roman-2e"/>
      <use x="1057.86132812" xlink:href="#BitstreamVeraSans-Roman-36"/>
      <use x="1121.484375" xlink:href="#BitstreamVeraSans-Roman-32"/>
      <use x="1185.10742188" xlink:href="#BitstreamVeraSans-Roman-29"/>
     </g>
    </g>
    <g id="line2d_43">
     <path d="M 242.208 304.39575 
L 262.368 304.39575 
" style="fill:none;opacity:0.3;stroke:#bfbf00;stroke-linecap:square;"/>
    </g>
    <g id="line2d_44"/>
    <g id="text_21">
     <!-- ROC fold 5 (AUC = 0.79) -->
     <defs>
      <path d="M 8.203125 72.90625 
L 55.078125 72.90625 
L 55.078125 68.703125 
L 28.609375 0 
L 18.3125 0 
L 43.21875 64.59375 
L 8.203125 64.59375 
z
" id="BitstreamVeraSans-Roman-37"/>
      <path d="M 10.796875 72.90625 
L 49.515625 72.90625 
L 49.515625 64.59375 
L 19.828125 64.59375 
L 19.828125 46.734375 
Q 21.96875 47.46875 24.109375 47.828125 
Q 26.265625 48.1875 28.421875 48.1875 
Q 40.625 48.1875 47.75 41.5 
Q 54.890625 34.8125 54.890625 23.390625 
Q 54.890625 11.625 47.5625 5.09375 
Q 40.234375 -1.421875 26.90625 -1.421875 
Q 22.3125 -1.421875 17.546875 -0.640625 
Q 12.796875 0.140625 7.71875 1.703125 
L 7.71875 11.625 
Q 12.109375 9.234375 16.796875 8.0625 
Q 21.484375 6.890625 26.703125 6.890625 
Q 35.15625 6.890625 40.078125 11.328125 
Q 45.015625 15.765625 45.015625 23.390625 
Q 45.015625 31 40.078125 35.4375 
Q 35.15625 39.890625 26.703125 39.890625 
Q 22.75 39.890625 18.8125 39.015625 
Q 14.890625 38.140625 10.796875 36.28125 
z
" id="BitstreamVeraSans-Roman-35"/>
     </defs>
     <g transform="translate(278.208 309.43575)scale(0.144 -0.144)">
      <use xlink:href="#BitstreamVeraSans-Roman-52"/>
      <use x="69.482421875" xlink:href="#BitstreamVeraSans-Roman-4f"/>
      <use x="148.193359375" xlink:href="#BitstreamVeraSans-Roman-43"/>
      <use x="218.017578125" xlink:href="#BitstreamVeraSans-Roman-20"/>
      <use x="249.8046875" xlink:href="#BitstreamVeraSans-Roman-66"/>
      <use x="285.009765625" xlink:href="#BitstreamVeraSans-Roman-6f"/>
      <use x="346.19140625" xlink:href="#BitstreamVeraSans-Roman-6c"/>
      <use x="373.974609375" xlink:href="#BitstreamVeraSans-Roman-64"/>
      <use x="437.451171875" xlink:href="#BitstreamVeraSans-Roman-20"/>
      <use x="469.23828125" xlink:href="#BitstreamVeraSans-Roman-35"/>
      <use x="532.861328125" xlink:href="#BitstreamVeraSans-Roman-20"/>
      <use x="564.6484375" xlink:href="#BitstreamVeraSans-Roman-28"/>
      <use x="603.662109375" xlink:href="#BitstreamVeraSans-Roman-41"/>
      <use x="672.0703125" xlink:href="#BitstreamVeraSans-Roman-55"/>
      <use x="745.263671875" xlink:href="#BitstreamVeraSans-Roman-43"/>
      <use x="815.087890625" xlink:href="#BitstreamVeraSans-Roman-20"/>
      <use x="846.875" xlink:href="#BitstreamVeraSans-Roman-3d"/>
      <use x="930.6640625" xlink:href="#BitstreamVeraSans-Roman-20"/>
      <use x="962.451171875" xlink:href="#BitstreamVeraSans-Roman-30"/>
      <use x="1026.07421875" xlink:href="#BitstreamVeraSans-Roman-2e"/>
      <use x="1057.86132812" xlink:href="#BitstreamVeraSans-Roman-37"/>
      <use x="1121.484375" xlink:href="#BitstreamVeraSans-Roman-39"/>
      <use x="1185.10742188" xlink:href="#BitstreamVeraSans-Roman-29"/>
     </g>
    </g>
    <g id="line2d_45">
     <path d="M 242.208 325.53225 
L 262.368 325.53225 
" style="fill:none;opacity:0.8;stroke:#ff0000;stroke-dasharray:6.000000,6.000000;stroke-dashoffset:0.0;stroke-width:2.0;"/>
    </g>
    <g id="line2d_46"/>
    <g id="text_22">
     <!-- Luck -->
     <defs>
      <path d="M 9.8125 72.90625 
L 19.671875 72.90625 
L 19.671875 8.296875 
L 55.171875 8.296875 
L 55.171875 0 
L 9.8125 0 
z
" id="BitstreamVeraSans-Roman-4c"/>
      <path d="M 9.078125 75.984375 
L 18.109375 75.984375 
L 18.109375 31.109375 
L 44.921875 54.6875 
L 56.390625 54.6875 
L 27.390625 29.109375 
L 57.625 0 
L 45.90625 0 
L 18.109375 26.703125 
L 18.109375 0 
L 9.078125 0 
z
" id="BitstreamVeraSans-Roman-6b"/>
     </defs>
     <g transform="translate(278.208 330.57225)scale(0.144 -0.144)">
      <use xlink:href="#BitstreamVeraSans-Roman-4c"/>
      <use x="55.697265625" xlink:href="#BitstreamVeraSans-Roman-75"/>
      <use x="119.076171875" xlink:href="#BitstreamVeraSans-Roman-63"/>
      <use x="174.056640625" xlink:href="#BitstreamVeraSans-Roman-6b"/>
     </g>
    </g>
    <g id="line2d_47">
     <path d="M 242.208 346.66875 
L 262.368 346.66875 
" style="fill:none;opacity:0.8;stroke:#0000ff;stroke-linecap:square;stroke-width:2.0;"/>
    </g>
    <g id="line2d_48"/>
    <g id="text_23">
     <!-- Mean ROC (AUC = 0.59 $\pm$ 0.14) -->
     <defs>
      <path d="M 9.8125 72.90625 
L 24.515625 72.90625 
L 43.109375 23.296875 
L 61.8125 72.90625 
L 76.515625 72.90625 
L 76.515625 0 
L 66.890625 0 
L 66.890625 64.015625 
L 48.09375 14.015625 
L 38.1875 14.015625 
L 19.390625 64.015625 
L 19.390625 0 
L 9.8125 0 
z
" id="BitstreamVeraSans-Roman-4d"/>
      <path d="M 7.515625 0 
Q 6.6875 0 6.140625 0.578125 
Q 5.609375 1.171875 5.609375 2 
Q 5.609375 2.734375 6.140625 3.359375 
Q 6.6875 4 7.515625 4 
L 36.921875 4 
L 36.921875 31.296875 
L 7.515625 31.296875 
Q 6.6875 31.296875 6.140625 31.921875 
Q 5.609375 32.5625 5.609375 33.296875 
Q 5.609375 34.03125 6.140625 34.65625 
Q 6.6875 35.296875 7.515625 35.296875 
L 36.921875 35.296875 
L 36.921875 64.796875 
Q 36.921875 65.578125 37.5 66.09375 
Q 38.09375 66.609375 38.921875 66.609375 
Q 39.59375 66.609375 40.25 66.09375 
Q 40.921875 65.578125 40.921875 64.796875 
L 40.921875 35.296875 
L 70.3125 35.296875 
Q 71.046875 35.296875 71.578125 34.65625 
Q 72.125 34.03125 72.125 33.296875 
Q 72.125 32.5625 71.578125 31.921875 
Q 71.046875 31.296875 70.3125 31.296875 
L 40.921875 31.296875 
L 40.921875 4 
L 70.3125 4 
Q 71.046875 4 71.578125 3.359375 
Q 72.125 2.734375 72.125 2 
Q 72.125 1.171875 71.578125 0.578125 
Q 71.046875 0 70.3125 0 
z
" id="Cmsy10-a7"/>
     </defs>
     <g transform="translate(278.208 351.70875)scale(0.144 -0.144)">
      <use transform="translate(0.0 0.125)" xlink:href="#BitstreamVeraSans-Roman-4d"/>
      <use transform="translate(86.279296875 0.125)" xlink:href="#BitstreamVeraSans-Roman-65"/>
      <use transform="translate(147.802734375 0.125)" xlink:href="#BitstreamVeraSans-Roman-61"/>
      <use transform="translate(209.08203125 0.125)" xlink:href="#BitstreamVeraSans-Roman-6e"/>
      <use transform="translate(272.4609375 0.125)" xlink:href="#BitstreamVeraSans-Roman-20"/>
      <use transform="translate(304.248046875 0.125)" xlink:href="#BitstreamVeraSans-Roman-52"/>
      <use transform="translate(373.73046875 0.125)" xlink:href="#BitstreamVeraSans-Roman-4f"/>
      <use transform="translate(452.44140625 0.125)" xlink:href="#BitstreamVeraSans-Roman-43"/>
      <use transform="translate(522.265625 0.125)" xlink:href="#BitstreamVeraSans-Roman-20"/>
      <use transform="translate(554.052734375 0.125)" xlink:href="#BitstreamVeraSans-Roman-28"/>
      <use transform="translate(593.06640625 0.125)" xlink:href="#BitstreamVeraSans-Roman-41"/>
      <use transform="translate(661.474609375 0.125)" xlink:href="#BitstreamVeraSans-Roman-55"/>
      <use transform="translate(734.66796875 0.125)" xlink:href="#BitstreamVeraSans-Roman-43"/>
      <use transform="translate(804.4921875 0.125)" xlink:href="#BitstreamVeraSans-Roman-20"/>
      <use transform="translate(836.279296875 0.125)" xlink:href="#BitstreamVeraSans-Roman-3d"/>
      <use transform="translate(920.068359375 0.125)" xlink:href="#BitstreamVeraSans-Roman-20"/>
      <use transform="translate(951.85546875 0.125)" xlink:href="#BitstreamVeraSans-Roman-30"/>
      <use transform="translate(1015.47851562 0.125)" xlink:href="#BitstreamVeraSans-Roman-2e"/>
      <use transform="translate(1047.265625 0.125)" xlink:href="#BitstreamVeraSans-Roman-35"/>
      <use transform="translate(1110.81054688 0.125)" xlink:href="#BitstreamVeraSans-Roman-39"/>
      <use transform="translate(1174.43359375 0.125)" xlink:href="#BitstreamVeraSans-Roman-20"/>
      <use transform="translate(1206.22070312 0.125)" xlink:href="#Cmsy10-a7"/>
      <use transform="translate(1283.90625 0.125)" xlink:href="#BitstreamVeraSans-Roman-20"/>
      <use transform="translate(1315.69335938 0.125)" xlink:href="#BitstreamVeraSans-Roman-30"/>
      <use transform="translate(1379.31640625 0.125)" xlink:href="#BitstreamVeraSans-Roman-2e"/>
      <use transform="translate(1411.10351562 0.125)" xlink:href="#BitstreamVeraSans-Roman-31"/>
      <use transform="translate(1474.7265625 0.125)" xlink:href="#BitstreamVeraSans-Roman-34"/>
      <use transform="translate(1538.34960938 0.125)" xlink:href="#BitstreamVeraSans-Roman-29"/>
     </g>
    </g>
    <g id="patch_8">
     <path d="M 237.888 372.84525 
L 266.688 372.84525 
L 266.688 362.76525 
L 237.888 362.76525 
z
" style="fill:#808080;opacity:0.2;stroke:#808080;stroke-linejoin:miter;"/>
    </g>
    <g id="text_24">
     <!-- $\pm$ 1 std. dev. -->
     <g transform="translate(278.208 372.84525)scale(0.144 -0.144)">
      <use transform="translate(0.0 0.015625)" xlink:href="#Cmsy10-a7"/>
      <use transform="translate(77.685546875 0.015625)" xlink:href="#BitstreamVeraSans-Roman-20"/>
      <use transform="translate(109.47265625 0.015625)" xlink:href="#BitstreamVeraSans-Roman-31"/>
      <use transform="translate(173.095703125 0.015625)" xlink:href="#BitstreamVeraSans-Roman-20"/>
      <use transform="translate(204.8828125 0.015625)" xlink:href="#BitstreamVeraSans-Roman-73"/>
      <use transform="translate(256.982421875 0.015625)" xlink:href="#BitstreamVeraSans-Roman-74"/>
      <use transform="translate(296.19140625 0.015625)" xlink:href="#BitstreamVeraSans-Roman-64"/>
      <use transform="translate(359.66796875 0.015625)" xlink:href="#BitstreamVeraSans-Roman-2e"/>
      <use transform="translate(391.455078125 0.015625)" xlink:href="#BitstreamVeraSans-Roman-20"/>
      <use transform="translate(423.2421875 0.015625)" xlink:href="#BitstreamVeraSans-Roman-64"/>
      <use transform="translate(486.71875 0.015625)" xlink:href="#BitstreamVeraSans-Roman-65"/>
      <use transform="translate(548.2421875 0.015625)" xlink:href="#BitstreamVeraSans-Roman-76"/>
      <use transform="translate(607.421875 0.015625)" xlink:href="#BitstreamVeraSans-Roman-2e"/>
     </g>
    </g>
   </g>
  </g>
 </g>
 <defs>
  <clipPath id="pf1e25728d9">
   <rect height="345.6" width="446.4" x="72.0" y="43.2"/>
  </clipPath>
 </defs>
</svg>
